<?xml version="1.0" encoding="UTF-8"?>
<svg width="273px" height="154px" viewBox="0 0 273 154" version="1.1" xmlns="http://www.w3.org/2000/svg" xmlns:xlink="http://www.w3.org/1999/xlink">
    <!-- Generator: Sketch 57.1 (83088) - https://sketch.com -->
    <title>Group 26</title>
    <desc>Created with Sketch.</desc>
    <g id="Page-1" stroke="none" stroke-width="1" fill="none" fill-rule="evenodd">
        <g id="Bitmap" transform="translate(-704.000000, -1323.000000)">
            <g id="Group-9" transform="translate(216.000000, 1270.000000)">
                <g id="Group-25" transform="translate(426.000000, 0.000000)">
                    <g id="Group-26" transform="translate(62.567568, 53.000000)">
                        <ellipse id="Oval" fill="#D8D9DA" cx="135.810811" cy="148.054054" rx="135.810811" ry="5.94594595"></ellipse>
                        <g id="Group-24" transform="translate(7.432432, 0.000000)">
                            <g id="Group-54">
                                <g id="Group-53">
                                    <path d="M196.1875,2.28125 L244.09375,2.28125 C249.133031,2.28125 253.21875,6.36696875 253.21875,11.40625 L253.21875,98.09375 L79.84375,98.09375 L79.84375,11.40625 C79.84375,6.36696875 83.9294687,2.28125 88.96875,2.28125 L136.875,2.28125 L196.1875,2.28125 Z" id="Fill-1" fill="#313F46"></path>
                                    <path d="M79.84375,100.375 C78.5845,100.375 77.5625,99.3552812 77.5625,98.09375 L77.5625,11.40625 C77.5625,5.11684375 82.6793437,0 88.96875,0 L205.3125,0 C206.57175,0 207.59375,1.022 207.59375,2.28125 C207.59375,3.5405 206.57175,4.5625 205.3125,4.5625 L88.96875,4.5625 C85.1955625,4.5625 82.125,7.6330625 82.125,11.40625 L82.125,95.8125 L250.9375,95.8125 L250.9375,11.40625 C250.9375,7.6330625 247.866937,4.5625 244.09375,4.5625 L196.1875,4.5625 C194.925969,4.5625 193.90625,3.5405 193.90625,2.28125 C193.90625,1.022 194.925969,0 196.1875,0 L244.09375,0 C250.383156,0 255.5,5.11684375 255.5,11.40625 L255.5,98.09375 C255.5,99.3552812 254.480281,100.375 253.21875,100.375 L79.84375,100.375 Z" id="Fill-3" fill="#29343B" fill-rule="nonzero"></path>
                                    <path d="M114.0625,95.8125 L109.5,95.8125 L109.5,77.024125 C112.296813,78.4225313 114.0625,81.2809375 114.0625,84.40625 L114.0625,95.8125 Z" id="Fill-5" fill="#212D32"></path>
                                    <path d="M253.21875,98.09375 L79.84375,98.09375 L79.84375,111.78125 C79.84375,116.820531 83.9294687,120.90625 88.96875,120.90625 L244.09375,120.90625 C249.133031,120.90625 253.21875,116.820531 253.21875,111.78125 L253.21875,98.09375 Z" id="Fill-7" fill="#E2E6E3"></path>
                                    <path d="M82.125,100.375 L82.125,111.78125 C82.125,115.554438 85.1955625,118.625 88.96875,118.625 L244.09375,118.625 C247.866938,118.625 250.9375,115.554438 250.9375,111.78125 L250.9375,100.375 L82.125,100.375 Z M244.09375,123.1875 L88.96875,123.1875 C82.6793438,123.1875 77.5625,118.070656 77.5625,111.78125 L77.5625,98.09375 C77.5625,96.8322187 78.5845,95.8125 79.84375,95.8125 L253.21875,95.8125 C254.480281,95.8125 255.5,96.8322187 255.5,98.09375 L255.5,111.78125 C255.5,118.070656 250.383156,123.1875 244.09375,123.1875 L244.09375,123.1875 Z" id="Fill-9" fill="#29343B"></path>
                                    <path d="M171.09375,109.5 C171.09375,112.0185 169.04975,114.0625 166.53125,114.0625 C164.01275,114.0625 161.96875,112.0185 161.96875,109.5 C161.96875,106.9815 164.01275,104.9375 166.53125,104.9375 C169.04975,104.9375 171.09375,106.9815 171.09375,109.5" id="Fill-11" fill="#29343B"></path>
                                    <path d="M189.34375,143.71875 L143.71875,143.71875 C147.505625,143.71875 150.5625,140.661875 150.5625,136.875 L150.5625,120.90625 L182.5,120.90625 L182.5,136.875 C182.5,140.661875 185.556875,143.71875 189.34375,143.71875" id="Fill-13" fill="#E2E6E3"></path>
                                    <path d="M151.619631,141.4375 L181.444694,141.4375 C180.664506,140.093844 180.219663,138.53575 180.219663,136.875 L180.219663,123.1875 L152.844663,123.1875 L152.844663,136.875 C152.844663,138.53575 152.397537,140.093844 151.619631,141.4375 M189.344663,146 L143.719662,146 C142.458131,146 141.438412,144.980281 141.438412,143.71875 C141.438412,142.457219 142.458131,141.4375 143.719662,141.4375 C146.235881,141.4375 148.282163,139.391219 148.282163,136.875 L148.282163,120.90625 C148.282163,119.644719 149.301881,118.625 150.563413,118.625 L182.500913,118.625 C183.760163,118.625 184.782163,119.644719 184.782163,120.90625 L184.782163,136.875 C184.782163,139.391219 186.828444,141.4375 189.344663,141.4375 C190.603913,141.4375 191.625913,142.457219 191.625913,143.71875 C191.625913,144.980281 190.603913,146 189.344663,146" id="Fill-15" fill="#29343B"></path>
                                    <path d="M198.46875,146 L189.34375,146 C188.082219,146 187.0625,144.980281 187.0625,143.71875 C187.0625,142.457219 188.082219,141.4375 189.34375,141.4375 L198.46875,141.4375 C199.730281,141.4375 200.75,142.457219 200.75,143.71875 C200.75,144.980281 199.730281,146 198.46875,146" id="Fill-17" fill="#29343B"></path>
                                    <path d="M143.71875,146 L134.59375,146 C133.3345,146 132.3125,144.980281 132.3125,143.71875 C132.3125,142.457219 133.3345,141.4375 134.59375,141.4375 L143.71875,141.4375 C144.978,141.4375 146,142.457219 146,143.71875 C146,144.980281 144.978,146 143.71875,146" id="Fill-19" fill="#29343B"></path>
                                    <path d="M180.21875,136.875 L180.21875,123.1875 L177.9375,123.1875 L176.712469,123.1875 L152.84375,123.1875 L152.84375,127.75 L172.149969,127.75 C174.668469,127.75 176.712469,129.794 176.712469,132.3125 L176.712469,136.875 C176.712469,138.53575 177.157313,140.093844 177.9375,141.4375 L181.443781,141.4375 C180.663594,140.093844 180.21875,138.53575 180.21875,136.875" id="Fill-21" fill="#D1DAD2"></path>
                                    <path d="M102.65625,143.71875 L6.84375,143.71875 C4.32525,143.71875 2.28125,141.67475 2.28125,139.15625 L2.28125,75.28125 C2.28125,72.76275 4.32525,70.71875 6.84375,70.71875 L102.65625,70.71875 C105.17475,70.71875 107.21875,72.76275 107.21875,75.28125 L107.21875,139.15625 C107.21875,141.67475 105.17475,143.71875 102.65625,143.71875" id="Fill-23" fill="#E2E6E3"></path>
                                    <path d="M18.25,107.21875 C18.25,109.73725 16.206,111.78125 13.6875,111.78125 C11.169,111.78125 9.125,109.73725 9.125,107.21875 C9.125,104.70025 11.169,102.65625 13.6875,102.65625 C16.206,102.65625 18.25,104.70025 18.25,107.21875" id="Fill-30" fill="#29343B"></path>
                                    <path d="M6.84375,73 C5.58678125,73 4.5625,74.022 4.5625,75.28125 L4.5625,139.15625 C4.5625,140.4155 5.58678125,141.4375 6.84375,141.4375 L102.65625,141.4375 C103.913219,141.4375 104.9375,140.4155 104.9375,139.15625 L104.9375,75.28125 C104.9375,74.022 103.913219,73 102.65625,73 L6.84375,73 Z M102.65625,146 L6.84375,146 C3.0705625,146 0,142.929438 0,139.15625 L0,75.28125 C0,71.5080625 3.0705625,68.4375 6.84375,68.4375 L102.65625,68.4375 C106.429438,68.4375 109.5,71.5080625 109.5,75.28125 L109.5,139.15625 C109.5,142.929438 106.429438,146 102.65625,146 L102.65625,146 Z" id="Fill-25" fill="#29343B"></path>
                                    <polygon id="Fill-27" fill="#313F46" points="27.375 132.3125 95.8125 132.3125 95.8125 82.125 27.375 82.125"></polygon>
                                    <path d="M27.375,132.3125 L95.8125,132.3125 L95.8125,82.125 L27.375,82.125 L27.375,132.3125 Z M98.09375,136.875 L25.09375,136.875 C23.8345,136.875 22.8125,135.855281 22.8125,134.59375 L22.8125,79.84375 C22.8125,78.5822187 23.8345,77.5625 25.09375,77.5625 L98.09375,77.5625 C99.353,77.5625 100.375,78.5822187 100.375,79.84375 L100.375,134.59375 C100.375,135.855281 99.353,136.875 98.09375,136.875 L98.09375,136.875 Z" id="Fill-29" fill="#29343B"></path>
                                    <polygon id="Fill-37" fill="#D1DAD2" points="109.5 118.625 114.0625 118.625 114.0625 100.375 109.5 100.375"></polygon>
                                    <path d="M232.6875,143.71875 L205.3125,143.71875 C202.794,143.71875 200.75,141.67475 200.75,139.15625 L200.75,84.40625 C200.75,81.88775 202.794,79.84375 205.3125,79.84375 L232.6875,79.84375 C235.206,79.84375 237.25,81.88775 237.25,84.40625 L237.25,139.15625 C237.25,141.67475 235.206,143.71875 232.6875,143.71875" id="Fill-38" fill="#E2E6E3"></path>
                                    <path d="M205.3125,82.125 C204.05325,82.125 203.03125,83.147 203.03125,84.40625 L203.03125,139.15625 C203.03125,140.4155 204.05325,141.4375 205.3125,141.4375 L232.6875,141.4375 C233.94675,141.4375 234.96875,140.4155 234.96875,139.15625 L234.96875,84.40625 C234.96875,83.147 233.94675,82.125 232.6875,82.125 L205.3125,82.125 Z M232.6875,146 L205.3125,146 C201.539312,146 198.46875,142.929438 198.46875,139.15625 L198.46875,84.40625 C198.46875,80.6330625 201.539312,77.5625 205.3125,77.5625 L232.6875,77.5625 C236.460688,77.5625 239.53125,80.6330625 239.53125,84.40625 L239.53125,139.15625 C239.53125,142.929438 236.460688,146 232.6875,146 L232.6875,146 Z" id="Fill-39" fill="#29343B"></path>
                                    <polygon id="Fill-40" fill="#313F46" points="203.03125 127.75 234.96875 127.75 234.96875 93.53125 203.03125 93.53125"></polygon>
                                    <path d="M203.03125,127.75 L234.96875,127.75 L234.96875,93.53125 L203.03125,93.53125 L203.03125,127.75 Z M237.25,132.3125 L200.75,132.3125 C199.488469,132.3125 198.46875,131.292781 198.46875,130.03125 L198.46875,91.25 C198.46875,89.9884687 199.488469,88.96875 200.75,88.96875 L237.25,88.96875 C238.511531,88.96875 239.53125,89.9884687 239.53125,91.25 L239.53125,130.03125 C239.53125,131.292781 238.511531,132.3125 237.25,132.3125 L237.25,132.3125 Z" id="Fill-41" fill="#29343B"></path>
                                    <path d="M221.28125,136.875 C221.28125,138.136531 220.261531,139.15625 219,139.15625 C217.738469,139.15625 216.71875,138.136531 216.71875,136.875 C216.71875,135.613469 217.738469,134.59375 219,134.59375 C220.261531,134.59375 221.28125,135.613469 221.28125,136.875" id="Fill-42" fill="#29343B"></path>
                                    <polygon id="Fill-43" fill="#546065" points="219 127.75 212.15625 127.75 234.96875 104.9375 234.96875 111.78125"></polygon>
                                    <polygon id="Fill-44" fill="#546065" points="234.96875 127.75 223.5625 127.75 234.96875 116.34375"></polygon>
                                    <path d="M181.8125,54.75 C181.8125,63.5693125 174.663062,70.71875 165.84375,70.71875 C157.024438,70.71875 149.875,63.5693125 149.875,54.75 C149.875,45.9306875 157.024438,38.78125 165.84375,38.78125 C174.663062,38.78125 181.8125,45.9306875 181.8125,54.75" id="Fill-49" fill="#00C588"></path>
                                    <path d="M165.84375,38.78125 C157.038125,38.78125 149.875,45.9466562 149.875,54.75 C149.875,63.5533438 157.038125,70.71875 165.84375,70.71875 C174.649375,70.71875 181.8125,63.5533438 181.8125,54.75 C181.8125,45.9466562 174.649375,38.78125 165.84375,38.78125 M165.84375,75.28125 C154.524188,75.28125 145.3125,66.0718437 145.3125,54.75 C145.3125,43.4281563 154.524188,34.21875 165.84375,34.21875 C177.163313,34.21875 186.375,43.4281563 186.375,54.75 C186.375,66.0718437 177.163313,75.28125 165.84375,75.28125" id="Fill-50" fill="#29343B"></path>
                                    <path d="M163.5625,61.59375 C162.9785,61.59375 162.3945,61.3701875 161.949656,60.9253438 L157.387156,56.3628438 C156.495188,55.470875 156.495188,54.029125 157.387156,53.1371563 C158.279125,52.2451875 159.720875,52.2451875 160.612844,53.1371563 L163.5625,56.0868125 L171.074656,48.5746563 C171.966625,47.6826875 173.408375,47.6826875 174.300344,48.5746563 C175.192313,49.466625 175.192313,50.908375 174.300344,51.8003438 L165.175344,60.9253438 C164.7305,61.3701875 164.1465,61.59375 163.5625,61.59375" id="Fill-51" fill="#FEFEFE"></path>
                                    <path d="M75,108.5 C75,115.403571 69.1797143,121 62,121 C54.8202857,121 49,115.403571 49,108.5 C49,101.596429 54.8202857,96 62,96 C69.1797143,96 75,101.596429 75,108.5" id="Fill-49" fill="#00C588"></path>
                                    <path d="M61.5,96.4444444 C54.8522222,96.4444444 49.4444444,101.853944 49.4444444,108.5 C49.4444444,115.146056 54.8522222,120.555556 61.5,120.555556 C68.1477778,120.555556 73.5555556,115.146056 73.5555556,108.5 C73.5555556,101.853944 68.1477778,96.4444444 61.5,96.4444444 M61.5,124 C52.9543333,124 46,117.047389 46,108.5 C46,99.9526111 52.9543333,93 61.5,93 C70.0456667,93 77,99.9526111 77,108.5 C77,117.047389 70.0456667,124 61.5,124" id="Fill-50" fill="#29343B"></path>
                                    <path d="M60.2501094,113 C59.8021374,113 59.3541654,112.836673 59.0129367,112.511687 L55.5131554,109.178493 C54.8289482,108.526853 54.8289482,107.473564 55.5131554,106.821924 C56.1973627,106.170285 57.3032935,106.170285 57.9875008,106.821924 L60.2501094,108.976834 L66.0124992,103.48873 C66.6967065,102.83709 67.8026373,102.83709 68.4868446,103.48873 C69.1710518,104.140369 69.1710518,105.193659 68.4868446,105.845298 L61.487282,112.511687 C61.1460534,112.836673 60.6980814,113 60.2501094,113" id="Fill-51" fill="#FEFEFE"></path>
                                    <g id="Group-20" transform="translate(209.000000, 100.000000)">
                                        <path d="M20.2903226,11.1612903 C20.2903226,16.2031244 16.2031244,20.2903226 11.1612903,20.2903226 C6.11945622,20.2903226 2.03225806,16.2031244 2.03225806,11.1612903 C2.03225806,6.11945622 6.11945622,2.03225806 11.1612903,2.03225806 C16.2031244,2.03225806 20.2903226,6.11945622 20.2903226,11.1612903" id="Fill-49" fill="#00C588"></path>
                                        <path d="M10.5,2.33333333 C5.99666667,2.33333333 2.33333333,5.99783333 2.33333333,10.5 C2.33333333,15.0021667 5.99666667,18.6666667 10.5,18.6666667 C15.0033333,18.6666667 18.6666667,15.0021667 18.6666667,10.5 C18.6666667,5.99783333 15.0033333,2.33333333 10.5,2.33333333 M10.5,21 C4.711,21 0,16.2901667 0,10.5 C0,4.70983333 4.711,0 10.5,0 C16.289,0 21,4.70983333 21,10.5 C21,16.2901667 16.289,21 10.5,21" id="Fill-50" fill="#29343B"></path>
                                        <path d="M9.65329989,13.5483871 C9.34983499,13.5483871 9.04637009,13.4377465 8.81521518,13.2175944 L6.44439561,10.959624 C5.98090039,10.5181908 5.98090039,9.80467212 6.44439561,9.3632389 C6.90789084,8.92180568 7.65706982,8.92180568 8.12056505,9.3632389 L9.65329989,10.8230168 L13.5568543,7.10526846 C14.0203495,6.66383524 14.7695285,6.66383524 15.2330237,7.10526846 C15.696519,7.54670168 15.696519,8.26022034 15.2330237,8.70165356 L10.4913846,13.2175944 C10.2602297,13.4377465 9.9567648,13.5483871 9.65329989,13.5483871" id="Fill-51" fill="#FEFEFE"></path>
                                    </g>
                                    <polygon id="Fill-52" fill="#AFC2D6" points="239.53125 118.625 244.09375 118.625 244.09375 100.375 239.53125 100.375"></polygon>
                                </g>
                            </g>
                        </g>
                    </g>
                </g>
            </g>
        </g>
    </g>
</svg>