<?xml version="1.0" encoding="UTF-8"?>
<svg width="203px" height="155px" viewBox="0 0 203 155" version="1.1" xmlns="http://www.w3.org/2000/svg" xmlns:xlink="http://www.w3.org/1999/xlink">
    <!-- Generator: Sketch 57.1 (83088) - https://sketch.com -->
    <title>Group 114</title>
    <desc>Created with Sketch.</desc>
    <defs>
        <path d="M169.044996,0.000266538455 C171.507091,0.000266538455 173.503295,2.82571144 173.503295,6.31102066 L173.503295,139.600466 C173.503295,142.914175 170.817004,145.600466 167.503295,145.600466 L6.45819959,145.600466 L6.45819959,145.600466 C3.99610505,145.600466 2.00015231,142.775021 2.00015231,139.289712 L2.00015231,6.31102066 C2.00015231,2.82571144 3.99610505,0.000266538455 6.45819959,0.000266538455 L169.044996,0.000266538455 Z" id="path-1"></path>
        <filter x="-2.9%" y="-3.4%" width="105.8%" height="106.9%" filterUnits="objectBoundingBox" id="filter-2">
            <feOffset dx="-10" dy="-9" in="SourceAlpha" result="shadowOffsetInner1"></feOffset>
            <feComposite in="shadowOffsetInner1" in2="SourceAlpha" operator="arithmetic" k2="-1" k3="1" result="shadowInnerInner1"></feComposite>
            <feColorMatrix values="0 0 0 0 0.823110344   0 0 0 0 0.855044158   0 0 0 0 0.826744611  0 0 0 1 0" type="matrix" in="shadowInnerInner1"></feColorMatrix>
        </filter>
    </defs>
    <g id="Page-1" stroke="none" stroke-width="1" fill="none" fill-rule="evenodd">
        <g id="Bitmap" transform="translate(-1165.000000, -1322.000000)">
            <g id="Group-25" transform="translate(1068.000000, 1270.000000)">
                <g id="Group-114" transform="translate(97.000000, 52.000000)">
                    <ellipse id="Oval" fill="#D8D9DA" cx="101.378378" cy="149.054054" rx="100.810811" ry="5.94594595"></ellipse>
                    <g id="Group-15" transform="translate(13.000000, 0.000000)">
                        <g id="Group-18">
                            <path d="M4.45819959,2.00026654 L171.044996,2.00026654 C173.507091,2.00026654 175.503295,4.82571144 175.503295,8.31102066 L175.503295,141.289712 C175.503295,144.775021 173.507091,147.600466 171.044996,147.600466 L4.45819959,147.600466 C1.99610505,147.600466 0.000152307688,144.775021 0.000152307688,141.289712 L0.000152307688,8.31102066 C0.000152307688,4.82571144 1.99610505,2.00026654 4.45819959,2.00026654" id="Fill-12" stroke="#29343B" stroke-width="4" fill="#E2E6E3"></path>
                            <g id="Fill-12" fill="black" fill-opacity="1">
                                <use filter="url(#filter-2)" xlink:href="#path-1"></use>
                            </g>
                            <g id="Group-21" transform="translate(14.000000, 35.000000)">
                                <path d="M28.5620973,7.91581622 C29.6132324,7.91581622 30.4645838,8.76716757 30.4645838,9.8183027 C30.4645838,10.8717081 29.6132324,11.7207892 28.5620973,11.7207892 L1.90339459,11.7207892 C0.852259459,11.7207892 0.000908108108,10.8717081 0.000908108108,9.8183027 C0.000908108108,8.76716757 0.852259459,7.91581622 1.90339459,7.91581622 L28.5620973,7.91581622 Z" id="Fill-33" fill="#BEC3C2"></path>
                                <path d="M72.5611892,48 C73.6123243,48 74.4636757,48.8513514 74.4636757,49.9024865 C74.4636757,50.9558919 73.6123243,51.804973 72.5611892,51.804973 L45.9024865,51.804973 C44.8513514,51.804973 44,50.9558919 44,49.9024865 C44,48.8513514 44.8513514,48 45.9024865,48 L72.5611892,48 Z" id="Fill-33" fill="#BEC3C2"></path>
                                <path d="M61.5620973,7.91581622 C62.6132324,7.91581622 63.4645838,8.76716757 63.4645838,9.8183027 C63.4645838,10.8717081 62.6132324,11.7207892 61.5620973,11.7207892 L34.9033946,11.7207892 C33.8522595,11.7207892 33.0009081,10.8717081 33.0009081,9.8183027 C33.0009081,8.76716757 33.8522595,7.91581622 34.9033946,7.91581622 L61.5620973,7.91581622 Z" id="Fill-33" fill="#00C588"></path>
                                <path d="M1.90248649,3.80724324 C0.851351351,3.80724324 -2.84217094e-14,2.95589189 -2.84217094e-14,1.90475676 C-2.84217094e-14,0.851351351 0.851351351,0 1.90248649,0 L78.5611892,0 C79.6123243,0 80.4636757,0.851351351 80.4636757,1.90475676 C80.4636757,2.95589189 79.6123243,3.80724324 78.5611892,3.80724324 L1.90248649,3.80724324 Z" id="Fill-34" fill="#BEC3C2"></path>
                                <path d="M48.5620973,23.9158162 C49.6132324,23.9158162 50.4645838,24.7671676 50.4645838,25.8183027 C50.4645838,26.8717081 49.6132324,27.7207892 48.5620973,27.7207892 L1.90339459,27.7207892 C0.852259459,27.7207892 0.000908108108,26.8717081 0.000908108108,25.8183027 C0.000908108108,24.7671676 0.852259459,23.9158162 1.90339459,23.9158162 L48.5620973,23.9158162 Z" id="Fill-33" fill="#00C588"></path>
                                <path d="M1.90248649,19.8072432 C0.851351351,19.8072432 -3.55271368e-14,18.9558919 -3.55271368e-14,17.9047568 C-3.55271368e-14,16.8513514 0.851351351,16 1.90248649,16 L78.5611892,16 C79.6123243,16 80.4636757,16.8513514 80.4636757,17.9047568 C80.4636757,18.9558919 79.6123243,19.8072432 78.5611892,19.8072432 L1.90248649,19.8072432 Z" id="Fill-34" fill="#BEC3C2"></path>
                                <path d="M11.9024865,43.8072432 C10.8513514,43.8072432 10,42.9558919 10,41.9047568 C10,40.8513514 10.8513514,40 11.9024865,40 L88.5611892,40 C89.6123243,40 90.4636757,40.8513514 90.4636757,41.9047568 C90.4636757,42.9558919 89.6123243,43.8072432 88.5611892,43.8072432 L11.9024865,43.8072432 Z" id="Fill-34" fill="#00C588"></path>
                                <path d="M21.9024865,51.8072432 C20.8513514,51.8072432 20,50.9558919 20,49.9047568 C20,48.8513514 20.8513514,48 21.9024865,48 L38.5611892,48 C39.6123243,48 40.4636757,48.8513514 40.4636757,49.9047568 C40.4636757,50.9558919 39.6123243,51.8072432 38.5611892,51.8072432 L21.9024865,51.8072432 Z" id="Fill-34" fill="#00C588"></path>
                                <path d="M1.90248649,35.8072432 C0.851351351,35.8072432 -2.84217094e-14,34.9558919 -2.84217094e-14,33.9047568 C-2.84217094e-14,32.8513514 0.851351351,32 1.90248649,32 L128.561189,32 C129.612324,32 130.463676,32.8513514 130.463676,33.9047568 C130.463676,34.9558919 129.612324,35.8072432 128.561189,35.8072432 L1.90248649,35.8072432 Z" id="Fill-34" fill="#BEC3C2"></path>
                            </g>
                            <path d="M0.0369991857,18.6148649 L0,8.50734598 C0,4.92849608 2.01129587,2 4.469854,2 L171.031127,2 C173.489182,2 175.500478,4.92849608 175.500478,8.50734598 L175.437302,18.6148649 L0.0369991857,18.6148649 Z" id="Fill-14" stroke="#29343B" stroke-width="4" fill="#313F46"></path>
                            <path d="M11.5355558,7.2492464 C13.2246481,7.2492464 14.594275,8.61849252 14.594275,10.3075848 C14.594275,11.9970578 13.2246481,13.3663039 11.5355558,13.3663039 C9.84608282,13.3663039 8.4768367,11.9970578 8.4768367,10.3075848 C8.4768367,8.61849252 9.84608282,7.2492464 11.5355558,7.2492464" id="Fill-16" fill="#FA538D"></path>
                            <path d="M23.5664163,7.2492464 C25.2555086,7.2492464 26.6247547,8.61849252 26.6247547,10.3075848 C26.6247547,11.9970578 25.2555086,13.3663039 23.5664163,13.3663039 C21.8769433,13.3663039 20.5076971,11.9970578 20.5076971,10.3075848 C20.5076971,8.61849252 21.8769433,7.2492464 23.5664163,7.2492464" id="Fill-18" fill="#FAB353"></path>
                            <path d="M35.5967437,7.2492464 C37.2862167,7.2492464 38.6554628,8.61849252 38.6554628,10.3075848 C38.6554628,11.9970578 37.2862167,13.3663039 35.5967437,13.3663039 C33.9076514,13.3663039 32.5384053,11.9970578 32.5384053,10.3075848 C32.5384053,8.61849252 33.9076514,7.2492464 35.5967437,7.2492464" id="Fill-20" fill="#9DC925"></path>
                        </g>
                    </g>
                </g>
            </g>
        </g>
    </g>
</svg>