<?xml version="1.0" encoding="utf-8"?>
<!-- Generator: Adobe Illustrator 21.0.0, SVG Export Plug-In . SVG Version: 6.00 Build 0)  -->
<svg version="1.1" id="Layer_1" xmlns="http://www.w3.org/2000/svg" xmlns:xlink="http://www.w3.org/1999/xlink" x="0px" y="0px"
	 viewBox="0 0 500 500" style="enable-background:new 0 0 500 500;" xml:space="preserve">
<style type="text/css">
	.st0{fill:#D1E3FF;}
	.st1{fill:#464646;}
	.st2{fill:#505050;}
	.st3{fill:#323232;}
	.st4{fill:#282828;}
	.st5{fill:#F3F8FF;}
	.st6{fill:#B55B52;}
	.st7{fill:#14365B;}
	.st8{fill:#EFEFEF;}
	.st9{fill:#FD9A11;}
	.st10{fill:#EF826C;}
	.st11{fill:#9E4541;}
	.st12{fill:#FFFFFF;}
	.st13{fill:#EF8200;}
	.st14{fill:#DF7C00;}
	.st15{fill:#A02724;}
	.st16{fill:#FF9933;}
	.st17{fill:#EF7600;}
	.st18{fill:#FDB94E;}
	.st19{fill:#FD9A1E;}
</style>
<g id="Objects">
	<g>
		<g>
			<g>
				<g>
					<rect x="286.8" y="85.7" class="st0" width="136.3" height="158.8"/>
					<rect x="288.5" y="85.7" class="st1" width="138.3" height="158.8"/>
					<rect x="286.8" y="244.5" class="st0" width="136.3" height="8.9"/>
					<rect x="313.5" y="244.5" class="st1" width="130.1" height="8.9"/>
					<rect x="293.7" y="92.4" class="st1" width="127.9" height="145.3"/>
					<polygon class="st2" points="312.1,237.7 342.5,92.4 382.4,92.4 352,237.7 					"/>
					<polygon class="st2" points="358.4,237.7 388.9,92.4 406.9,92.4 376.4,237.7 					"/>
					<rect x="420.8" y="91.5" class="st0" width="0.7" height="131"/>
				</g>
				<g>
					<path class="st3" d="M282.9,85.4V142h15c0,0,26.9-17.5,33-53.6c0.6-3.7-2.2-7-5.9-7h-38C284.7,81.4,282.9,83.2,282.9,85.4z"/>
					<path class="st3" d="M282.9,232.6v-86.1h15c0,0,8.6,17.4,17.2,37.4C324.9,207,307.9,232.6,282.9,232.6L282.9,232.6z"/>
					<path class="st1" d="M297.4,146.5h-14c-0.8,0-1.5-0.7-1.5-1.5v-1.6c0-0.8,0.7-1.5,1.5-1.5h14c0.8,0,1.5,0.7,1.5,1.5v1.6
						C298.9,145.9,298.2,146.5,297.4,146.5z"/>
				</g>
				<g>
					<path class="st3" d="M431,85.4V142h-15c0,0-26.9-17.5-33-53.6c-0.6-3.7,2.2-7,5.9-7h38C429.1,81.4,431,83.2,431,85.4z"/>
					<path class="st3" d="M431,232.6v-86.1h-15c0,0-8.6,17.4-17.2,37.4C388.9,207,405.9,232.6,431,232.6L431,232.6z"/>
					<path class="st1" d="M416.5,146.5h14c0.8,0,1.5-0.7,1.5-1.5v-1.6c0-0.8-0.7-1.5-1.5-1.5h-14c-0.8,0-1.5,0.7-1.5,1.5v1.6
						C415,145.9,415.6,146.5,416.5,146.5z"/>
				</g>
			</g>
			<g>
				<path class="st4" d="M99.7,174.8c-18.1,0-32.8-14.7-32.8-32.8s14.7-32.8,32.8-32.8h2v65.7L99.7,174.8L99.7,174.8z"/>
				<circle class="st3" cx="101.7" cy="142" r="32.8"/>
				<circle class="st2" cx="101.7" cy="142" r="24.8"/>
				<polygon class="st4" points="112,151.2 99.9,142.7 103.7,124 107,124.7 103.6,141.2 113.9,148.4 				"/>
			</g>
			<g>
				<g>
					<rect x="217.3" y="255.3" class="st0" width="42.9" height="139.1"/>
					<polygon class="st5" points="248.8,394.4 260.2,394.4 260.2,375.2 236.7,375.2 					"/>
					<rect x="52.2" y="255.3" class="st3" width="42.9" height="139.1"/>
					<rect x="85.1" y="255.3" class="st1" width="175.1" height="132.5"/>
					<polygon class="st1" points="96.5,394.4 85.1,394.4 85.1,375.2 108.6,375.2 					"/>
					<rect x="94" y="304.7" class="st3" width="157.4" height="33.2"/>
					<rect x="94" y="344.9" class="st3" width="157.4" height="33.2"/>
					<path class="st2" d="M227.8,308.3H117.6c-3.5,0-6.4-2.9-6.4-6.4l0,0h123l0,0C234.2,305.4,231.3,308.3,227.8,308.3z"/>
					<rect x="94" y="264.5" class="st3" width="157.4" height="33.2"/>
					<path class="st2" d="M227.8,268H117.6c-3.5,0-6.4-2.9-6.4-6.4l0,0h123l0,0C234.2,265.1,231.3,268,227.8,268z"/>
					<path class="st2" d="M227.8,348.5H117.6c-3.5,0-6.4-2.9-6.4-6.4l0,0h123l0,0C234.2,345.6,231.3,348.5,227.8,348.5z"/>
				</g>
			</g>
			<g>
				<g>
					<polygon class="st0" points="413.4,394.4 326.7,394.4 319.6,294.7 406.3,294.7 					"/>
					<polygon class="st3" points="423.2,394.4 329.4,394.4 322.3,294.7 416.2,294.7 					"/>
					<polygon class="st2" points="336.7,386.6 330.7,302.6 408.9,302.6 414.8,386.6 					"/>
				</g>
				<path class="st1" d="M397.2,344.6c1,13.5-9.2,24.4-22.6,24.4c-13.5,0-25.1-10.9-26.1-24.4s9.2-24.4,22.6-24.4
					S396.2,331.1,397.2,344.6z"/>
			</g>
			<g>
				<path class="st3" d="M168.3,163.2c4.4,3.6,10.4,10.1,16,19.3c3.7,6.1,5.9,12.6,6.9,21.1c0-9.6-0.1-20-0.1-29.7
					c-1.1-2.5-3.7-8.3-5.5-12.9c-6.1-15.3-8.4-19-13.8-32.2c-7.3-17.5-14.8-38.4-12.6-36.7c4.4,3.4,21.1,34.7,22.9,39.2
					c6.2,15.4,8,26.7,9,37.5c0-9.2-0.1-17.6-0.1-24.1c-0.1-21.2-0.5-28-0.6-30.1c-0.7-1.1-1.5-2.3-1.9-3c-3.9-5.7-5.4-10.5-9.1-19
					c-5.2-12-9.8-33.3-8.4-32.3c5.5,4.5,9.8,14.1,15.5,26.4s4.1,19.3,5.2,29.8c0.2,2.1,0.4,9.8,0.6,20.6c1.5-11.5,4.3-19,9.3-25.9
					c6.2-8.4,12.2-14.1,16.7-17.1c4.4-3-7.6,17.8-13.4,26.8c-5.1,8.1-9.9,15.2-12.5,22.2c0.1,14.6,0.2,33,0.2,50.2
					c1.3-7.8,3.5-16.2,6.4-22.8c3.5-7.8,8.8-19.8,13-23.9c1-1-4.4,22.4-7.9,28.6c-3.5,6.2-6.1,12.1-8.3,15.6c-0.5,0.8-2.2,4-3.2,5.8
					c0,21-0.1,39.5-0.3,45.8h-0.9c0.1-1.6,0.1-12.3,0.1-26.4c-2.2-7.7-7.2-16.4-11.3-24.4C175.4,183,163.9,159.6,168.3,163.2z"/>
				<g>
					<polygon class="st3" points="178.5,255.3 204.7,255.3 206.7,229.6 176.5,229.6 					"/>
					<polygon class="st5" points="174.5,232.6 208.6,232.6 209.6,224 173.6,224 					"/>
				</g>
			</g>
		</g>
	</g>
	<g>
		<ellipse class="st4" cx="250" cy="428.3" rx="193.9" ry="11.3"/>
		<g>
			<g>
				<g>
					<polygon class="st6" points="174.4,419.9 167,419.9 166.3,402.9 173.6,402.9 					"/>
					<polygon class="st6" points="218.4,419.9 211,419.9 207.3,402.9 214.7,402.9 					"/>
					<path class="st7" d="M210.5,419h8.2c0.3,0,0.6,0.2,0.6,0.5l1.4,6.5c0.2,0.7-0.4,1.3-1.1,1.3c-2.9,0-4.3-0.2-7.9-0.2
						c-2.2,0-6.8,0.2-9.9,0.2c-3,0-3.5-3-2.2-3.3c5.6-1.2,7.8-2.9,9.6-4.6C209.6,419.2,210.1,419,210.5,419z"/>
					<path class="st8" d="M167.1,419h8c0.3,0,0.6,0.2,0.6,0.5l1.4,6.5c0.2,0.7-0.4,1.3-1.1,1.3c-2.9,0-7.1-0.2-10.7-0.2
						c-4.2,0-7.9,0.2-12.9,0.2c-3,0-3.8-3-2.6-3.3c5.7-1.3,10.4-1.4,15.4-4.4C165.9,419.3,166.4,419,167.1,419z"/>
					<path class="st6" d="M161.7,180.4l-9.9-3.9c0,0-11.4,23.2-15,24.4c-4.9,1.6-14.9,6-20.9,6.9c-0.8,1-1.9,4-1.8,5.1
						c8.3,2.7,26.1-0.9,29.8-3.8C152.4,202.6,161.7,180.4,161.7,180.4z"/>
					<path class="st9" d="M164.3,175.2c2.5,6.6-10,25.9-10,25.9l-14.7-8c0,0,3.4-9.6,8.5-17.2C153.3,168.2,161.6,168,164.3,175.2z"
						/>
					<path class="st10" d="M164.6,176c-2.9-1.4-6.1-0.2-9.3,5.2s-5.8,14.5-6.1,17l5.1,2.8C154.3,201,165.9,183.2,164.6,176z"/>
					<path class="st6" d="M117.1,207.7l-8.3-3.4l-2.8,8.9c0,0,4.7,0.8,10,0L117.1,207.7z"/>
					<polygon class="st6" points="102.9,204.1 103,210.1 106.1,213.3 108.9,204.3 					"/>
					<g>
						<polygon class="st11" points="166.3,402.9 166.7,411.6 174,411.6 173.6,402.9 						"/>
						<polygon class="st11" points="214.7,402.9 207.3,402.9 209.2,411.6 216.6,411.6 						"/>
					</g>
					<path class="st9" d="M155.6,170.2c0,0-8.6,22.1-0.4,63.3c11.8,0,33.4,0,39.2,0c0.3-6-3.5-35.4,2.3-63.7c0,0-6.7-1.3-13.1-1.7
						c-5-0.2-12.3-0.4-16.7,0C161.1,168.7,155.6,170.2,155.6,170.2z"/>
					<path class="st10" d="M188.2,176.8c-0.7,4.7,0.8,15.8,5.3,28.7c0-9.9,0.6-21.4,2.7-32.9v-0.1
						C193.6,172.3,188.8,172.4,188.2,176.8z"/>
					<path class="st12" d="M164.4,168.4c0.8-0.1,1.7-0.2,2.5-0.3c4.4-0.4,11.6-0.2,16.7,0c0.7,0,1.4,0.1,2.1,0.1l-0.2,0.6
						c-0.1,0.3-2.8,6.7-14,6.7c-1.5,0-5.9,0-7.3-3C163.4,171.1,163.9,169.5,164.4,168.4z"/>
					<path class="st6" d="M181.4,152.6c-1.1,5.4-1.6,12,2.2,15.6c0,0-2.2,5.4-12.1,5.4c-9.1,0-4.5-5.4-4.5-5.4c6-1.4,5.7-8.8,4.6-13
						L181.4,152.6z"/>
					<path class="st11" d="M180.7,157.5l-7.1-2.9l-0.9,0.2c0.1,0.9,0.5,2.3,1.1,3.6c1,2.3,4.6,5.4,7.5,6
						C180.6,162.3,180.5,159.9,180.7,157.5z"/>
					<path class="st11" d="M191.4,153.6c-1.3,1.5-3.2,2.2-4.8,2.3c-2.4,0.1-3.1-2.2-2-4.2c1-1.8,3.5-4,5.7-3.2
						C192.6,149.3,192.9,151.9,191.4,153.6z"/>
					<path class="st7" d="M190.2,136.8c3.3,2.1,3.5,12.4-1.4,13.9C183.8,152.2,184,132.7,190.2,136.8z"/>
					<path class="st6" d="M171.4,142c-0.8,7.2-1.6,11.4,1.3,15.7c4.5,6.5,13.9,4.7,16.8-2.1c2.6-6.2,3.5-16.9-3-21
						C180.1,130.6,172.2,134.8,171.4,142z"/>
					<path class="st7" d="M170.2,146.5c1.9,1,4.3-3.7,4.8-8.7c3.3,3.1,22,2.7,19.2-1.8c-4.4-6.9-20.3-8.5-22.8-3.9
						C166.8,132.3,165.8,144.3,170.2,146.5z"/>
					<path class="st6" d="M166.8,149.4c0.7,1.8,2.2,3.1,3.7,3.7c2.2,0.9,3.6-1,3.3-3.3c-0.4-2-1.9-5-4.3-4.9
						C167.1,144.9,165.9,147.3,166.8,149.4z"/>
					<path class="st13" d="M155.2,233.5c0,0-1,54.8-0.2,77.1c0.8,23.2,8.9,99.3,8.9,99.3h12.4c0,0,0.5-74.7,1-97.6
						c0.6-24.9,3.6-78.9,3.6-78.9L155.2,233.5L155.2,233.5z"/>
					<path class="st9" d="M177.2,406.1c0.1,0,0,4.1,0,4.1h-14.3l-0.6-4.6L177.2,406.1z"/>
					<path class="st14" d="M172.4,248c0.2,27.2,1.9,43.7,5.2,57c0.4-13,1.2-30.1,2-44.4L172.4,248z"/>
					<path class="st13" d="M169.1,233.5c0,0,8.3,56,12.9,77c5,23,23.8,99.5,23.8,99.5h13.4c0,0-12.4-74.7-15.3-97.4
						c-3.1-24.7-9.6-79.1-9.6-79.1H169.1z"/>
					<path class="st9" d="M219.2,406.5c0.1,0,0.7,3.8,0.7,3.8h-14.7l-1.3-4.3L219.2,406.5z"/>
					<path class="st14" d="M213.8,402c-0.1,0-0.1,0-0.1-0.1c-0.1-0.7-11.3-68.1-13.9-88.5c-2.8-22.2-8.6-71.3-8.7-71.8
						c0-0.1,0-0.1,0.1-0.1s0.1,0,0.1,0.1c0.1,0.5,5.9,49.7,8.7,71.8c2.6,20.4,13.8,87.8,13.9,88.5C214,401.9,213.9,402,213.8,402
						C213.9,402,213.8,402,213.8,402z"/>
					
						<ellipse transform="matrix(0.1706 -0.9853 0.9853 0.1706 7.5313 300.9584)" class="st7" cx="182.5" cy="146" rx="1.1" ry="0.7"/>
					
						<ellipse transform="matrix(0.1706 -0.9853 0.9853 0.1706 11.816 308.5096)" class="st7" cx="189.2" cy="147.2" rx="1.1" ry="0.7"/>
					<path class="st15" d="M186.3,147c0,0,0.7,3.6,1.9,5.5c-1.2,0.8-2.9,0-2.9,0L186.3,147z"/>
					<path class="st7" d="M183.4,153.8c0.1,0,0.2,0,0.2-0.1s0-0.2-0.1-0.2c-2.6-0.4-3.4-2.4-3.4-2.5s-0.1-0.1-0.2-0.1
						c-0.1,0-0.1,0.1-0.1,0.2C179.7,151.2,180.6,153.3,183.4,153.8z"/>
					<path class="st7" d="M180.3,143.4c0.1,0,0.2,0,0.3-0.1c1.1-1.1,2.4-0.8,2.4-0.8c0.2,0,0.4-0.1,0.4-0.3s-0.1-0.4-0.3-0.4
						c-0.1,0-1.6-0.4-3,0.9c-0.1,0.1-0.1,0.4,0,0.5C180.1,143.4,180.2,143.4,180.3,143.4z"/>
					<path class="st7" d="M191.8,145.2c0.1,0,0.1,0,0.2,0c0.2-0.1,0.3-0.3,0.2-0.4c-0.6-1.8-2.2-2.2-2.3-2.2
						c-0.2-0.1-0.4,0.1-0.4,0.3s0.1,0.4,0.3,0.4l0,0c0.1,0,1.3,0.3,1.8,1.8C191.6,145.1,191.7,145.2,191.8,145.2z"/>
					<path class="st6" d="M198.8,174.7l-8.8,5.9c0,0,12.7,22.5,11.6,26.2c-1.4,4.9-3.5,15.7-6.2,21.1c0.4,1.2,2.2,3.9,3.2,4.3
						c7-5.3,14.1-22,13.8-26.7C211.8,195,198.8,174.7,198.8,174.7z"/>
					<path class="st9" d="M196.7,169.8c6.9,1,14.9,25,14.9,25L197,203c0,0-6.4-11.4-9.6-19.9C184.1,174.2,189.3,168.7,196.7,169.8z"
						/>
					<path class="st13" d="M208.1,420.3c-0.6,0-1.1-0.1-1.4-0.4c-0.3-0.2-0.4-0.5-0.4-0.9c0-0.3,0.2-0.4,0.3-0.5
						c0.8-0.4,3.2,1,3.4,1.2c0.1,0,0.1,0.1,0.1,0.2S210,420,210,420C209.5,420.2,208.8,420.3,208.1,420.3z M207,418.8
						c-0.1,0-0.2,0-0.2,0s-0.1,0.1-0.1,0.2c0,0.3,0.1,0.5,0.2,0.6c0.4,0.3,1.4,0.4,2.6,0.1C208.7,419.3,207.6,418.8,207,418.8z"/>
					<path class="st13" d="M210,420C209.9,420,209.9,420,210,420c-0.8-0.4-2.3-2-2.2-2.9c0-0.1,0.1-0.4,0.6-0.5c0.3,0,0.5,0,0.7,0.2
						c0.9,0.7,1,2.8,1,2.9C210.1,419.9,210.1,420,210,420L210,420z M208.5,417.1C208.5,417.1,208.4,417.1,208.5,417.1
						c-0.3,0-0.3,0.1-0.3,0.2c-0.1,0.5,0.8,1.7,1.6,2.3c-0.1-0.6-0.3-1.9-0.9-2.3C208.8,417.1,208.6,417.1,208.5,417.1z"/>
					<path class="st13" d="M164,420.3c-0.7,0-1.4-0.1-1.8-0.5c-0.2-0.2-0.4-0.5-0.3-0.8c0-0.2,0.1-0.4,0.3-0.5
						c0.9-0.5,3.8,1,4.2,1.2c0.1,0,0.1,0.1,0.1,0.2s-0.1,0.1-0.1,0.1C165.7,420.2,164.8,420.3,164,420.3z M162.7,418.8
						c-0.1,0-0.2,0-0.3,0.1c-0.1,0-0.1,0.1-0.1,0.2c0,0.2,0.1,0.4,0.2,0.6c0.5,0.4,1.7,0.5,3.3,0.2
						C164.7,419.3,163.4,418.8,162.7,418.8z"/>
					<path class="st13" d="M166.3,420L166.3,420c-1-0.4-2.7-2-2.6-2.8c0-0.2,0.2-0.4,0.6-0.5c0.3,0,0.7,0.1,1,0.3
						c0.9,0.8,1.1,2.7,1.1,2.8C166.4,419.9,166.4,419.9,166.3,420C166.4,420,166.3,420,166.3,420z M164.5,417.1h-0.1
						c-0.3,0-0.3,0.2-0.3,0.2c-0.1,0.5,1.1,1.7,2,2.3c-0.1-0.6-0.4-1.8-1-2.3C164.9,417.1,164.7,417.1,164.5,417.1z"/>
					<path class="st6" d="M195.4,227.9l-7-0.5l3.7,7.7c0,0,6.1,0.3,7.1-4.4L195.4,227.9z"/>
					<polygon class="st6" points="182.7,230.9 186.4,237.7 192.1,235.1 188.4,227.4 					"/>
				</g>
				<g>
					<polygon class="st16" points="138.7,428.1 128.9,428.1 106.7,188.3 116.4,187.4 					"/>
					<polygon class="st16" points="158.2,428.1 148.4,428.1 126,186.6 135.7,185.6 					"/>
					<polygon class="st17" points="148.4,428.1 138.7,428.1 116.4,187.4 126,186.6 					"/>
					<polygon class="st18" points="124,169.8 115.3,170.6 106.7,188.3 135.7,185.7 					"/>
					<polygon class="st17" points="119,163 115.3,170.6 124,169.8 					"/>
				</g>
			</g>
			<g>
				<path class="st17" d="M381.4,153.4l-11.4-1.3l0,0c0,7.8-0.7,15.6-2.2,23.2l-3.9,19.6l11.4,1.3l3.9-19.6
					C380.7,169,381.4,161.2,381.4,153.4L381.4,153.4z"/>
				<g>
					<g>
						<polygon class="st19" points="399.5,176.8 224.3,176.8 202.5,428.1 377.8,428.1 						"/>
						<polygon class="st17" points="378.9,415.6 203.6,415.6 202.5,428.1 377.8,428.1 						"/>
					</g>
					<g>
						<polygon class="st4" points="388.1,176.8 212.8,176.8 191.1,428.1 366.4,428.1 						"/>
						<polygon class="st17" points="367.5,415.6 192.2,415.6 191.1,428.1 366.4,428.1 						"/>
					</g>
					<g>
						<g>
							<path class="st9" d="M376.1,189.4H222.7c-0.1,0-0.2-0.1-0.2-0.2s0.1-0.2,0.2-0.2h153.4c0.1,0,0.2,0.1,0.2,0.2
								S376.2,189.4,376.1,189.4z"/>
							<path class="st9" d="M375.2,199.5H221.8c-0.1,0-0.2-0.1-0.2-0.2s0.1-0.2,0.2-0.2h153.4c0.1,0,0.2,0.1,0.2,0.2
								S375.3,199.5,375.2,199.5z"/>
							<path class="st9" d="M374.4,209.6H221c-0.1,0-0.2-0.1-0.2-0.2s0.1-0.2,0.2-0.2h153.4c0.1,0,0.2,0.1,0.2,0.2
								S374.5,209.6,374.4,209.6z"/>
							<path class="st9" d="M373.5,219.7H220.1c-0.1,0-0.2-0.1-0.2-0.2s0.1-0.2,0.2-0.2h153.4c0.1,0,0.2,0.1,0.2,0.2
								S373.6,219.7,373.5,219.7z"/>
							<path class="st9" d="M372.6,229.8H219.2c-0.1,0-0.2-0.1-0.2-0.2s0.1-0.2,0.2-0.2h153.4c0.1,0,0.2,0.1,0.2,0.2
								S372.7,229.8,372.6,229.8z"/>
							<path class="st9" d="M371.7,239.8H218.3c-0.1,0-0.2-0.1-0.2-0.2s0.1-0.2,0.2-0.2h153.4c0.1,0,0.2,0.1,0.2,0.2
								S371.9,239.8,371.7,239.8z"/>
							<path class="st9" d="M370.9,249.9H217.5c-0.1,0-0.2-0.1-0.2-0.2s0.1-0.2,0.2-0.2h153.4c0.1,0,0.2,0.1,0.2,0.2
								S371,249.9,370.9,249.9z"/>
							<path class="st9" d="M370,260H216.6c-0.1,0-0.2-0.1-0.2-0.2s0.1-0.2,0.2-0.2H370c0.1,0,0.2,0.1,0.2,0.2S370.1,260,370,260z"
								/>
							<path class="st9" d="M369.1,270.1H215.7c-0.1,0-0.2-0.1-0.2-0.2s0.1-0.2,0.2-0.2h153.4c0.1,0,0.2,0.1,0.2,0.2
								S369.2,270.1,369.1,270.1z"/>
							<path class="st9" d="M368.3,280.2H214.8c-0.1,0-0.2-0.1-0.2-0.2s0.1-0.2,0.2-0.2h153.4c0.1,0,0.2,0.1,0.2,0.2
								C368.5,280.1,368.4,280.2,368.3,280.2z"/>
							<path class="st9" d="M367.4,290.3H214c-0.1,0-0.2-0.1-0.2-0.2s0.1-0.2,0.2-0.2h153.4c0.1,0,0.2,0.1,0.2,0.2
								C367.6,290.2,367.5,290.3,367.4,290.3z"/>
							<path class="st9" d="M366.5,300.4H213.1c-0.1,0-0.2-0.1-0.2-0.2s0.1-0.2,0.2-0.2h153.4c0.1,0,0.2,0.1,0.2,0.2
								S366.6,300.4,366.5,300.4z"/>
							<path class="st9" d="M365.6,310.5H212.2c-0.1,0-0.2-0.1-0.2-0.2s0.1-0.2,0.2-0.2h153.4c0.1,0,0.2,0.1,0.2,0.2
								C365.9,310.4,365.8,310.5,365.6,310.5z"/>
							<path class="st9" d="M364.8,320.6H211.4c-0.1,0-0.2-0.1-0.2-0.2s0.1-0.2,0.2-0.2h153.4c0.1,0,0.2,0.1,0.2,0.2
								S364.9,320.6,364.8,320.6z"/>
							<path class="st9" d="M363.9,330.7H210.5c-0.1,0-0.2-0.1-0.2-0.2s0.1-0.2,0.2-0.2h153.4c0.1,0,0.2,0.1,0.2,0.2
								S364,330.7,363.9,330.7z"/>
							<path class="st9" d="M363,340.7H209.6c-0.1,0-0.2-0.1-0.2-0.2s0.1-0.2,0.2-0.2H363c0.1,0,0.2,0.1,0.2,0.2
								S363.1,340.7,363,340.7z"/>
							<path class="st9" d="M362.2,350.8H208.7c-0.1,0-0.2-0.1-0.2-0.2s0.1-0.2,0.2-0.2h153.4c0.1,0,0.2,0.1,0.2,0.2
								C362.4,350.7,362.3,350.8,362.2,350.8z"/>
							<path class="st9" d="M361.3,360.9H207.9c-0.1,0-0.2-0.1-0.2-0.2s0.1-0.2,0.2-0.2h153.4c0.1,0,0.2,0.1,0.2,0.2
								S361.4,360.9,361.3,360.9z"/>
							<path class="st9" d="M360.4,371H207c-0.1,0-0.2-0.1-0.2-0.2s0.1-0.2,0.2-0.2h153.4c0.1,0,0.2,0.1,0.2,0.2
								S360.5,371,360.4,371z"/>
							<path class="st9" d="M359.5,381.1H206.1c-0.1,0-0.2-0.1-0.2-0.2s0.1-0.2,0.2-0.2h153.4c0.1,0,0.2,0.1,0.2,0.2
								S359.7,381.1,359.5,381.1z"/>
							<path class="st9" d="M358.7,391.2H205.3c-0.1,0-0.2-0.1-0.2-0.2s0.1-0.2,0.2-0.2h153.4c0.1,0,0.2,0.1,0.2,0.2
								C358.9,391.1,358.8,391.2,358.7,391.2z"/>
							<path class="st9" d="M357.8,401.3H204.4c-0.1,0-0.2-0.1-0.2-0.2s0.1-0.2,0.2-0.2h153.4c0.1,0,0.2,0.1,0.2,0.2
								C358,401.2,357.9,401.3,357.8,401.3z"/>
						</g>
						<path class="st13" d="M341.4,410.4L341.4,410.4c-0.1,0-0.1-0.1-0.1-0.1L360.9,183c0-0.1,0.1-0.1,0.1-0.1
							c0.1,0,0.1,0.1,0.1,0.1l-19.6,227.3C341.5,410.3,341.5,410.4,341.4,410.4z"/>
					</g>
				</g>
				<path class="st13" d="M357.2,150.5h-11.4l0,0c0.9,7.7,1,15.6,0.4,23.3l-1.7,19.9h11.4l1.7-19.9
					C358.2,166,358.1,158.2,357.2,150.5L357.2,150.5z"/>
				<g>
					<path class="st17" d="M257.4,197.7C257.3,197.7,257.3,197.7,257.4,197.7c-0.2,0-0.2-0.1-0.3-0.2c0-0.5-0.3-1-0.7-1.4
						c-0.7-0.6-1.9-0.9-2.9-0.8c-0.8,0.1-1.6,0.4-2.4,0.6c-0.8,0.3-1.7,0.6-2.6,0.7c-1.6,0.2-3.3-0.3-4.5-1.3
						c-0.9,1.4-2.7,2.2-4.4,1.9c-1.1-0.2-2.2-1-2.8-2c-0.4-0.7-1.3-0.9-2-0.5c-1.3,0.7-2.6,1.2-4,1.8c-0.1,0-0.1,0-0.2,0
						c-0.1,0-0.1-0.1-0.1-0.2c0-0.3-0.1-0.6,0-1c0-0.3-0.1-0.5-0.3-0.7s-0.4-0.2-0.6-0.1c-0.4,0.1-0.9,0.3-1.5,0.8l-0.2,0.2
						c-1,0.8-1.9,1.4-2.4,1.3c-0.2,0-0.3-0.1-0.4-0.3c-0.2-0.3-0.3-0.6-0.2-1.1c0.2-1.7,1.5-3.2,3.2-3.5c0.1,0,0.3,0.1,0.3,0.2
						c0,0.1-0.1,0.3-0.2,0.3c-1.4,0.3-2.6,1.6-2.8,3.1c0,0.3,0,0.6,0.1,0.8c0,0,0,0,0.1,0.1c0.4,0.1,1.5-0.7,2.1-1.2l0.2-0.2
						c0.7-0.5,1.2-0.7,1.7-0.9c0.4-0.1,0.8-0.1,1.1,0.2s0.5,0.7,0.5,1.2c0,0.2,0,0.4,0,0.5c1.2-0.5,2.4-1,3.6-1.6
						c1-0.5,2.1-0.2,2.7,0.7c0.6,0.9,1.5,1.6,2.5,1.8c1.6,0.3,3.3-0.5,4-1.9c0-0.1,0.1-0.1,0.2-0.1c0.1,0,0.2,0,0.2,0.1
						c1.2,1,2.8,1.6,4.4,1.4c0.9-0.1,1.7-0.4,2.5-0.7s1.6-0.5,2.5-0.7c1.2-0.2,2.5,0.2,3.3,0.9c0.4,0.3,0.7,0.7,0.8,1.2
						c1.6-1.8,3.5-3.6,5.9-3.5c0.2,0,0.6,0.1,0.8,0.3c0.2,0.3,0.2,0.6,0.2,0.9l-0.3,2.1c1.2-0.7,2.3-1.6,3.2-2.7
						c0.5-0.6,1-1.1,1.4-1.4c0.9-0.5,1.4-0.3,1.8-0.1c0.4,0.3,0.5,0.8,0.7,1.2c0,0.1,0.1,0.3,0.1,0.4c0.1,0.3,0.4,0.6,0.6,0.7
						c0.1,0,0.2,0,0.3,0c0.1-0.1,0.3,0,0.3,0.1c0.1,0.1,0,0.3-0.1,0.3c-0.2,0.1-0.5,0.1-0.7,0c-0.4-0.1-0.7-0.5-0.9-0.9
						c-0.1-0.1-0.1-0.3-0.1-0.4c-0.1-0.4-0.2-0.7-0.5-0.9c-0.3-0.3-0.7-0.2-1.2,0.1c-0.4,0.3-0.8,0.7-1.3,1.3
						c-1,1.3-2.3,2.4-3.8,3.1c-0.1,0-0.2,0-0.3,0c-0.1-0.1-0.1-0.1-0.1-0.2l0.3-2.6c0-0.2,0-0.4,0-0.5c-0.1-0.1-0.2-0.1-0.5-0.1
						h-0.1c-2.3,0-4.1,1.9-5.7,3.7C257.5,197.7,257.4,197.7,257.4,197.7z"/>
					<path class="st17" d="M314.4,197.7c-1,0-1.8-0.8-2.3-1.6c-0.2-0.4-0.4-0.8-0.6-1.1c-0.2-0.5-0.4-0.9-0.7-1.3
						c-1.1,1-2.4,1.7-3.8,2.1c-0.1,0-0.2,0-0.2-0.1c-0.1-0.1-0.1-0.1-0.1-0.2c0.1-0.4,0.1-0.8,0.1-1.2c0-0.7-0.3-1.3-0.8-1.7
						s-1.2-0.5-1.8-0.2l-2.9,1.1c-0.5,0.2-1.9,0.7-2.6-0.1c-0.1-0.1-0.2-0.2-0.2-0.3c-0.1-0.2-0.2-0.3-0.3-0.4
						c-0.2-0.1-0.5,0.1-0.8,0.2c-1.8,1.1-3.7,2.2-5.6,3.3c-0.7,0.4-1.4,0.7-2.2,0.8c-0.7,0-1.4-0.3-1.9-0.9
						c-0.4-0.4-0.6-0.9-0.6-1.5c-1.2,1-2.5,1.8-3.9,1.8l0,0c-0.5,0-0.9-0.1-1.1-0.3c-0.7-0.5-0.7-1.4-0.5-2.1
						c0.3-0.7,0.8-1.2,1.2-1.6c0.1-0.1,0.3-0.1,0.4,0s0.1,0.3,0,0.4c-0.4,0.4-0.9,0.9-1.1,1.5c-0.2,0.5-0.1,1.2,0.3,1.5
						c0.2,0.1,0.5,0.2,0.9,0.2l0,0c1.5,0,2.8-1,4.1-2c0.1-0.1,0.2-0.1,0.3,0c0.1,0.1,0.1,0.2,0.1,0.3c-0.1,0.6,0.1,1.1,0.5,1.6
						s1,0.7,1.5,0.7l0,0c0.7,0,1.3-0.3,1.9-0.7c1.9-1,3.7-2.1,5.6-3.2c0.3-0.2,0.8-0.5,1.3-0.3c0.3,0.1,0.4,0.4,0.5,0.6
						c0.1,0.1,0.1,0.2,0.2,0.3c0.4,0.4,1,0.4,2.1,0l2.9-1.1c0.8-0.3,1.6-0.2,2.3,0.3c0.7,0.5,1,1.3,1,2.1c0,0.3,0,0.5-0.1,0.8
						c1.3-0.5,2.5-1.2,3.5-2.1c0.1,0,0.1-0.1,0.2-0.1s0.1,0,0.2,0.1c0.4,0.5,0.6,1.1,0.9,1.6c0.2,0.4,0.3,0.7,0.5,1.1
						c0.5,0.8,1.3,1.5,2.2,1.3c0.7-0.2,1.1-0.8,1.5-1.4c0.5-0.7,1-1.4,1.9-1.6c0.8-0.2,1.6,0.2,2.3,0.6c0.3,0.1,0.5,0.3,0.8,0.4
						c1.5,0.7,3.2,0.3,4.9-0.2c1.4-0.3,2.8-0.7,4.2-0.5c0.1,0,0.2,0.1,0.2,0.3c0,0.1-0.1,0.2-0.3,0.2c-1.3-0.2-2.7,0.2-4,0.5
						c-1.8,0.4-3.6,0.9-5.3,0.1c-0.3-0.1-0.6-0.3-0.8-0.4c-0.7-0.4-1.3-0.7-2-0.6c-0.7,0.1-1.1,0.8-1.6,1.4c-0.5,0.7-1,1.4-1.8,1.6
						C314.6,197.7,314.5,197.7,314.4,197.7z"/>
					<path class="st17" d="M230.9,207.6h-0.1c-0.1-0.1-0.1-0.1-0.1-0.2c0-0.5,0.2-1,0.3-1.5c-1.5,1.1-3.5,1.5-5.3,1.1
						c-0.3-0.1-0.7-0.2-1-0.4c-0.7-0.6-0.6-1.7,0-2.4c0.5-0.6,1.3-1,2-1.2c0.1,0,0.3,0,0.3,0.1s0,0.3-0.1,0.3
						c-0.7,0.3-1.4,0.6-1.8,1.1c-0.4,0.5-0.5,1.3,0,1.7c0.2,0.2,0.5,0.3,0.7,0.3c2.1,0.5,4.5-0.3,5.9-1.9c0.1-0.1,0.2-0.1,0.3,0
						s0.1,0.2,0.1,0.3c-0.4,0.6-0.7,1.3-0.8,2.1l6.5-3.4c0.1-0.1,0.2,0,0.3,0.1s0.1,0.2,0,0.3s-0.1,0.3-0.1,0.4
						c0.1,0.2,0.3,0.4,0.5,0.5c0.5,0.1,0.9-0.2,1.3-0.5l0.1-0.1c0.4-0.3,0.9-0.7,1.5-0.7c0.4,0,0.7,0.1,1.1,0.2
						c3.3,1.1,6.8,1.5,10.2,1.1c0.5-0.1,1.1-0.1,1.6-0.2c2.1-0.3,4.2-0.6,6.2,0.1c0.1,0,0.2,0.2,0.2,0.3s-0.2,0.2-0.3,0.2
						c-1.9-0.7-4-0.4-6-0.1c-0.5,0.1-1.1,0.1-1.6,0.2c-3.5,0.4-7.1,0-10.4-1.2c-0.3-0.1-0.6-0.2-0.9-0.2c-0.5,0-0.9,0.3-1.3,0.6
						l-0.1,0.1c-0.5,0.4-1.1,0.7-1.7,0.6c-0.4-0.1-0.8-0.4-0.9-0.8c0-0.1,0-0.1,0-0.2l-6.4,3.4C230.9,207.6,230.9,207.6,230.9,207.6
						z"/>
					<path class="st17" d="M271.2,206.9c-0.1,0-0.1,0-0.2,0s-0.1-0.1-0.1-0.2v-1.5c0-0.1,0.1-0.3,0.2-0.3l0,0c0.1,0,0.2,0.1,0.3,0.2
						v1.2c2-0.6,3.9-1.8,5.4-3.3c0,0,0.1-0.1,0.2-0.1s0.1,0,0.2,0.1c0.3,0.3,0.4,0.7,0.4,1.1c0.1,0.4,0.1,0.7,0.4,0.8
						c0.2,0.1,0.4,0.1,0.6,0c1.4-0.2,2.8-0.6,4.1-1.2c1.2-0.5,2.8-1.3,3.9-0.3c0.1,0.1,0.1,0.1,0.2,0.2c0.1,0.1,0.2,0.2,0.3,0.3
						c0.1,0.1,0.3,0.1,0.5,0.1c0.1,0,0.2,0,0.3,0c0.4,0,0.7,0.2,1,0.4c0.2,0.1,0.3,0.2,0.5,0.2c0.4,0.2,0.9,0.1,1.1-0.2
						c0.1-0.1,0.2-0.2,0.3-0.1c0.1,0.1,0.2,0.2,0.1,0.3c-0.3,0.6-1.1,0.7-1.7,0.5c-0.2-0.1-0.4-0.2-0.6-0.3
						c-0.3-0.1-0.6-0.3-0.9-0.3c-0.1,0-0.2,0-0.3,0c-0.2,0-0.4,0-0.7-0.1c-0.2-0.1-0.4-0.2-0.5-0.4c-0.1-0.1-0.1-0.1-0.2-0.2
						c-0.9-0.7-2.2-0.1-3.3,0.4c-1.4,0.6-2.8,1-4.3,1.2c-0.3,0-0.6,0.1-0.9-0.1c-0.4-0.2-0.5-0.7-0.6-1.1c0-0.2-0.1-0.4-0.2-0.6
						C275.4,205.2,273.4,206.3,271.2,206.9C271.3,206.9,271.3,206.9,271.2,206.9z"/>
					<path class="st17" d="M303.9,206.2c-0.1,0-0.2,0-0.3,0c-0.3-0.1-0.6-0.3-0.7-0.6c-0.1-0.2-0.1-0.5,0-0.7
						c0.1-0.1,0.2-0.2,0.3-0.1c0.1,0.1,0.2,0.2,0.1,0.3c0,0.1,0,0.2,0,0.3c0.1,0.1,0.2,0.3,0.4,0.3c0.3,0.1,0.7-0.1,1-0.3
						c1.2-0.7,2.3-1.5,3.3-2.6c0.1-0.1,0.2-0.1,0.3-0.1c0.5,0.2,0.5,0.7,0.6,1.2c0,0.2,0.1,0.5,0.2,0.7s0.3,0.3,0.5,0.4
						c0.6,0.2,1.4-0.1,2-0.4l3.6-1.9c0.3-0.1,0.7-0.4,1.1-0.3c0.3,0.1,0.6,0.3,0.8,0.5c0.1,0.1,0.1,0.1,0.2,0.2
						c1.2,1.1,3.1,0.5,4.8-0.1l0.3-0.1c3.1-1,6.6-1,9.7,0c0.1,0,0.2,0.2,0.2,0.3s-0.2,0.2-0.3,0.2c-3-1-6.4-0.9-9.4,0l-0.3,0.1
						c-1.7,0.6-3.9,1.3-5.3,0c-0.1-0.1-0.1-0.1-0.2-0.2c-0.2-0.2-0.3-0.3-0.5-0.4c-0.2,0-0.5,0.1-0.7,0.2L312,205
						c-0.3,0.2-1.5,0.8-2.4,0.5c-0.3-0.1-0.6-0.3-0.8-0.6c-0.1-0.3-0.2-0.5-0.2-0.8s-0.1-0.5-0.2-0.7c-0.9,1-2,1.9-3.3,2.5
						C304.6,206.1,304.3,206.2,303.9,206.2z"/>
					<path class="st17" d="M250.7,218.7h-0.1c-0.1,0-0.2-0.2-0.1-0.3c0.2-1.4,0.2-2.9,0-4.4c-0.6,0.6-1.4,1.2-2.3,1.6
						c-1,0.4-2.4,0.2-3.1-0.8c-0.1-0.1-0.1-0.2-0.2-0.3c-0.3-0.4-0.5-0.7-0.7-0.6c-0.1,0-0.2,0.1-0.3,0.3l-2.9,3.4
						c-0.1,0.1-0.2,0.1-0.3,0.1c-0.1-0.1-0.2-0.2-0.1-0.3l0.6-1.9c-2,0-4.1-0.1-6.1-0.4c-0.1,0-0.2-0.1-0.2-0.2l-0.3-0.9
						c-1,0.8-2.1,1.7-3.4,2c-1.3,0.3-3,0.1-3.9-1.1c-0.8,0.7-2,1-3,0.6c-0.1,0-0.2-0.2-0.2-0.3c0.1-0.9,1-1.7,1.9-1.7
						c0.2,0,0.3,0.1,0.3,0.2c0,0.1-0.1,0.3-0.2,0.3c-0.6,0-1.2,0.5-1.4,1.1c0.9,0.2,1.9-0.1,2.5-0.8c0.1-0.1,0.1-0.1,0.2-0.1
						c0.1,0,0.2,0.1,0.2,0.1c0.6,1.2,2.3,1.5,3.5,1.2c1.4-0.4,2.5-1.3,3.5-2.2c0.1-0.1,0.2-0.1,0.2-0.1c0.1,0,0.1,0.1,0.2,0.2
						l0.4,1.1c2.1,0.3,4.1,0.4,6.2,0.3c0.1,0,0.2,0,0.2,0.1s0.1,0.1,0,0.2l-0.3,1.1l2.2-2.5c0.1-0.1,0.3-0.3,0.5-0.4
						c0.6-0.2,1,0.4,1.3,0.8c0.1,0.1,0.1,0.2,0.2,0.2c0.6,0.8,1.7,0.9,2.6,0.6c1-0.3,1.7-1.1,2.4-1.8c0.1-0.1,0.2-0.1,0.3-0.1
						s0.2,0.1,0.2,0.2c0.2,1.4,0.3,2.8,0.2,4.2l2.2-2.4c0.5-0.5,1.1-1.2,1.9-1.4c0.9-0.3,1.8,0.1,2.7,0.4c0.9,0.3,1.7,0.6,2.5,0.3
						c0.1,0,0.3,0,0.3,0.1s0,0.3-0.2,0.3c-0.9,0.3-1.9,0-2.8-0.3c-0.8-0.3-1.7-0.6-2.4-0.4c-0.7,0.2-1.2,0.8-1.6,1.3l-2.7,3
						C250.8,218.7,250.7,218.7,250.7,218.7z"/>
					<path class="st17" d="M279.1,216.3c-0.1,0-0.2,0-0.3,0c-0.7-0.2-0.9-0.8-1.1-1.4c-0.1-0.4-0.3-0.8-0.5-1c-1.6,1.3-3.7,2-5.7,2
						c-0.1,0-0.2-0.1-0.2-0.3c0-0.1,0.1-0.2,0.3-0.2l0,0l0,0c2,0,4-0.7,5.5-2c0.1-0.1,0.2-0.1,0.3,0c0.5,0.3,0.7,0.9,0.8,1.4
						c0.2,0.6,0.4,1,0.7,1.1c0.2,0.1,0.5,0,0.7-0.1c0.9-0.3,1.8-0.8,2.6-1.4c0.2-0.2,0.5-0.4,0.8-0.4c0.5-0.1,1,0.1,1.4,0.3
						c0.1,0,0.2,0.1,0.2,0.1c1.4,0.6,3,0.3,4.6-0.1c1.5-0.3,3-0.6,4.5-0.2c0.1,0,0.2,0.2,0.2,0.3s-0.2,0.2-0.3,0.2
						c-1.4-0.4-2.8-0.1-4.3,0.2c-1.7,0.4-3.4,0.7-5,0c-0.1,0-0.2-0.1-0.3-0.1c-0.4-0.2-0.7-0.3-1-0.3c-0.2,0-0.4,0.2-0.5,0.3
						c-0.9,0.7-1.8,1.1-2.8,1.5C279.6,216.2,279.4,216.3,279.1,216.3z"/>
					<path class="st17" d="M222.5,237.6c-0.4,0-0.8-0.1-1.1-0.2c-0.4-0.2-0.7-0.4-0.8-0.7c-0.5-1,0.4-2,1.5-2.6
						c0.1-0.1,0.3,0,0.3,0.1c0.1,0.1,0,0.3-0.1,0.3c-0.7,0.4-1.7,1.2-1.3,1.9c0.1,0.2,0.4,0.4,0.6,0.5c1.1,0.4,2.4,0.1,4-1.1
						c1.1-0.8,2.2-1.7,3.1-2.7c0-0.1,0.1-0.1,0.2-0.1c0.1,0,0.1,0,0.2,0.1c0.3,0.4,0.3,0.9,0.3,1.4c0,0.4,0,0.8,0.2,1
						s0.6,0.3,1.1,0.2c1.5-0.3,2.9-1.1,4.2-1.9c0.6-0.3,1.1-0.7,1.7-1c0.2-0.1,0.4-0.2,0.6-0.2l0,0c0.6,0,0.8,0.6,1,1.1
						c0.1,0.3,0.2,0.7,0.4,0.8c0.3,0.2,0.7,0.1,1.2-0.1c0.3-0.1,0.7-0.3,1.1-0.3c0.6,0,1.1,0.2,1.6,0.5c0.1,0.1,0.2,0.1,0.3,0.2
						c0.5,0.2,1.1,0.4,1.5,0c0.1-0.1,0.3-0.1,0.4,0c0.1,0.1,0.1,0.3,0,0.4c-0.5,0.6-1.4,0.4-2.1,0.1c-0.1-0.1-0.2-0.1-0.3-0.2
						c-0.4-0.2-0.9-0.5-1.3-0.5c-0.3,0-0.6,0.1-0.9,0.3c-0.6,0.2-1.2,0.5-1.7,0c-0.3-0.3-0.5-0.7-0.6-1.1c-0.2-0.5-0.3-0.7-0.5-0.7
						l0,0c-0.1,0-0.2,0.1-0.3,0.1c-0.6,0.3-1.1,0.6-1.7,1c-1.4,0.8-2.8,1.6-4.4,1.9c-0.7,0.1-1.2,0-1.5-0.3
						c-0.4-0.4-0.3-0.9-0.3-1.4c0-0.3,0-0.5,0-0.8c-0.9,0.9-1.9,1.8-2.9,2.5C224.6,237.1,223.4,237.6,222.5,237.6z"/>
					<path class="st17" d="M255.6,237.7c-0.4,0-0.7-0.1-1.1-0.2c-0.7-0.3-1-1.2-0.9-1.8c0.1-0.5,0.4-1,0.8-1.1c0.1,0,0.3,0,0.3,0.2
						c0,0.1,0,0.3-0.2,0.3c-0.4,0.1-0.5,0.4-0.5,0.6c0,0.5,0.2,1.1,0.7,1.3c0.8,0.4,1.9,0.1,2.8-0.3l5.3-2c0.2-0.1,0.4-0.2,0.7-0.1
						c0.3,0.1,0.5,0.4,0.6,0.7c0.1,0.2,0.1,0.3,0.2,0.4c0.2,0.2,0.6,0.1,1-0.2l4.3-2.5c0.2-0.1,0.5-0.3,0.9-0.3
						c0.7,0.1,0.8,0.8,0.9,1.3c0,0.2,0.1,0.3,0.1,0.5c0.3,0.9,1.5,1.3,2.4,1.1s1.7-0.8,2.5-1.4l0.2-0.2c0.5-0.3,1-0.7,1.6-0.7
						c0.4,0,0.8,0.2,1.2,0.4h0.1c1.9,0.9,3.9,1.4,6,1.5c-0.1-0.3-0.2-0.6-0.2-1c0.1-0.7,0.4-1.3,0.9-1.7c1-0.7,2.3-0.7,3.2-0.5
						c1.1,0.2,2.2,0.6,3.1,1.3c0.1,0.1,0.2,0.1,0.3,0.2c0.3,0.2,0.7,0.5,1,0.6c1.1,0.4,2.2,0,3.4-0.5c0.3-0.1,0.6-0.2,0.9-0.3
						c2.8-0.9,5.9-0.5,8.7-0.2l10.7,1.4c0.1,0,0.2,0.1,0.2,0.3c0,0.1-0.1,0.2-0.3,0.2l-10.7-1.4c-2.7-0.4-5.7-0.8-8.4,0.1
						c-0.3,0.1-0.6,0.2-0.9,0.3c-1.2,0.5-2.5,0.9-3.7,0.5c-0.4-0.2-0.8-0.4-1.1-0.6c-0.1-0.1-0.2-0.1-0.3-0.2
						c-0.9-0.6-1.9-1-2.9-1.2c-0.8-0.2-2-0.2-2.8,0.4c-0.4,0.3-0.7,0.8-0.7,1.3c0,0.4,0.1,0.8,0.3,1c0.1,0.1,0.1,0.2,0,0.3
						c0,0.1-0.1,0.2-0.2,0.2l0,0c-2.3,0-4.6-0.5-6.7-1.5h-0.1c-0.3-0.2-0.7-0.3-1-0.3l0,0c-0.5,0-0.9,0.3-1.3,0.6l-0.2,0.2
						c-0.8,0.6-1.7,1.2-2.7,1.4c-1.1,0.2-2.6-0.2-3-1.4c-0.1-0.2-0.1-0.3-0.1-0.5c-0.1-0.6-0.2-0.9-0.5-0.9c-0.2,0-0.4,0.1-0.6,0.2
						l-4.3,2.5c-0.3,0.2-1,0.6-1.6,0.2c-0.2-0.2-0.3-0.4-0.4-0.6c-0.1-0.2-0.2-0.4-0.3-0.4c-0.1,0-0.2,0-0.4,0.1l-5.3,2
						C257,237.4,256.3,237.7,255.6,237.7z"/>
					<path class="st17" d="M329.5,235.8c-0.2,0-0.5,0-0.7-0.2c-0.3-0.2-0.4-0.5-0.4-0.8s0.1-0.5,0.4-0.6c0.1-0.1,0.3,0,0.3,0.1
						c0.1,0.1,0,0.3-0.1,0.3c0,0-0.1,0.1-0.1,0.2c0,0.1,0.1,0.3,0.2,0.4c0.3,0.2,0.6,0.1,1,0c1.9-0.4,3.8-0.8,5.6-1.4
						c0.9-0.3,2-0.3,2.3,0.6c0,0.1,0.1,0.2,0.1,0.3s0,0.2,0.1,0.3s0.3,0.1,0.6,0.1c2.7-0.1,5.4-0.5,7.9-1.4c0.1,0,0.3,0,0.3,0.2
						c0,0.1,0,0.3-0.2,0.3c-2.6,0.9-5.3,1.3-8.1,1.4c-0.3,0-0.7,0-1-0.3c-0.1-0.2-0.2-0.4-0.2-0.5s0-0.2,0-0.2
						c-0.2-0.7-1.5-0.3-1.7-0.2c-1.8,0.6-3.8,1-5.7,1.4C330,235.8,329.8,235.8,329.5,235.8z"/>
					<path class="st17" d="M213.6,369c-0.4,0-0.7-0.1-1.1-0.2c-0.7-0.3-1-1.2-0.9-1.8c0.1-0.5,0.4-1,0.8-1.1c0.1,0,0.3,0,0.3,0.2
						c0,0.1,0,0.3-0.2,0.3c-0.4,0.1-0.5,0.4-0.5,0.6c0,0.5,0.2,1.1,0.7,1.3c0.8,0.4,1.9,0.1,2.8-0.3l5.3-2c0.2-0.1,0.4-0.2,0.7-0.1
						s0.5,0.4,0.6,0.7c0.1,0.2,0.1,0.3,0.2,0.4c0.2,0.2,0.6,0.1,1-0.2l4.3-2.5c0.2-0.1,0.5-0.3,0.9-0.3c0.7,0.1,0.8,0.8,0.9,1.3
						c0,0.2,0.1,0.3,0.1,0.5c0.3,0.9,1.5,1.3,2.4,1.1c0.9-0.2,1.7-0.8,2.5-1.4l0.2-0.2c0.5-0.3,1-0.7,1.6-0.7c0.4,0,0.8,0.2,1.2,0.4
						h0.1c1.9,0.9,3.9,1.4,6,1.5c-0.1-0.3-0.2-0.6-0.2-1c0.1-0.7,0.4-1.3,0.9-1.7c1-0.7,2.3-0.7,3.2-0.5c1.1,0.2,2.2,0.6,3.1,1.3
						c0.1,0.1,0.2,0.1,0.3,0.2c0.3,0.2,0.7,0.5,1,0.6c1.1,0.4,2.2,0,3.4-0.5c0.3-0.1,0.6-0.2,0.9-0.3c2.8-0.9,5.9-0.5,8.7-0.2
						l10.7,1.4c0.1,0,0.2,0.1,0.2,0.3c0,0.1-0.1,0.2-0.3,0.2L265,365c-2.7-0.4-5.7-0.8-8.4,0.1c-0.3,0.1-0.6,0.2-0.9,0.3
						c-1.2,0.5-2.5,0.9-3.7,0.5c-0.4-0.2-0.8-0.4-1.1-0.7c-0.1-0.1-0.2-0.1-0.3-0.2c-0.9-0.6-1.9-1-2.9-1.2c-0.8-0.2-2-0.2-2.8,0.4
						c-0.4,0.3-0.7,0.8-0.7,1.3c0,0.4,0.1,0.8,0.3,1c0.1,0.1,0.1,0.2,0,0.3c0,0.1-0.1,0.2-0.2,0.2l0,0c-2.3,0-4.6-0.5-6.7-1.5h-0.1
						c-0.3-0.2-0.7-0.3-1-0.3l0,0c-0.5,0-0.9,0.3-1.3,0.6L235,366c-0.8,0.6-1.7,1.2-2.7,1.4c-1.1,0.2-2.6-0.2-3-1.4
						c-0.1-0.2-0.1-0.3-0.1-0.5c-0.1-0.6-0.2-0.9-0.5-0.9c-0.2,0-0.4,0.1-0.6,0.2l-4.3,2.5c-0.3,0.2-1,0.6-1.6,0.2
						c-0.2-0.2-0.3-0.4-0.4-0.6c-0.1-0.2-0.2-0.4-0.3-0.4s-0.2,0-0.4,0.1l-5.3,2C215.1,368.8,214.3,369,213.6,369z"/>
					<path class="st17" d="M287.6,367.1c-0.2,0-0.5,0-0.7-0.2c-0.3-0.2-0.4-0.5-0.4-0.8s0.1-0.5,0.4-0.6c0.1-0.1,0.3,0,0.3,0.1
						c0.1,0.1,0,0.3-0.1,0.3c0,0-0.1,0.1-0.1,0.2s0.1,0.3,0.2,0.4c0.3,0.2,0.6,0.1,1,0c1.9-0.4,3.8-0.8,5.6-1.4
						c0.9-0.3,2-0.3,2.3,0.6c0,0.1,0.1,0.2,0.1,0.3c0,0.1,0,0.2,0.1,0.3c0.1,0.1,0.3,0.1,0.6,0.1c2.7-0.1,5.4-0.5,7.9-1.4
						c0.1,0,0.3,0,0.3,0.2c0,0.1,0,0.3-0.2,0.3c-2.6,0.9-5.3,1.3-8.1,1.4c-0.4,0-0.7,0-1-0.3c-0.1-0.2-0.2-0.4-0.2-0.5s0-0.2,0-0.2
						c-0.2-0.7-1.5-0.3-1.7-0.2c-1.9,0.6-3.8,1-5.7,1.4C288.1,367.1,287.9,367.1,287.6,367.1z"/>
					<path class="st17" d="M268.5,247.4c-1,0-2-0.2-2.9-0.9c-0.4-0.3-0.7-0.6-0.9-1.1c-0.3,0.2-0.6,0.4-0.9,0.5
						c-1.6,0.5-3.3-0.2-4.4-0.9c-0.2-0.1-0.4-0.2-0.5-0.2c-0.2,0-0.4,0.2-0.6,0.4l-0.7,0.7c-0.5,0.5-1.3,0.7-2,0.6
						c-0.7-0.2-1.3-0.7-1.6-1.4l-0.3-0.8c-3.1,1.1-6.5,1.4-9.7,0.8c-1.2,0.7-2.5,1.1-3.8,1.3c-0.1,0-0.1,0-0.2-0.1
						c-0.1-0.1-0.1-0.1-0.1-0.2c0.1-0.7-0.1-1.3-0.4-1.9c-1.3,0.6-2.8,0.7-4.2,0.4l-0.3-0.1c-0.3-0.1-0.6-0.1-0.9-0.1
						c-0.5,0-0.9,0.2-1.3,0.5l-0.5,0.3c-0.9,0.5-1.9,1.1-3,1.2c-1.2,0.2-2.6-0.2-3.3-1.3c-0.7,0.4-1.4,0.8-2.2,0.7
						c-0.5-0.1-1-0.6-1.2-1.1c-0.1-0.4,0-0.8,0.3-1.1c0.1-0.1,0.3-0.1,0.4,0c0.1,0.1,0.1,0.3,0,0.4c-0.2,0.2-0.2,0.4-0.2,0.6
						c0.1,0.4,0.4,0.7,0.8,0.8c0.7,0.1,1.4-0.3,2.1-0.8c0.1,0,0.1-0.1,0.2,0c0.1,0,0.1,0.1,0.2,0.1c0.4,1,1.8,1.4,2.9,1.3
						c1-0.2,1.9-0.7,2.8-1.2l0.5-0.3c0.5-0.3,1-0.5,1.6-0.5c0.4,0,0.7,0.1,1.1,0.1l0.3,0.1c1.4,0.3,2.8,0.1,4-0.5
						c0.1-0.1,0.3,0,0.3,0.1c0.4,0.6,0.6,1.4,0.6,2.1c1.2-0.2,2.4-0.6,3.4-1.2c0.1,0,0.1,0,0.2,0c3.2,0.6,6.7,0.3,9.7-0.9
						c0.1,0,0.3,0,0.3,0.1l0.4,1c0.2,0.6,0.7,0.9,1.2,1.1c0.6,0.1,1.2,0,1.6-0.4l0.7-0.7c0.2-0.2,0.5-0.5,0.9-0.5
						c0.3,0,0.6,0.2,0.8,0.3c1.1,0.7,2.6,1.4,4,0.9c0.3-0.1,0.6-0.3,0.8-0.5c-0.1-0.3-0.2-0.7-0.2-1c0-0.8,0.3-1.5,0.9-2
						c0.1,0,0.1-0.1,0.2-0.1s0.1,0.1,0.2,0.1c0.4,0.6,0.4,1.3,0.2,2c-0.1,0.4-0.4,0.8-0.7,1.1c0.2,0.4,0.5,0.8,0.8,1
						c1.4,1.1,3.3,0.8,4.4,0.5c0.8-0.2,1.5-0.5,2.2-0.8s1.5-0.6,2.3-0.8c1.2-0.3,2.4-0.4,3.7-0.5c1-0.1,2-0.2,3-0.3
						c0.4-0.1,0.8-0.2,1.1-0.3c1.7-0.4,3.4-0.8,4.9,0c0.1,0.1,0.2,0.2,0.1,0.3s-0.2,0.2-0.3,0.1c-1.4-0.7-3-0.3-4.6,0
						c-0.4,0.1-0.8,0.2-1.2,0.3c-1,0.2-2,0.3-3,0.4c-1.2,0.1-2.4,0.2-3.6,0.5c-0.8,0.2-1.5,0.5-2.2,0.8s-1.5,0.6-2.3,0.8
						C269.9,247.3,269.2,247.4,268.5,247.4z M265.3,242.6c-0.3,0.3-0.5,0.8-0.5,1.4c0,0.2,0,0.4,0.1,0.6c0.2-0.2,0.3-0.4,0.4-0.7
						C265.5,243.4,265.5,243,265.3,242.6z"/>
					<path class="st17" d="M305.4,246.5c-0.3,0-0.6,0-0.9-0.1c-0.1,0-0.1,0-0.2-0.1c0-0.1-0.1-0.1,0-0.2c0.1-0.4,0.1-0.9-0.1-1.3
						c-2.6,1.1-5.6,1.4-8.4,0.8c-0.1,0-0.2-0.1-0.2-0.2c0-0.1,0-0.2,0-0.2l0.8-1.1c0.1-0.1,0.2-0.1,0.3-0.1c0.1,0.1,0.1,0.2,0.1,0.3
						l-0.5,0.8c2.7,0.5,5.5,0.1,7.9-0.9c0.1,0,0.1,0,0.2,0s0.1,0.1,0.1,0.1c0.2,0.5,0.3,1.1,0.2,1.6c2.2,0.2,4.3-0.9,6.4-2
						c0.6-0.3,1.2-0.6,1.8-0.9c0.3-0.2,0.7-0.3,1.1-0.2s0.6,0.5,0.8,0.8c0,0.1,0.1,0.2,0.2,0.2c0.8,1.2,2.6,1.2,4,0.9
						c0.5-0.1,0.9-0.1,1.3-0.1c0.3,0.1,0.6,0.2,0.9,0.4c0.1,0.1,0.2,0.1,0.3,0.2c1.7,0.8,3.8,0.5,6.6-0.8c1.3-0.6,2.9-1.3,4.1-0.4
						c0.1,0.1,0.1,0.2,0.1,0.3c-0.1,0.1-0.2,0.1-0.3,0.1c-1-0.7-2.3-0.1-3.6,0.5c-2.9,1.4-5.2,1.7-7,0.8c-0.1-0.1-0.2-0.1-0.3-0.2
						c-0.3-0.1-0.5-0.3-0.8-0.3c-0.3-0.1-0.7,0-1.1,0.1c-2.3,0.4-3.8,0-4.5-1.1c-0.1-0.1-0.1-0.2-0.2-0.3c-0.2-0.3-0.3-0.5-0.5-0.6
						s-0.5,0-0.7,0.2c-0.6,0.3-1.2,0.6-1.8,0.9C309.5,245.5,307.5,246.5,305.4,246.5z"/>
					<path class="st17" d="M221.5,266.8c-0.1,0-0.2,0-0.2,0c-0.7-0.1-1.1-0.8-1.1-1.4s0.2-1.2,0.4-1.7c0.1-0.1,0.2-0.2,0.3-0.1
						s0.2,0.2,0.1,0.3c-0.2,0.4-0.4,0.9-0.4,1.4c0,0.4,0.3,0.9,0.7,1c0.2,0,0.5,0,0.8-0.1c1-0.4,2-1.1,2.7-1.9
						c0.1-0.1,0.2-0.1,0.3-0.1c0.4,0.1,0.5,0.6,0.5,0.9c0,0.2,0.1,0.4,0.2,0.5c0.1,0.2,0.4,0.2,0.9,0c1.5-0.5,3.1-1.1,4.5-1.8
						c0.2-0.1,0.9-0.4,1.5-0.2c0.2,0.1,0.4,0.2,0.5,0.4c0.1,0.2,0.1,0.4,0.1,0.5c0,0.2,0,0.3,0.1,0.4s0.3,0.1,0.7,0l4-1.1
						c0.7-0.2,1.7-0.5,2.5-0.2c0.5,0.2,1,0.6,1.2,1.1c0.1,0.3,0.2,0.6,0.1,0.9c1.3,0.5,2.8,0.3,4-0.4c0.1-0.1,0.3,0,0.3,0.1
						c0.1,0.1,0,0.3-0.1,0.3c-1.3,0.9-3.2,1-4.6,0.4c-0.1,0-0.1-0.1-0.1-0.1c0-0.1,0-0.1,0-0.2c0.1-0.3,0.1-0.5,0-0.7
						c-0.2-0.4-0.5-0.7-0.9-0.8c-0.7-0.2-1.6,0-2.2,0.2l-4,1.1c-0.2,0.1-0.8,0.2-1.2-0.2c-0.2-0.2-0.2-0.5-0.2-0.7
						c0-0.1,0-0.2,0-0.3c0-0.1-0.1-0.1-0.2-0.2c-0.2-0.1-0.7,0-1.1,0.2c-1.5,0.7-3,1.3-4.6,1.8c-0.2,0.1-1,0.3-1.4-0.2
						c-0.2-0.2-0.2-0.5-0.3-0.8c0-0.2-0.1-0.3-0.1-0.4c-0.8,0.8-1.7,1.5-2.7,1.9C222.1,266.7,221.8,266.8,221.5,266.8z"/>
					<path class="st17" d="M257.2,268.8c-0.8,0-1.1-0.4-1.2-0.7c-0.2-0.6,0-1.5,0.5-2.2c-0.7,0.3-1.5,0.4-2.3,0.4
						c-1.1,0-1.9-0.4-2.3-1.1c-0.3-0.5-0.2-1.1,0.2-1.6c0.3-0.4,0.7-0.5,1.1-0.4c0.1,0,0.2,0.2,0.2,0.3c0,0.1-0.2,0.2-0.3,0.2
						c-0.3-0.1-0.5,0.1-0.6,0.3c-0.2,0.3-0.3,0.7-0.1,1c0.4,0.7,1.5,0.8,1.9,0.8c0,0,0,0,0.1,0c1,0,2.1-0.3,3-0.8
						c0.3-0.3,0.6-0.6,1-0.7c0.1-0.1,0.2,0,0.3,0.1c0.1,0.1,0.1,0.2,0,0.3c-0.3,0.3-0.6,0.5-1,0.7c-0.8,0.8-1.2,2-1,2.6
						c0.1,0.3,0.5,0.5,1,0.4c2.1-0.7,3.3-1.8,5-3.1c0.3-0.3,0.7-0.6,1.1-0.9c0.1-0.1,0.2-0.1,0.3,0c0.1,0.1,0.1,0.2,0.1,0.3
						l-0.5,1.6c2.4-0.2,4.8-1.1,6.7-2.6l0,0c0.1-0.1,0.3-0.1,0.3,0c0.1,0.1,0.1,0.3,0,0.3l0,0c-0.7,0.5-1.2,1.3-1.4,2.1l6.3-1.5
						c0.2-0.1,0.6-0.1,0.9,0.1c0.2,0.2,0.3,0.5,0.4,0.7c0,0.1,0,0.1,0,0.2c0.3,1.1,2,1.2,2.8,1.1c2.1-0.1,2.7-0.3,3.7-0.7
						c0.6-0.2,1.3-0.5,2.5-0.8c0.3,0,0.5,0,0.6,0.2c0.2,0.3,0.1,0.7-0.1,1.1c-0.1,0.3-0.2,0.7-0.1,0.8c0,0,0.3,0.2,1.3-0.1l5.4-3.2
						c0.5-0.3,1.2-0.7,1.9-0.7c0.9,0.1,1.7,0.8,2.2,1.4l0.1,0.1c0.5,0.6,1,1.2,1.6,1.4c0.4,0.1,0.9,0,1.2-0.3
						c0.1-0.1,0.3-0.3,0.3-0.6c0-0.1,0.1-0.2,0.2-0.3c0.1,0,0.2,0,0.3,0.1c0.4,0.7,1.1,1.2,1.8,1.5c0.5-0.1,0.7-0.6,1-1.3
						c0.3-0.7,0.6-1.4,1.3-1.6c0.5-0.2,1,0,1.4,0.1c6.5,1.7,13.6,0.9,19.8,0.3c0.2,0,0.3,0.1,0.3,0.2s-0.1,0.3-0.2,0.3
						c-6.3,0.7-13.4,1.4-20-0.3c-0.4-0.1-0.8-0.2-1.1-0.1c-0.5,0.2-0.8,0.7-1,1.4c-0.3,0.7-0.7,1.5-1.5,1.6h-0.1
						c-0.7-0.3-1.3-0.7-1.7-1.3c-0.1,0.2-0.2,0.3-0.3,0.4c-0.4,0.4-1.1,0.5-1.6,0.3c-0.8-0.3-1.4-1-1.9-1.6l-0.1-0.1
						c-0.5-0.6-1.1-1.2-1.8-1.3c-0.6,0-1.2,0.3-1.6,0.6l-5.4,3.2c-1,0.3-1.5,0.3-1.8,0s-0.2-0.9,0-1.3c0.1-0.2,0.2-0.6,0.1-0.7
						c0,0,0,0-0.1,0l0,0c-1.1,0.3-1.8,0.6-2.4,0.8c-1,0.4-1.7,0.7-3.9,0.8c-1.8,0.1-3-0.5-3.3-1.5c0-0.1,0-0.1,0-0.2
						c0-0.2-0.1-0.3-0.2-0.4s-0.3,0-0.5,0l-6.7,1.5c-0.1,0-0.2,0-0.2-0.1c-0.1-0.1-0.1-0.1-0.1-0.2c0.1-0.5,0.2-1,0.5-1.4
						c-1.8,1-3.8,1.6-5.9,1.7c-0.1,0-0.2,0-0.2-0.1s-0.1-0.2,0-0.2l0.4-1.2c-0.2,0.1-0.3,0.2-0.5,0.4c-1.7,1.3-3,2.4-5.1,3.1
						C257.5,268.8,257.3,268.8,257.2,268.8z"/>
				</g>
			</g>
		</g>
	</g>
</g>
</svg>
