<svg id="Layer_1" data-name="Layer 1" xmlns="http://www.w3.org/2000/svg" viewBox="0 0 391.7 379.33"><defs><style>.cls-1{fill:#d1e3ff;}.cls-2{fill:#e3f0f0;}.cls-3{fill:#f5fcff;}.cls-4{fill:#e3eeff;}.cls-5{fill:#f3f8ff;}.cls-6{fill:#b55b52;}.cls-7{fill:#14365b;}.cls-8{fill:#ef7600;}.cls-9{fill:#fd9a11;}.cls-10{fill:#ef826c;}.cls-11{fill:#9e4541;}.cls-12{fill:#ef8200;}.cls-13{fill:#df7c00;}.cls-14{fill:#a02724;}.cls-15{fill:#f93;}.cls-16{fill:#fdb94e;}.cls-17{fill:#fd9a1e;}</style></defs><title>notes_light</title><g id="Objects"><rect class="cls-1" x="234.6" y="25.43" width="136.3" height="158.8"/><rect class="cls-2" x="236.3" y="25.43" width="138.3" height="158.8"/><rect class="cls-1" x="234.6" y="184.23" width="136.3" height="8.9"/><rect class="cls-2" x="261.3" y="184.23" width="130.1" height="8.9"/><rect class="cls-2" x="241.47" y="32.09" width="127.9" height="145.3"/><polygon class="cls-3" points="259.9 177.43 290.3 32.13 330.2 32.13 299.8 177.43 259.9 177.43"/><polygon class="cls-3" points="306.2 177.43 336.7 32.13 354.7 32.13 324.2 177.43 306.2 177.43"/><rect class="cls-1" x="368.63" y="31.22" width="0.7" height="131"/><path class="cls-1" d="M282.9,85.4V142h15s26.9-17.5,33-53.6a6,6,0,0,0-5.9-7H287A4,4,0,0,0,282.9,85.4Z" transform="translate(-52.2 -60.27)"/><path class="cls-1" d="M282.9,232.6V146.5h15s8.6,17.4,17.2,37.4a35,35,0,0,1-32.2,48.7Z" transform="translate(-52.2 -60.27)"/><path class="cls-2" d="M297.4,146.5h-14a1.54,1.54,0,0,1-1.5-1.5v-1.6a1.54,1.54,0,0,1,1.5-1.5h14a1.54,1.54,0,0,1,1.5,1.5V145A1.47,1.47,0,0,1,297.4,146.5Z" transform="translate(-52.2 -60.27)"/><path class="cls-1" d="M431,85.4V142H416s-26.9-17.5-33-53.6a6,6,0,0,1,5.9-7h38A4.1,4.1,0,0,1,431,85.4Z" transform="translate(-52.2 -60.27)"/><path class="cls-1" d="M431,232.6V146.5H416s-8.6,17.4-17.2,37.4A35,35,0,0,0,431,232.6Z" transform="translate(-52.2 -60.27)"/><path class="cls-2" d="M416.5,146.5h14A1.54,1.54,0,0,0,432,145v-1.6a1.54,1.54,0,0,0-1.5-1.5h-14a1.54,1.54,0,0,0-1.5,1.5V145A1.42,1.42,0,0,0,416.5,146.5Z" transform="translate(-52.2 -60.27)"/><path class="cls-4" d="M99.7,174.8a32.8,32.8,0,0,1,0-65.6h2v65.7h-2Z" transform="translate(-52.2 -60.27)"/><circle class="cls-1" cx="49.5" cy="81.73" r="32.8"/><circle class="cls-3" cx="49.5" cy="81.73" r="24.8"/><polygon class="cls-4" points="59.8 90.93 47.7 82.43 51.5 63.73 54.8 64.43 51.4 80.93 61.7 88.13 59.8 90.93"/><rect class="cls-1" x="165.1" y="195.03" width="42.9" height="139.1"/><polygon class="cls-5" points="196.6 334.13 208 334.13 208 314.93 184.5 314.93 196.6 334.13"/><rect class="cls-1" y="195.03" width="42.9" height="139.1"/><rect class="cls-2" x="32.9" y="195.03" width="175.1" height="132.5"/><polygon class="cls-2" points="44.3 334.13 32.9 334.13 32.9 314.93 56.4 314.93 44.3 334.13"/><rect class="cls-1" x="41.8" y="244.43" width="157.4" height="33.2"/><rect class="cls-1" x="41.8" y="284.63" width="157.4" height="33.2"/><path class="cls-3" d="M227.8,308.3H117.6a6.44,6.44,0,0,1-6.4-6.4h123A6.44,6.44,0,0,1,227.8,308.3Z" transform="translate(-52.2 -60.27)"/><rect class="cls-1" x="41.8" y="204.23" width="157.4" height="33.2"/><path class="cls-3" d="M227.8,268H117.6a6.44,6.44,0,0,1-6.4-6.4h123A6.44,6.44,0,0,1,227.8,268Z" transform="translate(-52.2 -60.27)"/><path class="cls-3" d="M227.8,348.5H117.6a6.44,6.44,0,0,1-6.4-6.4h123A6.44,6.44,0,0,1,227.8,348.5Z" transform="translate(-52.2 -60.27)"/><polygon class="cls-1" points="361.2 334.13 274.5 334.13 267.4 234.43 354.1 234.43 361.2 334.13"/><polygon class="cls-1" points="371 334.13 277.2 334.13 270.1 234.43 364 234.43 371 334.13"/><polygon class="cls-3" points="284.5 326.33 278.5 242.33 356.7 242.33 362.6 326.33 284.5 326.33"/><path class="cls-2" d="M397.2,344.6A22.38,22.38,0,0,1,374.6,369a26.58,26.58,0,0,1-26.1-24.4,22.38,22.38,0,0,1,22.6-24.4C384.5,320.2,396.2,331.1,397.2,344.6Z" transform="translate(-52.2 -60.27)"/><path class="cls-1" d="M168.3,163.2c4.4,3.6,10.4,10.1,16,19.3a50.1,50.1,0,0,1,6.9,21.1c0-9.6-.1-20-.1-29.7-1.1-2.5-3.7-8.3-5.5-12.9-6.1-15.3-8.4-19-13.8-32.2-7.3-17.5-14.8-38.4-12.6-36.7,4.4,3.4,21.1,34.7,22.9,39.2a123.71,123.71,0,0,1,9,37.5c0-9.2-.1-17.6-.1-24.1-.1-21.2-.5-28-.6-30.1-.7-1.1-1.5-2.3-1.9-3-3.9-5.7-5.4-10.5-9.1-19-5.2-12-9.8-33.3-8.4-32.3,5.5,4.5,9.8,14.1,15.5,26.4s4.1,19.3,5.2,29.8c.2,2.1.4,9.8.6,20.6,1.5-11.5,4.3-19,9.3-25.9,6.2-8.4,12.2-14.1,16.7-17.1s-7.6,17.8-13.4,26.8c-5.1,8.1-9.9,15.2-12.5,22.2.1,14.6.2,33,.2,50.2a100.54,100.54,0,0,1,6.4-22.8c3.5-7.8,8.8-19.8,13-23.9,1-1-4.4,22.4-7.9,28.6s-6.1,12.1-8.3,15.6c-.5.8-2.2,4-3.2,5.8,0,21-.1,39.5-.3,45.8h-.9c.1-1.6.1-12.3.1-26.4-2.2-7.7-7.2-16.4-11.3-24.4C175.4,183,163.9,159.6,168.3,163.2Z" transform="translate(-52.2 -60.27)"/><polygon class="cls-1" points="126.3 195.03 152.5 195.03 154.5 169.33 124.3 169.33 126.3 195.03"/><polygon class="cls-1" points="122.3 172.33 156.4 172.33 157.4 163.73 121.4 163.73 122.3 172.33"/><ellipse class="cls-4" cx="197.8" cy="368.03" rx="193.9" ry="11.3"/><polygon class="cls-6" points="122.2 359.63 114.8 359.63 114.1 342.63 121.4 342.63 122.2 359.63"/><polygon class="cls-6" points="166.2 359.63 158.8 359.63 155.1 342.63 162.5 342.63 166.2 359.63"/><path class="cls-7" d="M210.5,419h8.2a.56.56,0,0,1,.6.5l1.4,6.5a1.06,1.06,0,0,1-1.1,1.3c-2.9,0-4.3-.2-7.9-.2-2.2,0-6.8.2-9.9.2s-3.5-3-2.2-3.3c5.6-1.2,7.8-2.9,9.6-4.6A3.26,3.26,0,0,1,210.5,419Z" transform="translate(-52.2 -60.27)"/><path class="cls-8" d="M167.1,419h8a.56.56,0,0,1,.6.5l1.4,6.5a1.06,1.06,0,0,1-1.1,1.3c-2.9,0-7.1-.2-10.7-.2-4.2,0-7.9.2-12.9.2-3,0-3.8-3-2.6-3.3,5.7-1.3,10.4-1.4,15.4-4.4A4.67,4.67,0,0,1,167.1,419Z" transform="translate(-52.2 -60.27)"/><path class="cls-6" d="M161.7,180.4l-9.9-3.9s-11.4,23.2-15,24.4c-4.9,1.6-14.9,6-20.9,6.9a11.21,11.21,0,0,0-1.8,5.1c8.3,2.7,26.1-.9,29.8-3.8C152.4,202.6,161.7,180.4,161.7,180.4Z" transform="translate(-52.2 -60.27)"/><path class="cls-9" d="M164.3,175.2c2.5,6.6-10,25.9-10,25.9l-14.7-8a89.3,89.3,0,0,1,8.5-17.2C153.3,168.2,161.6,168,164.3,175.2Z" transform="translate(-52.2 -60.27)"/><path class="cls-10" d="M164.6,176c-2.9-1.4-6.1-.2-9.3,5.2a61,61,0,0,0-6.1,17l5.1,2.8S165.9,183.2,164.6,176Z" transform="translate(-52.2 -60.27)"/><path class="cls-6" d="M117.1,207.7l-8.3-3.4-2.8,8.9a35.29,35.29,0,0,0,10,0Z" transform="translate(-52.2 -60.27)"/><polygon class="cls-6" points="50.7 143.83 50.8 149.83 53.9 153.03 56.7 144.03 50.7 143.83"/><polygon class="cls-11" points="114.1 342.63 114.5 351.33 121.8 351.33 121.4 342.63 114.1 342.63"/><polygon class="cls-11" points="162.5 342.63 155.1 342.63 157 351.33 164.4 351.33 162.5 342.63"/><path class="cls-9" d="M155.6,170.2s-8.6,22.1-.4,63.3h39.2c.3-6-3.5-35.4,2.3-63.7a118.36,118.36,0,0,0-13.1-1.7,154.94,154.94,0,0,0-16.7,0A80.36,80.36,0,0,0,155.6,170.2Z" transform="translate(-52.2 -60.27)"/><path class="cls-10" d="M188.2,176.8c-.7,4.7.8,15.8,5.3,28.7a185.2,185.2,0,0,1,2.7-32.9v-.1C193.6,172.3,188.8,172.4,188.2,176.8Z" transform="translate(-52.2 -60.27)"/><path class="cls-8" d="M164.4,168.4l2.5-.3a154.9,154.9,0,0,1,16.7,0c.7,0,1.4.1,2.1.1l-.2.6c-.1.3-2.8,6.7-14,6.7-1.5,0-5.9,0-7.3-3A4.52,4.52,0,0,1,164.4,168.4Z" transform="translate(-52.2 -60.27)"/><path class="cls-6" d="M181.4,152.6c-1.1,5.4-1.6,12,2.2,15.6,0,0-2.2,5.4-12.1,5.4-9.1,0-4.5-5.4-4.5-5.4,6-1.4,5.7-8.8,4.6-13Z" transform="translate(-52.2 -60.27)"/><path class="cls-11" d="M180.7,157.5l-7.1-2.9-.9.2a13,13,0,0,0,1.1,3.6,12.69,12.69,0,0,0,7.5,6A17.49,17.49,0,0,1,180.7,157.5Z" transform="translate(-52.2 -60.27)"/><path class="cls-11" d="M191.4,153.6a7,7,0,0,1-4.8,2.3c-2.4.1-3.1-2.2-2-4.2,1-1.8,3.5-4,5.7-3.2S192.9,151.9,191.4,153.6Z" transform="translate(-52.2 -60.27)"/><path class="cls-7" d="M190.2,136.8c3.3,2.1,3.5,12.4-1.4,13.9S184,132.7,190.2,136.8Z" transform="translate(-52.2 -60.27)"/><path class="cls-6" d="M171.4,142c-.8,7.2-1.6,11.4,1.3,15.7,4.5,6.5,13.9,4.7,16.8-2.1,2.6-6.2,3.5-16.9-3-21A9.88,9.88,0,0,0,171.4,142Z" transform="translate(-52.2 -60.27)"/><path class="cls-7" d="M170.2,146.5c1.9,1,4.3-3.7,4.8-8.7,3.3,3.1,22,2.7,19.2-1.8-4.4-6.9-20.3-8.5-22.8-3.9C166.8,132.3,165.8,144.3,170.2,146.5Z" transform="translate(-52.2 -60.27)"/><path class="cls-6" d="M166.8,149.4a6.71,6.71,0,0,0,3.7,3.7c2.2.9,3.6-1,3.3-3.3-.4-2-1.9-5-4.3-4.9A3.08,3.08,0,0,0,166.8,149.4Z" transform="translate(-52.2 -60.27)"/><path class="cls-12" d="M155.2,233.5s-1,54.8-.2,77.1c.8,23.2,8.9,99.3,8.9,99.3h12.4s.5-74.7,1-97.6c.6-24.9,3.6-78.9,3.6-78.9H155.2Z" transform="translate(-52.2 -60.27)"/><path class="cls-9" d="M177.2,406.1c.1,0,0,4.1,0,4.1H162.9l-.6-4.6Z" transform="translate(-52.2 -60.27)"/><path class="cls-13" d="M172.4,248c.2,27.2,1.9,43.7,5.2,57,.4-13,1.2-30.1,2-44.4Z" transform="translate(-52.2 -60.27)"/><path class="cls-12" d="M169.1,233.5s8.3,56,12.9,77c5,23,23.8,99.5,23.8,99.5h13.4s-12.4-74.7-15.3-97.4c-3.1-24.7-9.6-79.1-9.6-79.1Z" transform="translate(-52.2 -60.27)"/><path class="cls-9" d="M219.2,406.5c.1,0,.7,3.8.7,3.8H205.2l-1.3-4.3Z" transform="translate(-52.2 -60.27)"/><path class="cls-13" d="M213.8,402c-.1,0-.1,0-.1-.1-.1-.7-11.3-68.1-13.9-88.5-2.8-22.2-8.6-71.3-8.7-71.8,0-.1,0-.1.1-.1s.1,0,.1.1c.1.5,5.9,49.7,8.7,71.8,2.6,20.4,13.8,87.8,13.9,88.5.1,0,0,.1-.1.1Z" transform="translate(-52.2 -60.27)"/><ellipse class="cls-7" cx="182.54" cy="146.01" rx="1.1" ry="0.7" transform="matrix(0.17, -0.99, 0.99, 0.17, -44.67, 240.69)"/><ellipse class="cls-7" cx="189.17" cy="147.24" rx="1.1" ry="0.7" transform="translate(-40.38 248.24) rotate(-80.18)"/><path class="cls-14" d="M186.3,147a20.33,20.33,0,0,0,1.9,5.5,3.35,3.35,0,0,1-2.9,0Z" transform="translate(-52.2 -60.27)"/><path class="cls-7" d="M183.4,153.8c.1,0,.2,0,.2-.1s0-.2-.1-.2a4.16,4.16,0,0,1-3.4-2.5c0-.1-.1-.1-.2-.1s-.1.1-.1.2S180.6,153.3,183.4,153.8Z" transform="translate(-52.2 -60.27)"/><path class="cls-7" d="M180.3,143.4a.37.37,0,0,0,.3-.1,2.73,2.73,0,0,1,2.4-.8c.2,0,.4-.1.4-.3s-.1-.4-.3-.4a3.41,3.41,0,0,0-3,.9.45.45,0,0,0,0,.5C180.1,143.4,180.2,143.4,180.3,143.4Z" transform="translate(-52.2 -60.27)"/><path class="cls-7" d="M191.8,145.2h.2c.2-.1.3-.3.2-.4a3.26,3.26,0,0,0-2.3-2.2c-.2-.1-.4.1-.4.3s.1.4.3.4h0a2.54,2.54,0,0,1,1.8,1.8A.35.35,0,0,0,191.8,145.2Z" transform="translate(-52.2 -60.27)"/><path class="cls-6" d="M198.8,174.7l-8.8,5.9s12.7,22.5,11.6,26.2c-1.4,4.9-3.5,15.7-6.2,21.1.4,1.2,2.2,3.9,3.2,4.3,7-5.3,14.1-22,13.8-26.7C211.8,195,198.8,174.7,198.8,174.7Z" transform="translate(-52.2 -60.27)"/><path class="cls-9" d="M196.7,169.8c6.9,1,14.9,25,14.9,25L197,203s-6.4-11.4-9.6-19.9C184.1,174.2,189.3,168.7,196.7,169.8Z" transform="translate(-52.2 -60.27)"/><path class="cls-12" d="M208.1,420.3a2,2,0,0,1-1.4-.4,1,1,0,0,1-.4-.9.62.62,0,0,1,.3-.5c.8-.4,3.2,1,3.4,1.2.1,0,.1.1.1.2a.1.1,0,0,1-.1.1A5.41,5.41,0,0,1,208.1,420.3Zm-1.1-1.5h-.2a.35.35,0,0,0-.1.2.85.85,0,0,0,.2.6,3.53,3.53,0,0,0,2.6.1A7.62,7.62,0,0,0,207,418.8Z" transform="translate(-52.2 -60.27)"/><path class="cls-12" d="M210,420h0c-.8-.4-2.3-2-2.2-2.9,0-.1.1-.4.6-.5a.84.84,0,0,1,.7.2c.9.7,1,2.8,1,2.9s0,.3-.1.3Zm-1.5-2.9h0c-.3,0-.3.1-.3.2-.1.5.8,1.7,1.6,2.3-.1-.6-.3-1.9-.9-2.3A.4.4,0,0,0,208.5,417.1Z" transform="translate(-52.2 -60.27)"/><path class="cls-12" d="M164,420.3a2.57,2.57,0,0,1-1.8-.5.83.83,0,0,1-.3-.8.55.55,0,0,1,.3-.5c.9-.5,3.8,1,4.2,1.2.1,0,.1.1.1.2a.1.1,0,0,1-.1.1A9.28,9.28,0,0,1,164,420.3Zm-1.3-1.5a.37.37,0,0,0-.3.1c-.1,0-.1.1-.1.2a1.42,1.42,0,0,0,.2.6c.5.4,1.7.5,3.3.2A8.29,8.29,0,0,0,162.7,418.8Z" transform="translate(-52.2 -60.27)"/><path class="cls-12" d="M166.3,420h0c-1-.4-2.7-2-2.6-2.8,0-.2.2-.4.6-.5a1.93,1.93,0,0,1,1,.3,5,5,0,0,1,1.1,2.8c0,.1,0,.1-.1.2Zm-1.8-2.9h-.1c-.3,0-.3.2-.3.2-.1.5,1.1,1.7,2,2.3a4.3,4.3,0,0,0-1-2.3A.73.73,0,0,0,164.5,417.1Z" transform="translate(-52.2 -60.27)"/><path class="cls-6" d="M195.4,227.9l-7-.5,3.7,7.7s6.1.3,7.1-4.4Z" transform="translate(-52.2 -60.27)"/><polygon class="cls-6" points="130.5 170.63 134.2 177.43 139.9 174.83 136.2 167.13 130.5 170.63"/><polygon class="cls-15" points="86.5 367.83 76.7 367.83 54.5 128.03 64.2 127.13 86.5 367.83"/><polygon class="cls-15" points="106 367.83 96.2 367.83 73.8 126.33 83.5 125.33 106 367.83"/><polygon class="cls-8" points="96.2 367.83 86.5 367.83 64.2 127.13 73.8 126.33 96.2 367.83"/><polygon class="cls-16" points="71.8 109.53 63.1 110.33 54.5 128.03 83.5 125.43 71.8 109.53"/><polygon class="cls-8" points="66.8 102.73 63.1 110.33 71.8 109.53 66.8 102.73"/><path class="cls-8" d="M381.4,153.4,370,152.1h0a120,120,0,0,1-2.2,23.2l-3.9,19.6,11.4,1.3,3.9-19.6a120,120,0,0,0,2.2-23.2Z" transform="translate(-52.2 -60.27)"/><polygon class="cls-17" points="347.3 116.53 172.1 116.53 150.3 367.83 325.6 367.83 347.3 116.53"/><polygon class="cls-8" points="326.7 355.33 151.4 355.33 150.3 367.83 325.6 367.83 326.7 355.33"/><polygon class="cls-3" points="335.9 116.53 160.6 116.53 138.9 367.83 314.2 367.83 335.9 116.53"/><polygon class="cls-8" points="315.3 355.33 140 355.33 138.9 367.83 314.2 367.83 315.3 355.33"/><path class="cls-9" d="M376.1,189.4H222.7a.2.2,0,0,1,0-.4H376.1a.2.2,0,0,1,0,.4Z" transform="translate(-52.2 -60.27)"/><path class="cls-9" d="M375.2,199.5H221.8a.2.2,0,1,1,0-.4H375.2a.2.2,0,1,1,0,.4Z" transform="translate(-52.2 -60.27)"/><path class="cls-9" d="M374.4,209.6H221a.2.2,0,0,1,0-.4H374.4a.2.2,0,1,1,0,.4Z" transform="translate(-52.2 -60.27)"/><path class="cls-9" d="M373.5,219.7H220.1a.2.2,0,1,1,0-.4H373.5a.2.2,0,1,1,0,.4Z" transform="translate(-52.2 -60.27)"/><path class="cls-9" d="M372.6,229.8H219.2a.2.2,0,0,1,0-.4H372.6a.2.2,0,0,1,0,.4Z" transform="translate(-52.2 -60.27)"/><path class="cls-9" d="M371.7,239.8H218.3a.2.2,0,1,1,0-.4H371.7a.22.22,0,0,1,.2.2C371.9,239.7,371.9,239.8,371.7,239.8Z" transform="translate(-52.2 -60.27)"/><path class="cls-9" d="M370.9,249.9H217.5a.2.2,0,0,1,0-.4H370.9a.2.2,0,1,1,0,.4Z" transform="translate(-52.2 -60.27)"/><path class="cls-9" d="M370,260H216.6a.2.2,0,0,1,0-.4H370a.2.2,0,0,1,0,.4Z" transform="translate(-52.2 -60.27)"/><path class="cls-9" d="M369.1,270.1H215.7a.2.2,0,0,1,0-.4H369.1a.2.2,0,0,1,0,.4Z" transform="translate(-52.2 -60.27)"/><path class="cls-9" d="M368.3,280.2H214.8a.2.2,0,0,1,0-.4H368.2a.22.22,0,0,1,.2.2C368.5,280.1,368.4,280.2,368.3,280.2Z" transform="translate(-52.2 -60.27)"/><path class="cls-9" d="M367.4,290.3H214a.2.2,0,0,1,0-.4H367.4a.2.2,0,0,1,0,.4Z" transform="translate(-52.2 -60.27)"/><path class="cls-9" d="M366.5,300.4H213.1a.2.2,0,0,1,0-.4H366.5a.2.2,0,0,1,0,.4Z" transform="translate(-52.2 -60.27)"/><path class="cls-9" d="M365.6,310.5H212.2a.2.2,0,0,1,0-.4H365.6a.22.22,0,0,1,.2.2C365.9,310.4,365.8,310.5,365.6,310.5Z" transform="translate(-52.2 -60.27)"/><path class="cls-9" d="M364.8,320.6H211.4a.2.2,0,0,1,0-.4H364.8a.2.2,0,1,1,0,.4Z" transform="translate(-52.2 -60.27)"/><path class="cls-9" d="M363.9,330.7H210.5a.2.2,0,0,1,0-.4H363.9a.2.2,0,0,1,0,.4Z" transform="translate(-52.2 -60.27)"/><path class="cls-9" d="M363,340.7H209.6a.2.2,0,0,1,0-.4H363a.2.2,0,0,1,0,.4Z" transform="translate(-52.2 -60.27)"/><path class="cls-9" d="M362.2,350.8H208.7a.2.2,0,0,1,0-.4H362.1a.22.22,0,0,1,.2.2C362.4,350.7,362.3,350.8,362.2,350.8Z" transform="translate(-52.2 -60.27)"/><path class="cls-9" d="M361.3,360.9H207.9a.2.2,0,0,1,0-.4H361.3a.2.2,0,0,1,0,.4Z" transform="translate(-52.2 -60.27)"/><path class="cls-9" d="M360.4,371H207a.2.2,0,0,1,0-.4H360.4a.2.2,0,0,1,0,.4Z" transform="translate(-52.2 -60.27)"/><path class="cls-9" d="M359.5,381.1H206.1a.2.2,0,0,1,0-.4H359.5a.22.22,0,0,1,.2.2C359.7,381,359.7,381.1,359.5,381.1Z" transform="translate(-52.2 -60.27)"/><path class="cls-9" d="M358.7,391.2H205.3a.2.2,0,0,1,0-.4H358.7a.2.2,0,1,1,0,.4Z" transform="translate(-52.2 -60.27)"/><path class="cls-9" d="M357.8,401.3H204.4a.2.2,0,0,1,0-.4H357.8a.2.2,0,1,1,0,.4Z" transform="translate(-52.2 -60.27)"/><path class="cls-12" d="M341.4,410.4h0a.1.1,0,0,1-.1-.1L360.9,183a.1.1,0,1,1,.2,0L341.5,410.3A.1.1,0,0,1,341.4,410.4Z" transform="translate(-52.2 -60.27)"/><path class="cls-12" d="M357.2,150.5H345.8a121,121,0,0,1,.4,23.3l-1.7,19.9h11.4l1.7-19.9a120.84,120.84,0,0,0-.4-23.3Z" transform="translate(-52.2 -60.27)"/><path class="cls-8" d="M257.4,197.7h0c-.2,0-.2-.1-.3-.2a2.1,2.1,0,0,0-.7-1.4,4.14,4.14,0,0,0-2.9-.8,21,21,0,0,0-2.4.6,11.07,11.07,0,0,1-2.6.7,6,6,0,0,1-4.5-1.3,4.43,4.43,0,0,1-4.4,1.9,4.37,4.37,0,0,1-2.8-2,1.46,1.46,0,0,0-2-.5c-1.3.7-2.6,1.2-4,1.8h-.2c-.1,0-.1-.1-.1-.2a3.33,3.33,0,0,1,0-1,.91.91,0,0,0-.3-.7.47.47,0,0,0-.6-.1,3.68,3.68,0,0,0-1.5.8l-.2.2c-1,.8-1.9,1.4-2.4,1.3-.2,0-.3-.1-.4-.3a1.31,1.31,0,0,1-.2-1.1,4,4,0,0,1,3.2-3.5c.1,0,.3.1.3.2s-.1.3-.2.3a3.75,3.75,0,0,0-2.8,3.1,2,2,0,0,0,.1.8l.1.1c.4.1,1.5-.7,2.1-1.2l.2-.2a7.11,7.11,0,0,1,1.7-.9,1.09,1.09,0,0,1,1.1.2,1.66,1.66,0,0,1,.5,1.2v.5c1.2-.5,2.4-1,3.6-1.6a2.05,2.05,0,0,1,2.7.7,4.09,4.09,0,0,0,2.5,1.8,3.76,3.76,0,0,0,4-1.9c0-.1.1-.1.2-.1s.2,0,.2.1a5.86,5.86,0,0,0,4.4,1.4,10.27,10.27,0,0,0,2.5-.7,18.24,18.24,0,0,1,2.5-.7,4.18,4.18,0,0,1,3.3.9,2,2,0,0,1,.8,1.2c1.6-1.8,3.5-3.6,5.9-3.5a1.33,1.33,0,0,1,.8.3,1.49,1.49,0,0,1,.2.9l-.3,2.1a11.8,11.8,0,0,0,3.2-2.7,9.16,9.16,0,0,1,1.4-1.4,1.67,1.67,0,0,1,1.8-.1,2.93,2.93,0,0,1,.7,1.2c0,.1.1.3.1.4a1.41,1.41,0,0,0,.6.7h.3a.22.22,0,0,1,.2.4.85.85,0,0,1-.7,0,1.59,1.59,0,0,1-.9-.9.6.6,0,0,1-.1-.4,1.35,1.35,0,0,0-.5-.9c-.3-.3-.7-.2-1.2.1a7.89,7.89,0,0,0-1.3,1.3,10.41,10.41,0,0,1-3.8,3.1H264c-.1-.1-.1-.1-.1-.2l.3-2.6v-.5c-.1-.1-.2-.1-.5-.1h-.1c-2.3,0-4.1,1.9-5.7,3.7C257.5,197.7,257.4,197.7,257.4,197.7Z" transform="translate(-52.2 -60.27)"/><path class="cls-8" d="M314.4,197.7a3,3,0,0,1-2.3-1.6,10.91,10.91,0,0,0-.6-1.1,5.39,5.39,0,0,0-.7-1.3,9.5,9.5,0,0,1-3.8,2.1c-.1,0-.2,0-.2-.1s-.1-.1-.1-.2a4.87,4.87,0,0,0,.1-1.2,2.14,2.14,0,0,0-.8-1.7,1.68,1.68,0,0,0-1.8-.2l-2.9,1.1c-.5.2-1.9.7-2.6-.1-.1-.1-.2-.2-.2-.3a1.38,1.38,0,0,0-.3-.4c-.2-.1-.5.1-.8.2-1.8,1.1-3.7,2.2-5.6,3.3a5.84,5.84,0,0,1-2.2.8,2.46,2.46,0,0,1-1.9-.9,2,2,0,0,1-.6-1.5,6.38,6.38,0,0,1-3.9,1.8h0a1.61,1.61,0,0,1-1.1-.3,1.86,1.86,0,0,1-.5-2.1,5.15,5.15,0,0,1,1.2-1.6.28.28,0,1,1,.4.4,4.18,4.18,0,0,0-1.1,1.5,1.36,1.36,0,0,0,.3,1.5,2,2,0,0,0,.9.2h0c1.5,0,2.8-1,4.1-2a.19.19,0,0,1,.3,0,.37.37,0,0,1,.1.3,2.06,2.06,0,0,0,2,2.3h0a3.41,3.41,0,0,0,1.9-.7c1.9-1,3.7-2.1,5.6-3.2a1.44,1.44,0,0,1,1.3-.3c.3.1.4.4.5.6s.1.2.2.3c.4.4,1,.4,2.1,0l2.9-1.1a2.38,2.38,0,0,1,2.3.3,2.51,2.51,0,0,1,1,2.1,2.2,2.2,0,0,1-.1.8,11.26,11.26,0,0,0,3.5-2.1c.1,0,.1-.1.2-.1s.1,0,.2.1a12.9,12.9,0,0,1,.9,1.6c.2.4.3.7.5,1.1a2.24,2.24,0,0,0,2.2,1.3,2.92,2.92,0,0,0,1.5-1.4,3.33,3.33,0,0,1,1.9-1.6,3.22,3.22,0,0,1,2.3.6c.3.1.5.3.8.4,1.5.7,3.2.3,4.9-.2a12.1,12.1,0,0,1,4.2-.5c.1,0,.2.1.2.3s-.1.2-.3.2a11,11,0,0,0-4,.5c-1.8.4-3.6.9-5.3.1a5.94,5.94,0,0,1-.8-.4,3.12,3.12,0,0,0-2-.6c-.7.1-1.1.8-1.6,1.4a3.48,3.48,0,0,1-1.8,1.6Z" transform="translate(-52.2 -60.27)"/><path class="cls-8" d="M230.9,207.6h-.1c-.1-.1-.1-.1-.1-.2a8,8,0,0,1,.3-1.5,6.67,6.67,0,0,1-5.3,1.1,4.18,4.18,0,0,1-1-.4,1.72,1.72,0,0,1,0-2.4,4.15,4.15,0,0,1,2-1.2c.1,0,.3,0,.3.1s0,.3-.1.3a4.58,4.58,0,0,0-1.8,1.1,1.24,1.24,0,0,0,0,1.7,1.08,1.08,0,0,0,.7.3,6.2,6.2,0,0,0,5.9-1.9.19.19,0,0,1,.3,0,.37.37,0,0,1,.1.3,4.85,4.85,0,0,0-.8,2.1l6.5-3.4c.1-.1.2,0,.3.1a.19.19,0,0,1,0,.3.6.6,0,0,0-.1.4,1.21,1.21,0,0,0,.5.5,1.66,1.66,0,0,0,1.3-.5l.1-.1a2.63,2.63,0,0,1,1.5-.7,4.25,4.25,0,0,1,1.1.2,23.64,23.64,0,0,0,10.2,1.1c.5-.1,1.1-.1,1.6-.2,2.1-.3,4.2-.6,6.2.1.1,0,.2.2.2.3s-.2.2-.3.2c-1.9-.7-4-.4-6-.1-.5.1-1.1.1-1.6.2a23,23,0,0,1-10.4-1.2,2.92,2.92,0,0,0-.9-.2,2.23,2.23,0,0,0-1.3.6l-.1.1a2.24,2.24,0,0,1-1.7.6,1.22,1.22,0,0,1-.9-.8v-.2l-6.4,3.4Z" transform="translate(-52.2 -60.27)"/><path class="cls-8" d="M271.2,206.9H271c-.1,0-.1-.1-.1-.2v-1.5c0-.1.1-.3.2-.3h0c.1,0,.2.1.3.2v1.2a13.17,13.17,0,0,0,5.4-3.3.35.35,0,0,1,.2-.1c.1,0,.1,0,.2.1a1.5,1.5,0,0,1,.4,1.1c.1.4.1.7.4.8a.64.64,0,0,0,.6,0,14.84,14.84,0,0,0,4.1-1.2c1.2-.5,2.8-1.3,3.9-.3l.2.2.3.3a.75.75,0,0,0,.5.1h.3a1.78,1.78,0,0,1,1,.4c.2.1.3.2.5.2a.89.89,0,0,0,1.1-.2c.1-.1.2-.2.3-.1s.2.2.1.3a1.39,1.39,0,0,1-1.7.5l-.6-.3a3.18,3.18,0,0,0-.9-.3h-.3a2,2,0,0,1-.7-.1,1,1,0,0,1-.5-.4l-.2-.2c-.9-.7-2.2-.1-3.3.4a16.2,16.2,0,0,1-4.3,1.2c-.3,0-.6.1-.9-.1s-.5-.7-.6-1.1a1.42,1.42,0,0,0-.2-.6,10.62,10.62,0,0,1-5.5,3.3Z" transform="translate(-52.2 -60.27)"/><path class="cls-8" d="M303.9,206.2h-.3a1.06,1.06,0,0,1-.7-.6.85.85,0,0,1,0-.7c.1-.1.2-.2.3-.1s.2.2.1.3v.3c.1.1.2.3.4.3a1.31,1.31,0,0,0,1-.3,13.51,13.51,0,0,0,3.3-2.6.37.37,0,0,1,.3-.1c.5.2.5.7.6,1.2a1.85,1.85,0,0,0,.2.7,1,1,0,0,0,.5.4,2.92,2.92,0,0,0,2-.4l3.6-1.9c.3-.1.7-.4,1.1-.3a2.18,2.18,0,0,1,.8.5l.2.2c1.2,1.1,3.1.5,4.8-.1l.3-.1a16.06,16.06,0,0,1,9.7,0c.1,0,.2.2.2.3s-.2.2-.3.2a15.86,15.86,0,0,0-9.4,0l-.3.1c-1.7.6-3.9,1.3-5.3,0l-.2-.2a1.76,1.76,0,0,0-.5-.4,1.85,1.85,0,0,0-.7.2L312,205a3.32,3.32,0,0,1-2.4.5,1.56,1.56,0,0,1-.8-.6,2.35,2.35,0,0,1-.2-.8,1.45,1.45,0,0,0-.2-.7,10.3,10.3,0,0,1-3.3,2.5A3,3,0,0,1,303.9,206.2Z" transform="translate(-52.2 -60.27)"/><path class="cls-8" d="M250.7,218.7h-.1a.19.19,0,0,1-.1-.3,16.2,16.2,0,0,0,0-4.4,7.85,7.85,0,0,1-2.3,1.6,2.66,2.66,0,0,1-3.1-.8c-.1-.1-.1-.2-.2-.3-.3-.4-.5-.7-.7-.6s-.2.1-.3.3l-2.9,3.4a.37.37,0,0,1-.3.1c-.1-.1-.2-.2-.1-.3l.6-1.9a41.67,41.67,0,0,1-6.1-.4.22.22,0,0,1-.2-.2l-.3-.9a9,9,0,0,1-3.4,2,3.82,3.82,0,0,1-3.9-1.1,3,3,0,0,1-3,.6c-.1,0-.2-.2-.2-.3a2,2,0,0,1,1.9-1.7c.2,0,.3.1.3.2s-.1.3-.2.3a1.6,1.6,0,0,0-1.4,1.1,2.6,2.6,0,0,0,2.5-.8c.1-.1.1-.1.2-.1a.35.35,0,0,1,.2.1c.6,1.2,2.3,1.5,3.5,1.2a9.07,9.07,0,0,0,3.5-2.2.31.31,0,0,1,.2-.1c.1,0,.1.1.2.2l.4,1.1a32.22,32.22,0,0,0,6.2.3c.1,0,.2,0,.2.1s.1.1,0,.2l-.3,1.1,2.2-2.5a2.18,2.18,0,0,1,.5-.4c.6-.2,1,.4,1.3.8.1.1.1.2.2.2a2.3,2.3,0,0,0,2.6.6,6.09,6.09,0,0,0,2.4-1.8.37.37,0,0,1,.3-.1.22.22,0,0,1,.2.2,19.72,19.72,0,0,1,.2,4.2l2.2-2.4a4.5,4.5,0,0,1,1.9-1.4,4.29,4.29,0,0,1,2.7.4,3.72,3.72,0,0,0,2.5.3c.1,0,.3,0,.3.1s0,.3-.2.3a4.54,4.54,0,0,1-2.8-.3,4.22,4.22,0,0,0-2.4-.4,3.44,3.44,0,0,0-1.6,1.3l-2.7,3C250.8,218.7,250.7,218.7,250.7,218.7Z" transform="translate(-52.2 -60.27)"/><path class="cls-8" d="M279.1,216.3h-.3c-.7-.2-.9-.8-1.1-1.4a2.34,2.34,0,0,0-.5-1,9.2,9.2,0,0,1-5.7,2c-.1,0-.2-.1-.2-.3s.1-.2.3-.2h0a8.46,8.46,0,0,0,5.5-2,.19.19,0,0,1,.3,0,2,2,0,0,1,.8,1.4c.2.6.4,1,.7,1.1a.88.88,0,0,0,.7-.1,9.39,9.39,0,0,0,2.6-1.4,1.23,1.23,0,0,1,.8-.4,2.23,2.23,0,0,1,1.4.3.35.35,0,0,1,.2.1,7.27,7.27,0,0,0,4.6-.1,9.8,9.8,0,0,1,4.5-.2c.1,0,.2.2.2.3s-.2.2-.3.2a9,9,0,0,0-4.3.2,7.78,7.78,0,0,1-5,0c-.1,0-.2-.1-.3-.1a2.24,2.24,0,0,0-1-.3.85.85,0,0,0-.5.3,10.85,10.85,0,0,1-2.8,1.5A3.54,3.54,0,0,1,279.1,216.3Z" transform="translate(-52.2 -60.27)"/><path class="cls-8" d="M222.5,237.6a3.6,3.6,0,0,1-1.1-.2c-.4-.2-.7-.4-.8-.7-.5-1,.4-2,1.5-2.6a.22.22,0,1,1,.2.4c-.7.4-1.7,1.2-1.3,1.9a1.47,1.47,0,0,0,.6.5c1.1.4,2.4.1,4-1.1a20,20,0,0,0,3.1-2.7c0-.1.1-.1.2-.1s.1,0,.2.1a2.23,2.23,0,0,1,.3,1.4,1.5,1.5,0,0,0,.2,1,1.23,1.23,0,0,0,1.1.2,13.27,13.27,0,0,0,4.2-1.9c.6-.3,1.1-.7,1.7-1a1.42,1.42,0,0,1,.6-.2h0c.6,0,.8.6,1,1.1.1.3.2.7.4.8s.7.1,1.2-.1a3.54,3.54,0,0,1,1.1-.3,3,3,0,0,1,1.6.5c.1.1.2.1.3.2.5.2,1.1.4,1.5,0a.28.28,0,0,1,.4.4c-.5.6-1.4.4-2.1.1-.1-.1-.2-.1-.3-.2a3.49,3.49,0,0,0-1.3-.5,1.61,1.61,0,0,0-.9.3c-.6.2-1.2.5-1.7,0a2.38,2.38,0,0,1-.6-1.1c-.2-.5-.3-.7-.5-.7h0c-.1,0-.2.1-.3.1a15.05,15.05,0,0,0-1.7,1,14.32,14.32,0,0,1-4.4,1.9,1.71,1.71,0,0,1-1.5-.3c-.4-.4-.3-.9-.3-1.4v-.8a22.58,22.58,0,0,1-2.9,2.5A7.84,7.84,0,0,1,222.5,237.6Z" transform="translate(-52.2 -60.27)"/><path class="cls-8" d="M255.6,237.7a4.25,4.25,0,0,1-1.1-.2,1.75,1.75,0,0,1-.9-1.8,1.37,1.37,0,0,1,.8-1.1c.1,0,.3,0,.3.2s0,.3-.2.3a.6.6,0,0,0-.5.6,1.36,1.36,0,0,0,.7,1.3,3.51,3.51,0,0,0,2.8-.3l5.3-2a.82.82,0,0,1,.7-.1,1.06,1.06,0,0,1,.6.7c.1.2.1.3.2.4s.6.1,1-.2l4.3-2.5a1.9,1.9,0,0,1,.9-.3c.7.1.8.8.9,1.3,0,.2.1.3.1.5a2.09,2.09,0,0,0,2.4,1.1,7,7,0,0,0,2.5-1.4l.2-.2a3.29,3.29,0,0,1,1.6-.7,2.84,2.84,0,0,1,1.2.4h.1a15.62,15.62,0,0,0,6,1.5,3,3,0,0,1-.2-1,2.59,2.59,0,0,1,.9-1.7,4.15,4.15,0,0,1,3.2-.5,7.1,7.1,0,0,1,3.1,1.3c.1.1.2.1.3.2a5.3,5.3,0,0,0,1,.6,4.65,4.65,0,0,0,3.4-.5l.9-.3c2.8-.9,5.9-.5,8.7-.2l10.7,1.4c.1,0,.2.1.2.3s-.1.2-.3.2l-10.7-1.4c-2.7-.4-5.7-.8-8.4.1l-.9.3a5.37,5.37,0,0,1-3.7.5,10.91,10.91,0,0,1-1.1-.6c-.1-.1-.2-.1-.3-.2a8.13,8.13,0,0,0-2.9-1.2,3.51,3.51,0,0,0-2.8.4,1.71,1.71,0,0,0-.7,1.3,1.49,1.49,0,0,0,.3,1,.19.19,0,0,1,0,.3.22.22,0,0,1-.2.2h0a15.6,15.6,0,0,1-6.7-1.5h-.1a1.93,1.93,0,0,0-1-.3h0a2.23,2.23,0,0,0-1.3.6l-.2.2a7,7,0,0,1-2.7,1.4,2.63,2.63,0,0,1-3-1.4.9.9,0,0,1-.1-.5c-.1-.6-.2-.9-.5-.9a1.42,1.42,0,0,0-.6.2l-4.3,2.5a1.48,1.48,0,0,1-1.6.2,2.09,2.09,0,0,1-.4-.6c-.1-.2-.2-.4-.3-.4a.76.76,0,0,0-.4.1l-5.3,2A9,9,0,0,1,255.6,237.7Z" transform="translate(-52.2 -60.27)"/><path class="cls-8" d="M329.5,235.8a1,1,0,0,1-.7-.2.91.91,0,0,1-.4-.8.55.55,0,0,1,.4-.6.22.22,0,0,1,.2.4.35.35,0,0,0-.1.2.76.76,0,0,0,.2.4c.3.2.6.1,1,0a50.92,50.92,0,0,0,5.6-1.4c.9-.3,2-.3,2.3.6,0,.1.1.2.1.3a.37.37,0,0,0,.1.3c.1.1.3.1.6.1a26.24,26.24,0,0,0,7.9-1.4c.1,0,.3,0,.3.2s0,.3-.2.3a27.54,27.54,0,0,1-8.1,1.4,1.31,1.31,0,0,1-1-.3,1.69,1.69,0,0,1-.2-.5v-.2c-.2-.7-1.5-.3-1.7-.2a52.69,52.69,0,0,1-5.7,1.4Z" transform="translate(-52.2 -60.27)"/><path class="cls-8" d="M213.6,369a4.25,4.25,0,0,1-1.1-.2,1.75,1.75,0,0,1-.9-1.8,1.37,1.37,0,0,1,.8-1.1c.1,0,.3,0,.3.2s0,.3-.2.3a.6.6,0,0,0-.5.6,1.36,1.36,0,0,0,.7,1.3,3.51,3.51,0,0,0,2.8-.3l5.3-2a.82.82,0,0,1,.7-.1,1.06,1.06,0,0,1,.6.7c.1.2.1.3.2.4s.6.1,1-.2l4.3-2.5a1.9,1.9,0,0,1,.9-.3c.7.1.8.8.9,1.3,0,.2.1.3.1.5a2.09,2.09,0,0,0,2.4,1.1,7,7,0,0,0,2.5-1.4l.2-.2a3.29,3.29,0,0,1,1.6-.7,2.84,2.84,0,0,1,1.2.4h.1a15.62,15.62,0,0,0,6,1.5,3,3,0,0,1-.2-1,2.59,2.59,0,0,1,.9-1.7,4.15,4.15,0,0,1,3.2-.5,7.1,7.1,0,0,1,3.1,1.3c.1.1.2.1.3.2a5.3,5.3,0,0,0,1,.6,4.65,4.65,0,0,0,3.4-.5l.9-.3c2.8-.9,5.9-.5,8.7-.2l10.7,1.4c.1,0,.2.1.2.3s-.1.2-.3.2L265,365c-2.7-.4-5.7-.8-8.4.1l-.9.3a5.37,5.37,0,0,1-3.7.5,4.13,4.13,0,0,1-1.1-.7c-.1-.1-.2-.1-.3-.2a8.13,8.13,0,0,0-2.9-1.2,3.51,3.51,0,0,0-2.8.4,1.71,1.71,0,0,0-.7,1.3,1.49,1.49,0,0,0,.3,1,.19.19,0,0,1,0,.3.22.22,0,0,1-.2.2h0a15.6,15.6,0,0,1-6.7-1.5h-.1a1.93,1.93,0,0,0-1-.3h0a2.23,2.23,0,0,0-1.3.6l-.2.2a7,7,0,0,1-2.7,1.4,2.63,2.63,0,0,1-3-1.4.9.9,0,0,1-.1-.5c-.1-.6-.2-.9-.5-.9a1.42,1.42,0,0,0-.6.2l-4.3,2.5a1.48,1.48,0,0,1-1.6.2,2.09,2.09,0,0,1-.4-.6c-.1-.2-.2-.4-.3-.4a.76.76,0,0,0-.4.1l-5.3,2A8.51,8.51,0,0,1,213.6,369Z" transform="translate(-52.2 -60.27)"/><path class="cls-8" d="M287.6,367.1a1,1,0,0,1-.7-.2.91.91,0,0,1-.4-.8.55.55,0,0,1,.4-.6.22.22,0,1,1,.2.4.35.35,0,0,0-.1.2.76.76,0,0,0,.2.4c.3.2.6.1,1,0a50.92,50.92,0,0,0,5.6-1.4c.9-.3,2-.3,2.3.6,0,.1.1.2.1.3a.37.37,0,0,0,.1.3c.1.1.3.1.6.1a26.24,26.24,0,0,0,7.9-1.4c.1,0,.3,0,.3.2s0,.3-.2.3a27.54,27.54,0,0,1-8.1,1.4,1.21,1.21,0,0,1-1-.3,1.69,1.69,0,0,1-.2-.5v-.2c-.2-.7-1.5-.3-1.7-.2-1.9.6-3.8,1-5.7,1.4Z" transform="translate(-52.2 -60.27)"/><path class="cls-8" d="M268.5,247.4a4.53,4.53,0,0,1-2.9-.9,2.44,2.44,0,0,1-.9-1.1,4.05,4.05,0,0,1-.9.5,5.5,5.5,0,0,1-4.4-.9,1.69,1.69,0,0,0-.5-.2c-.2,0-.4.2-.6.4l-.7.7a2.42,2.42,0,0,1-2,.6,2.48,2.48,0,0,1-1.6-1.4l-.3-.8a18.87,18.87,0,0,1-9.7.8,10.73,10.73,0,0,1-3.8,1.3c-.1,0-.1,0-.2-.1s-.1-.1-.1-.2a3.13,3.13,0,0,0-.4-1.9,6.72,6.72,0,0,1-4.2.4l-.3-.1a2.77,2.77,0,0,0-.9-.1,2.11,2.11,0,0,0-1.3.5l-.5.3a7.89,7.89,0,0,1-3,1.2,3.27,3.27,0,0,1-3.3-1.3,3.6,3.6,0,0,1-2.2.7,1.87,1.87,0,0,1-1.2-1.1,1.13,1.13,0,0,1,.3-1.1.28.28,0,0,1,.4.4.73.73,0,0,0-.2.6,1.09,1.09,0,0,0,.8.8,3.09,3.09,0,0,0,2.1-.8c.1,0,.1-.1.2,0s.1.1.2.1c.4,1,1.8,1.4,2.9,1.3a9.87,9.87,0,0,0,2.8-1.2l.5-.3a3,3,0,0,1,1.6-.5c.4,0,.7.1,1.1.1l.3.1a6.07,6.07,0,0,0,4-.5.19.19,0,0,1,.3.1,3.94,3.94,0,0,1,.6,2.1,9.85,9.85,0,0,0,3.4-1.2h.2a17.81,17.81,0,0,0,9.7-.9c.1,0,.3,0,.3.1l.4,1a1.87,1.87,0,0,0,1.2,1.1,1.8,1.8,0,0,0,1.6-.4l.7-.7a1.35,1.35,0,0,1,.9-.5,1.91,1.91,0,0,1,.8.3c1.1.7,2.6,1.4,4,.9a2.18,2.18,0,0,0,.8-.5,3.55,3.55,0,0,1-.2-1,2.52,2.52,0,0,1,.9-2c.1,0,.1-.1.2-.1s.1.1.2.1a2.33,2.33,0,0,1,.2,2,2.59,2.59,0,0,1-.7,1.1,2.72,2.72,0,0,0,.8,1,5,5,0,0,0,4.4.5,14.27,14.27,0,0,0,2.2-.8,15.55,15.55,0,0,1,2.3-.8,22,22,0,0,1,3.7-.5l3-.3c.4-.1.8-.2,1.1-.3,1.7-.4,3.4-.8,4.9,0,.1.1.2.2.1.3s-.2.2-.3.1c-1.4-.7-3-.3-4.6,0l-1.2.3c-1,.2-2,.3-3,.4a22.26,22.26,0,0,0-3.6.5,14.27,14.27,0,0,0-2.2.8,15.55,15.55,0,0,1-2.3.8A10.08,10.08,0,0,1,268.5,247.4Zm-3.2-4.8a2,2,0,0,0-.5,1.4,1.27,1.27,0,0,0,.1.6,1.61,1.61,0,0,0,.4-.7A1.48,1.48,0,0,0,265.3,242.6Z" transform="translate(-52.2 -60.27)"/><path class="cls-8" d="M305.4,246.5a2.77,2.77,0,0,1-.9-.1c-.1,0-.1,0-.2-.1s-.1-.1,0-.2a2,2,0,0,0-.1-1.3,14.19,14.19,0,0,1-8.4.8.22.22,0,0,1-.2-.2v-.2l.8-1.1a.22.22,0,1,1,.4.2l-.5.8a14.11,14.11,0,0,0,7.9-.9h.2a.1.1,0,0,1,.1.1,3,3,0,0,1,.2,1.6c2.2.2,4.3-.9,6.4-2l1.8-.9a1.39,1.39,0,0,1,1.1-.2c.4.1.6.5.8.8a.22.22,0,0,0,.2.2c.8,1.2,2.6,1.2,4,.9a6.15,6.15,0,0,1,1.3-.1,3.55,3.55,0,0,1,.9.4c.1.1.2.1.3.2,1.7.8,3.8.5,6.6-.8,1.3-.6,2.9-1.3,4.1-.4a.22.22,0,0,1-.2.4c-1-.7-2.3-.1-3.6.5-2.9,1.4-5.2,1.7-7,.8-.1-.1-.2-.1-.3-.2-.3-.1-.5-.3-.8-.3a2.16,2.16,0,0,0-1.1.1c-2.3.4-3.8,0-4.5-1.1-.1-.1-.1-.2-.2-.3-.2-.3-.3-.5-.5-.6a.66.66,0,0,0-.7.2l-1.8.9C309.5,245.5,307.5,246.5,305.4,246.5Z" transform="translate(-52.2 -60.27)"/><path class="cls-8" d="M221.5,266.8h-.2a1.39,1.39,0,0,1-1.1-1.4,4.71,4.71,0,0,1,.4-1.7c.1-.1.2-.2.3-.1s.2.2.1.3a3.26,3.26,0,0,0-.4,1.4,1.09,1.09,0,0,0,.7,1,2.49,2.49,0,0,0,.8-.1,7.36,7.36,0,0,0,2.7-1.9.37.37,0,0,1,.3-.1c.4.1.5.6.5.9a.76.76,0,0,0,.2.5q.15.3.9,0a35.18,35.18,0,0,0,4.5-1.8,2.18,2.18,0,0,1,1.5-.2,1,1,0,0,1,.5.4,1.09,1.09,0,0,1,.1.5c0,.2,0,.3.1.4s.3.1.7,0l4-1.1a4.23,4.23,0,0,1,2.5-.2,2.16,2.16,0,0,1,1.2,1.1,1.41,1.41,0,0,1,.1.9,4.7,4.7,0,0,0,4-.4.22.22,0,1,1,.2.4,5,5,0,0,1-4.6.4.1.1,0,0,1-.1-.1v-.2a.85.85,0,0,0,0-.7,1.42,1.42,0,0,0-.9-.8,4.07,4.07,0,0,0-2.2.2l-4,1.1a1.13,1.13,0,0,1-1.2-.2,1,1,0,0,1-.2-.7v-.3c0-.1-.1-.1-.2-.2a1.61,1.61,0,0,0-1.1.2,36.56,36.56,0,0,1-4.6,1.8,1.26,1.26,0,0,1-1.4-.2c-.2-.2-.2-.5-.3-.8s-.1-.3-.1-.4a8.3,8.3,0,0,1-2.7,1.9A4.39,4.39,0,0,1,221.5,266.8Z" transform="translate(-52.2 -60.27)"/><path class="cls-8" d="M257.2,268.8a1.12,1.12,0,0,1-1.2-.7,2.68,2.68,0,0,1,.5-2.2,5.87,5.87,0,0,1-2.3.4,2.48,2.48,0,0,1-2.3-1.1,1.38,1.38,0,0,1,.2-1.6,1,1,0,0,1,1.1-.4c.1,0,.2.2.2.3s-.2.2-.3.2a.49.49,0,0,0-.6.3.92.92,0,0,0-.1,1c.4.7,1.5.8,1.9.8h.1a6.41,6.41,0,0,0,3-.8,2.29,2.29,0,0,1,1-.7c.1-.1.2,0,.3.1a.19.19,0,0,1,0,.3,3.59,3.59,0,0,1-1,.7,3.11,3.11,0,0,0-1,2.6.83.83,0,0,0,1,.4,16.14,16.14,0,0,0,5-3.1,10.63,10.63,0,0,1,1.1-.9.19.19,0,0,1,.3,0,.37.37,0,0,1,.1.3l-.5,1.6a12.62,12.62,0,0,0,6.7-2.6h0c.1-.1.3-.1.3,0s.1.3,0,.3h0a3.75,3.75,0,0,0-1.4,2.1l6.3-1.5a1,1,0,0,1,.9.1,2.51,2.51,0,0,1,.4.7v.2c.3,1.1,2,1.2,2.8,1.1a9.17,9.17,0,0,0,3.7-.7,25.45,25.45,0,0,1,2.5-.8c.3,0,.5,0,.6.2a1.11,1.11,0,0,1-.1,1.1c-.1.3-.2.7-.1.8s.3.2,1.3-.1L293,264a4,4,0,0,1,1.9-.7,3.68,3.68,0,0,1,2.2,1.4l.1.1a4.16,4.16,0,0,0,1.6,1.4,1.31,1.31,0,0,0,1.2-.3.85.85,0,0,0,.3-.6c0-.1.1-.2.2-.3a.37.37,0,0,1,.3.1,3.76,3.76,0,0,0,1.8,1.5c.5-.1.7-.6,1-1.3s.6-1.4,1.3-1.6a2.2,2.2,0,0,1,1.4.1c6.5,1.7,13.6.9,19.8.3.2,0,.3.1.3.2s-.1.3-.2.3c-6.3.7-13.4,1.4-20-.3a2.16,2.16,0,0,0-1.1-.1,1.93,1.93,0,0,0-1,1.4c-.3.7-.7,1.5-1.5,1.6h-.1a3.71,3.71,0,0,1-1.7-1.3,1.38,1.38,0,0,1-.3.4,1.57,1.57,0,0,1-1.6.3A4.94,4.94,0,0,1,297,265l-.1-.1a3.24,3.24,0,0,0-1.8-1.3,2.83,2.83,0,0,0-1.6.6l-5.4,3.2c-1,.3-1.5.3-1.8,0s-.2-.9,0-1.3c.1-.2.2-.6.1-.7h-.1c-1.1.3-1.8.6-2.4.8a9.55,9.55,0,0,1-3.9.8c-1.8.1-3-.5-3.3-1.5v-.2a.52.52,0,0,0-.2-.4c-.1-.1-.3,0-.5,0l-6.7,1.5c-.1,0-.2,0-.2-.1s-.1-.1-.1-.2a3.36,3.36,0,0,1,.5-1.4,13.44,13.44,0,0,1-5.9,1.7c-.1,0-.2,0-.2-.1s-.1-.2,0-.2l.4-1.2a1.76,1.76,0,0,0-.5.4,16.62,16.62,0,0,1-5.1,3.1C257.5,268.8,257.3,268.8,257.2,268.8Z" transform="translate(-52.2 -60.27)"/></g></svg>