<?xml version="1.0" encoding="utf-8"?>
<!-- Generator: Adobe Illustrator 21.0.0, SVG Export Plug-In . SVG Version: 6.00 Build 0)  -->
<svg version="1.1" id="Character" xmlns="http://www.w3.org/2000/svg" xmlns:xlink="http://www.w3.org/1999/xlink" x="0px" y="0px"
	 viewBox="0 0 500 500" style="enable-background:new 0 0 500 500;" xml:space="preserve">
<style type="text/css">
	.st0{fill:#D4E8FF;}
	.st1{fill:#D1E3FF;}
	.st2{fill:#F5FCFF;}
	.st3{fill:#E0E0E0;}
	.st4{opacity:0.4;fill:#D4E8FF;}
	.st5{fill:#F0F0F0;}
	.st6{fill:#E3EEFF;}
	.st7{fill:#F3F8FF;}
	.st8{fill:#EF8200;}
	.st9{opacity:0.3;fill:#9B4A12;}
	.st10{opacity:0.1;}
	.st11{fill:#FAFAFA;}
	.st12{opacity:0.1;fill:#FAFAFA;}
	.st13{opacity:0.3;}
	.st14{fill:#9B4A12;}
	.st15{opacity:0.4;fill:#9B4A12;}
	.st16{opacity:0.4;}
	.st17{fill:#F29F9C;}
	.st18{opacity:0.5;fill:#FAFAFA;}
	.st19{opacity:0.3;fill:#FAFAFA;}
	.st20{fill:#263238;}
	.st21{fill:#C66A6A;}
	.st22{opacity:0.6;fill:#FAFAFA;}
	.st23{fill:#CE7878;}
</style>
<g>
	<g>
		<g>
			<g>
				<g>
					
						<rect x="69.1" y="88" transform="matrix(-1 -1.224647e-16 1.224647e-16 -1 288.8575 384.4709)" class="st0" width="150.7" height="208.5"/>
					
						<rect x="65.7" y="88" transform="matrix(-1 -1.224647e-16 1.224647e-16 -1 282.1597 384.4709)" class="st1" width="150.7" height="208.5"/>
					
						<rect x="42.9" y="122.9" transform="matrix(-1.836970e-16 1 -1 -1.836970e-16 333.3153 51.1557)" class="st2" width="196.3" height="138.7"/>
					
						<rect x="22.4" y="187.7" transform="matrix(-1.836970e-16 1 -1 -1.836970e-16 312.8307 71.6404)" class="st0" width="196.3" height="9.1"/>
					
						<rect x="70.1" y="187.7" transform="matrix(-1.836970e-16 1 -1 -1.836970e-16 360.4977 23.9733)" class="st0" width="196.3" height="9.1"/>
					
						<rect x="15.1" y="187.4" transform="matrix(-1.836970e-16 1 -1 -1.836970e-16 309.3124 74.4957)" class="st1" width="204.7" height="9.1"/>
					
						<rect x="62.7" y="187.4" transform="matrix(-1.836970e-16 1 -1 -1.836970e-16 356.9796 26.8286)" class="st1" width="204.7" height="9.1"/>
					
						<rect x="-25.1" y="191" transform="matrix(-1.836970e-16 1 -1 -1.836970e-16 265.2433 119.2277)" class="st0" width="196.3" height="2.5"/>
				</g>
			</g>
		</g>
		<g>
			<g>
				<path class="st0" d="M63.2,80.2h161.2c0.4,0,0.8,0.3,0.8,0.8l0,0c0,0.4-0.3,0.8-0.8,0.8H63.2c-0.4,0-0.8-0.3-0.8-0.8l0,0
					C62.4,80.5,62.8,80.2,63.2,80.2z"/>
				<circle class="st0" cx="62.4" cy="81" r="3.9"/>
				<path class="st0" d="M217.9,85.3L217.9,85.3c0.6,0,1-0.5,1-1V82c0-0.6-0.5-1-1-1l0,0c-0.6,0-1,0.5-1,1v2.2
					C216.8,84.8,217.3,85.3,217.9,85.3z"/>
				<path class="st3" d="M74.9,85.3L74.9,85.3c0.6,0,1-0.5,1-1V82c0-0.6-0.5-1-1-1l0,0c-0.6,0-1,0.5-1,1v2.2
					C73.9,84.8,74.3,85.3,74.9,85.3z"/>
			</g>
			
				<rect x="63.5" y="81" transform="matrix(-1 -1.224647e-16 1.224647e-16 -1 277.4973 262.9304)" class="st4" width="150.6" height="101"/>
			<circle class="st0" cx="205.4" cy="81" r="3.9"/>
		</g>
		<g>
			<path class="st5" d="M135.4,356.2h13.9c1.7,0,3.1-1.4,3.1-3.1v-23c0-1.7-1.4-3.1-3.1-3.1h-13.9c-1.7,0-3.1,1.4-3.1,3.1v23
				C132.3,354.8,133.7,356.2,135.4,356.2z"/>
			<path class="st1" d="M98.5,356.2h9.4c1.2,0,2.1-0.9,2.1-2.1v-15.5c0-1.2-0.9-2.1-2.1-2.1h-9.4c-1.2,0-2.1,0.9-2.1,2.1v15.5
				C96.4,355.2,97.3,356.2,98.5,356.2z"/>
			<path class="st0" d="M97.1,336.8h12.2c0.4,0,0.7-0.3,0.7-0.7v-0.8c0-0.4-0.3-0.7-0.7-0.7H97.1c-0.4,0-0.7,0.3-0.7,0.7v0.8
				C96.4,336.4,96.7,336.8,97.1,336.8z"/>
			<path class="st1" d="M184.7,339.9c0,0-0.5,16.3-19.6,16.3c-19.1,0-19.6-16.3-19.6-16.3H184.7z"/>
			<g>
				<g>
					<rect x="203.3" y="356.2" class="st1" width="28.9" height="5.7"/>
					
						<rect x="59.7" y="356.2" transform="matrix(-1 -1.224647e-16 1.224647e-16 -1 262.9325 718.0515)" class="st1" width="143.6" height="5.7"/>
				</g>
			</g>
			<g>
				<g>
					<rect x="203.3" y="371.4" class="st1" width="28.9" height="5.7"/>
					
						<rect x="59.7" y="371.4" transform="matrix(-1 -1.224647e-16 1.224647e-16 -1 262.9325 748.4703)" class="st1" width="143.6" height="5.7"/>
				</g>
			</g>
			
				<rect x="221.8" y="361.9" transform="matrix(-1 -1.224647e-16 1.224647e-16 -1 448.8397 753.015)" class="st1" width="5.3" height="29.3"/>
			
				<rect x="197.9" y="361.9" transform="matrix(-1 -1.224647e-16 1.224647e-16 -1 401.2292 753.015)" class="st1" width="5.3" height="29.3"/>
			
				<rect x="78.1" y="361.9" transform="matrix(-1 -1.224647e-16 1.224647e-16 -1 161.5796 753.015)" class="st1" width="5.3" height="29.3"/>
			
				<rect x="59.7" y="361.9" transform="matrix(-1 -1.224647e-16 1.224647e-16 -1 124.6358 753.015)" class="st1" width="5.3" height="29.3"/>
		</g>
		<g>
			<g>
				
					<rect x="404.5" y="245.8" transform="matrix(-1 -1.224647e-16 1.224647e-16 -1 836.3019 629.443)" class="st1" width="27.3" height="137.8"/>
				
					<rect x="291.8" y="383.6" transform="matrix(-1 -1.224647e-16 1.224647e-16 -1 718.4105 774.7759)" class="st0" width="134.7" height="7.5"/>
				<rect x="286.6" y="245.8" class="st6" width="117.9" height="137.8"/>
				<rect x="297.3" y="298.8" class="st0" width="96.4" height="31.8"/>
				<rect x="297.3" y="337.7" class="st0" width="96.4" height="31.8"/>
				<path class="st2" d="M334.7,303.1h21.6c1.5,0,2.7-1.2,2.7-2.7l0,0c0-1.5-1.2-2.7-2.7-2.7h-21.6c-1.5,0-2.7,1.2-2.7,2.7l0,0
					C332.1,301.9,333.3,303.1,334.7,303.1z"/>
				<rect x="297.3" y="260" class="st0" width="96.4" height="31.8"/>
				<path class="st2" d="M334.7,264.2h21.6c1.5,0,2.7-1.2,2.7-2.7l0,0c0-1.5-1.2-2.7-2.7-2.7h-21.6c-1.5,0-2.7,1.2-2.7,2.7l0,0
					C332.1,263,333.3,264.2,334.7,264.2z"/>
				<path class="st5" d="M334.7,342h21.6c1.5,0,2.7-1.2,2.7-2.7l0,0c0-1.5-1.2-2.7-2.7-2.7h-21.6c-1.5,0-2.7,1.2-2.7,2.7l0,0
					C332.1,340.8,333.3,342,334.7,342z"/>
			</g>
			
				<rect x="283" y="238.6" transform="matrix(-1 -1.224647e-16 1.224647e-16 -1 687.4529 484.3669)" class="st0" width="121.5" height="7.3"/>
			<rect x="404.5" y="238.6" class="st0" width="31.1" height="7.3"/>
		</g>
		<g>
			
				<rect x="361.1" y="108.8" transform="matrix(-1 -1.224647e-16 1.224647e-16 -1 777.9682 280.8367)" class="st0" width="55.7" height="63.2"/>
			
				<rect x="354.9" y="108.8" transform="matrix(-1 -1.224647e-16 1.224647e-16 -1 769.2442 280.8367)" class="st6" width="59.4" height="63.2"/>
			
				<rect x="358" y="115.7" transform="matrix(-1.836970e-16 1 -1 -1.836970e-16 525.0405 -244.2038)" class="st2" width="53.2" height="49.5"/>
			
				<rect x="370.9" y="127.7" transform="matrix(-1.836970e-16 1 -1 -1.836970e-16 525.0405 -244.2038)" class="st6" width="27.4" height="25.5"/>
		</g>
		<g>
			<g>
				
					<rect x="300.5" y="90.2" transform="matrix(-1 -1.224647e-16 1.224647e-16 -1 642.7352 227.2171)" class="st0" width="41.8" height="46.9"/>
				
					<rect x="295.8" y="90.2" transform="matrix(-1 -1.224647e-16 1.224647e-16 -1 635.7858 227.2171)" class="st6" width="44.1" height="46.9"/>
				
					<rect x="298.2" y="95.3" transform="matrix(-1.836970e-16 1 -1 -1.836970e-16 431.5014 -204.2844)" class="st2" width="39.5" height="36.7"/>
				<polygon class="st6" points="317.9,103.6 327.9,121 307.9,121 				"/>
			</g>
		</g>
	</g>
</g>
<ellipse class="st7" cx="250" cy="425" rx="193.9" ry="11.3"/>
<g>
	<g>
		<g>
			<path class="st8" d="M391.5,173h-83.3c-6.7,0-12.2,5.5-12.2,12.2v45.1c0,6.7,5.5,12.2,12.2,12.2h8.4l-3.3,13.2
				c0,0,14.4-0.5,24.4-13.2h53.7c6.7,0,12.2-5.5,12.2-12.2v-45.1C403.7,178.5,398.2,173,391.5,173z"/>
			<path class="st9" d="M391.5,173h-83.3c-6.7,0-12.2,5.5-12.2,12.2v45.1c0,6.7,5.5,12.2,12.2,12.2h8.4l-3.3,13.2
				c0,0,14.4-0.5,24.4-13.2h53.7c6.7,0,12.2-5.5,12.2-12.2v-45.1C403.7,178.5,398.2,173,391.5,173z"/>
		</g>
		<g>
			<g>
				<circle class="st8" cx="381.7" cy="207.8" r="10.3"/>
				<circle class="st8" cx="349.9" cy="207.8" r="10.3"/>
				<circle class="st8" cx="318" cy="207.8" r="10.3"/>
			</g>
			<g class="st10">
				<circle class="st11" cx="381.7" cy="207.8" r="10.3"/>
				<circle class="st11" cx="349.9" cy="207.8" r="10.3"/>
				<circle class="st11" cx="318" cy="207.8" r="10.3"/>
			</g>
		</g>
	</g>
	<g>
		<g>
			<path class="st8" d="M187.3,108.3h83.3c6.7,0,12.2,5.5,12.2,12.2v45.1c0,6.7-5.5,12.2-12.2,12.2h-8.4l3.3,13.2
				c0,0-14.4-0.5-24.4-13.2h-53.7c-6.7,0-12.2-5.5-12.2-12.2v-45.1C175.1,113.8,180.6,108.3,187.3,108.3z"/>
			<path class="st12" d="M187.3,108.3h83.3c6.7,0,12.2,5.5,12.2,12.2v45.1c0,6.7-5.5,12.2-12.2,12.2h-8.4l3.3,13.2
				c0,0-14.4-0.5-24.4-13.2h-53.7c-6.7,0-12.2-5.5-12.2-12.2v-45.1C175.1,113.8,180.6,108.3,187.3,108.3z"/>
		</g>
		<g>
			<g>
				<rect x="189.9" y="124" class="st8" width="78.2" height="7.4"/>
				<rect x="189.9" y="139.4" class="st8" width="60.3" height="7.4"/>
				<rect x="189.9" y="154.7" class="st8" width="68.2" height="7.4"/>
			</g>
			<g class="st13">
				<rect x="189.9" y="124" class="st14" width="78.2" height="7.4"/>
				<rect x="189.9" y="139.4" class="st14" width="60.3" height="7.4"/>
				<rect x="189.9" y="154.7" class="st14" width="68.2" height="7.4"/>
			</g>
		</g>
	</g>
</g>
<g>
	<g>
		<g>
			<g>
				<path class="st8" d="M298.1,320.1L298.1,320.1c-0.6,0-1.1,0-1.7,0.1c-11.9,0.8-21.5,10.9-22.2,23.3c-0.2,2.8,0.1,5.6,0.8,8.1
					c2.7,10.6,3.8,21.6,3.8,32.5v32c0,2.3,1.8,4.2,4,4.2h15.4h-2.6H362V320.1H298.1z"/>
				<path class="st9" d="M298.1,320.1L298.1,320.1c-0.6,0-1.1,0-1.7,0.1c-11.9,0.8-21.5,10.9-22.2,23.3c-0.2,2.8,0.1,5.6,0.8,8.1
					c2.7,10.6,3.8,21.6,3.8,32.5v32c0,2.3,1.8,4.2,4,4.2h15.4h-2.6H362V320.1H298.1z"/>
			</g>
			<path class="st8" d="M386,345c0-14.4-11.7-25.9-25.7-24.9c-11.9,0.8-21.5,10.9-22.2,23.3c-0.2,2.8,0.1,5.6,0.8,8.1
				c2.7,10.6,3.8,21.6,3.8,32.5v32c0,2.3,1.8,4.2,4,4.2h30.7c2.2,0,4-1.9,4-4.2v-33.8c0-10.3,1.1-20.6,3.7-30.5
				C385.7,349.6,386,347.3,386,345z"/>
		</g>
		<g>
			<rect x="227.8" y="359.4" class="st8" width="101.2" height="60.8"/>
			<rect x="227.8" y="359.4" class="st9" width="101.2" height="60.8"/>
		</g>
		<g>
			<path class="st8" d="M285.8,286.6H174.1c-10.2,0-18.5,8.3-18.5,18.5v68.1h148.8v-68.1C304.3,294.8,296.1,286.6,285.8,286.6z"/>
			<path class="st15" d="M285.8,286.6H174.1c-10.2,0-18.5,8.3-18.5,18.5v68.1h148.8v-68.1C304.3,294.8,296.1,286.6,285.8,286.6z"/>
		</g>
		<path class="st8" d="M291.6,286.6h-95.5c-9.7,0-17.6,7.9-17.6,17.6v69h130.7v-69C309.2,294.4,301.3,286.6,291.6,286.6z"/>
		<g>
			<path class="st8" d="M327.7,353.1h-94.1c-0.9,0-1.6,0.7-1.6,1.6V377c0,0.9,0.7,1.6,1.6,1.6h94.1c3,0,5.5-2.4,5.5-5.5v-14.6
				C333.1,355.5,330.7,353.1,327.7,353.1z"/>
			<path class="st16" d="M327.7,353.1h-94.1c-0.9,0-1.6,0.7-1.6,1.6V377c0,0.9,0.7,1.6,1.6,1.6h94.1c3,0,5.5-2.4,5.5-5.5v-14.6
				C333.1,355.5,330.7,353.1,327.7,353.1z"/>
		</g>
		<g>
			<path class="st8" d="M360.3,423.3H148.7c-1.6,0-3-1.3-3-3v-0.1h217.5v0.1C363.2,421.9,361.9,423.3,360.3,423.3z"/>
			<path class="st16" d="M360.3,423.3H148.7c-1.6,0-3-1.3-3-3v-0.1h217.5v0.1C363.2,421.9,361.9,423.3,360.3,423.3z"/>
		</g>
	</g>
	<g>
		<g>
			<path class="st17" d="M275.7,276.5l0.4,1.6l0.5,1.8c0.3,1.2,0.7,2.4,1,3.6c0.7,2.4,1.5,4.8,2.3,7.1c0.8,2.4,1.6,4.7,2.5,7.1
				c0.4,1.2,0.9,2.4,1.3,3.5l0.5,1.4c0.1,0.2,0.2,0.4,0.4,0.7c0.8,1,2.7,2.2,4.8,3c2.1,0.9,4.4,1.5,6.8,2.1c2.4,0.6,4.8,1,7.3,1.4
				c2.5,0.4,5,0.7,7.5,1l0.1,5c-5.4,0.5-10.7,0.6-16.1,0c-2.7-0.3-5.5-0.8-8.3-1.6c-1.4-0.4-2.8-1-4.3-1.7c-1.4-0.7-2.9-1.6-4.3-3
				c-0.7-0.7-1.3-1.5-1.9-2.4c-0.1-0.2-0.3-0.5-0.4-0.7l-0.2-0.5l-0.4-0.9c-0.6-1.2-1.2-2.4-1.7-3.6c-1.1-2.4-2.1-4.9-3.1-7.3
				c-1-2.5-1.9-5-2.7-7.6c-0.4-1.3-0.8-2.6-1.1-3.9l-0.5-2c-0.2-0.7-0.3-1.3-0.4-2.1L275.7,276.5z"/>
			<g>
				<path class="st8" d="M272.5,265.9c4,1,6.8,17.6,6.8,17.6l-11.1,7.5c0,0-10.6-16.7-7.5-21.1C264,265.2,266.7,264.4,272.5,265.9z"
					/>
				<path class="st18" d="M272.5,265.9c4,1,6.8,17.6,6.8,17.6l-11.1,7.5c0,0-10.6-16.7-7.5-21.1C264,265.2,266.7,264.4,272.5,265.9z
					"/>
			</g>
			<g>
				<path class="st8" d="M272.9,271.9l-8.6,2l-0.8,8.4c2.3,4.6,4.8,8.7,4.8,8.7l6.7-4.6C274.7,282.5,274,274.5,272.9,271.9z"/>
				<path class="st19" d="M272.9,271.9l-8.6,2l-0.8,8.4c2.3,4.6,4.8,8.7,4.8,8.7l6.7-4.6C274.7,282.5,274,274.5,272.9,271.9z"/>
			</g>
			<path class="st17" d="M309.6,310.7l6.9-7l0.9,9.9c0,0-5.2,3.5-8.8,1.6L309.6,310.7z"/>
			<polygon class="st17" points="324.7,302.6 325,310.9 317.4,313.5 316.5,303.7 			"/>
			<g>
				<path class="st8" d="M272.5,265.9c0,0,4.7,1.6-4.7,58.9c-15.7,0-32,0-39.7,0c0.7-16.1,0.7-26.1-7-59.2c0,0,8.3-1.8,16.8-2.2
					c6.7-0.3,12.1-0.5,18,0C263.8,264.1,272.5,265.9,272.5,265.9z"/>
				<path class="st18" d="M272.5,265.9c0,0,4.7,1.6-4.7,58.9c-15.7,0-32,0-39.7,0c0.7-16.1,0.7-26.1-7-59.2c0,0,8.3-1.8,16.8-2.2
					c6.7-0.3,12.1-0.5,18,0C263.8,264.1,272.5,265.9,272.5,265.9z"/>
			</g>
			<g>
				<path class="st8" d="M260.6,263.9c-1.5-0.2-3.1-0.4-4.6-0.5c-5.9-0.5-11.3-0.3-18,0c-1.4,0.1-2.8,0.2-4.1,0.3l0.3,0.9
					c0.2,0.5,4.1,12.6,18.4,19l2.7,1.2l1.9-2.3C263.5,275.2,262,267.7,260.6,263.9z"/>
				<path class="st9" d="M260.6,263.9c-1.5-0.2-3.1-0.4-4.6-0.5c-5.9-0.5-11.3-0.3-18,0c-1.4,0.1-2.8,0.2-4.1,0.3l0.3,0.9
					c0.2,0.5,4.1,12.6,18.4,19l2.7,1.2l1.9-2.3C263.5,275.2,262,267.7,260.6,263.9z"/>
			</g>
			<g>
				<path class="st8" d="M230.5,281l-5.1,4.4c1.1,5.8,1.8,10.6,2.3,14.9C228.6,295.9,231.1,284.2,230.5,281z"/>
				<path class="st19" d="M230.5,281l-5.1,4.4c1.1,5.8,1.8,10.6,2.3,14.9C228.6,295.9,231.1,284.2,230.5,281z"/>
			</g>
			<path class="st20" d="M245.2,213.8c-10.5-3.3-16.3,8-15.3,22.1c0.7,10.1-1.3,14.5-7.4,14.2c2.8,6.6,38.5,16.6,48.8,4.7
				c-2.9-1.6-4.4-8.6-2.2-14.8C273.9,225.9,269.4,204.6,245.2,213.8z"/>
			<path class="st17" d="M239.8,243.1c1.1,5.8,2.3,16.4-1.8,20.3c0,0,3.4,10.8,16.3,16.6c6.8-8,1.7-16.6,1.7-16.6
				c-6.5-1.5-6.3-6.3-5.2-10.8L239.8,243.1z"/>
			<path class="st21" d="M244.3,246.9l6.5,5.6c-0.3,1.1-0.5,2.1-0.6,3.2c-2.5-0.4-5.9-3.1-6.1-5.7
				C244,248.8,244.1,247.5,244.3,246.9z"/>
			<path class="st17" d="M240.3,226.9c-2.3,9.4-3.4,13.4-0.2,19.5c4.8,9.3,16.9,10,21.9,1.5c4.5-7.7,7.5-21.8-0.4-28.3
				C253.8,213.2,242.6,217.4,240.3,226.9z"/>
			<path class="st20" d="M238.7,232.4c0,0,19.5-6.1,10.6-16.3c-10.5,2.6-10.6,5.7-10.6,5.7V232.4z"/>
			<path class="st20" d="M250.5,221.9c7.3,0.8,14.6,5.1,17,9c1.4-6.7-3.4-15-8.7-16.2c-5.3-1.2-11.7,1.3-11.7,1.3L250.5,221.9z"/>
			<path class="st17" d="M235.5,233.1c-0.1,2,0.8,3.9,1.9,5.1c1.7,1.8,3.7,0.6,4.3-1.6c0.5-2,0.2-5.4-2-6.4
				C237.5,229.2,235.6,230.8,235.5,233.1z"/>
			<path class="st20" d="M317.9,332.5c-22.1-0.3-36.6,14.9-36.6,14.9c2.1,6.2,3.5,10.8,3.5,10.8c12.1-2.2,25.9-3.1,37.3-5.8
				c10.3-2.5,11.4-14.8,10.4-20c-1.1-5.2-6.9-6.3-12.6-8c-6.5-1.9-18.9-1.9-27.8-1.9c-9.4,0.1-21.7,0.9-28.2,2.3
				c0,0-13.6-0.4-23.6-0.2c-5.9-0.8-2.4,7.7,6.9,14.9c9.6,7.5,22.1,10.4,34.1,8.6l0.1,0"/>
			<path class="st20" d="M283.3,356.7l-2.8-10.6c-0.1-0.4-0.5-0.6-0.8-0.6l-8.7,1c-0.9,0.1-1.5,1.1-1.3,2c1,3.7,1.7,5.4,3,10.1
				c0.8,2.9,2,8.9,3.1,12.8c1,3.9,5,3.1,4.9,1.4c-0.4-7.8,1-11.3,2.5-14.4C283.4,357.9,283.5,357.3,283.3,356.7z"/>
			<path class="st8" d="M284.5,363c-0.2,0-0.4-0.1-0.7-0.2c-1.2-0.8-1.5-3.5-1.6-5.1c0-0.1,0-0.1,0.1-0.2c0.1,0,0.1,0,0.2,0
				c0.3,0.4,3.2,3.6,2.9,4.9c-0.1,0.2-0.2,0.4-0.5,0.5C284.8,363,284.7,363,284.5,363z M282.6,358.1c0.2,2.3,0.7,3.9,1.4,4.4
				c0.3,0.2,0.5,0.2,0.8,0.1c0.1,0,0.2-0.1,0.2-0.3C285.3,361.5,283.6,359.3,282.6,358.1z"/>
			<g>
				<polygon class="st8" points="283.4,358.6 279.7,344.9 284.5,342.9 291.3,357.6 				"/>
				<polygon class="st22" points="283.4,358.6 279.7,344.9 284.5,342.9 291.3,357.6 				"/>
			</g>
			<path class="st8" d="M286.3,360c-1.2,0-3.3-1.4-4-2.3c0,0,0-0.1,0-0.2c0-0.1,0.1-0.1,0.1-0.1c0.1,0,2.7-0.5,4,0.4
				c0.4,0.3,0.6,0.6,0.7,1.1c0.1,0.6-0.1,0.8-0.4,0.9C286.5,360,286.4,360,286.3,360z M282.7,357.8c1,1,3.1,2.2,3.8,1.9
				c0.1,0,0.3-0.1,0.2-0.6c-0.1-0.4-0.2-0.7-0.6-0.9C285.2,357.5,283.4,357.7,282.7,357.8z"/>
			<path class="st20" d="M235.8,325.3c-12.3-1.6-30.5-2.2-31.6,10.6c-1,12.8,7.8,26,31.9,26.7s29.3-5.3,30.1-10.5
				c1.1-6.5,3-8.2-2.8-11.1C257.8,338.1,256.7,328,235.8,325.3z"/>
			<path class="st20" d="M261.8,358.9l-2.8-10.6c-0.1-0.4,0.1-0.8,0.4-0.9l8.1-3.4c0.8-0.4,1.9,0.2,2.1,1.1
				c0.9,3.7,1.2,5.6,2.4,10.2c0.8,2.9,2.6,8.7,3.7,12.7c1,3.9-2.8,5.2-3.6,3.7c-3.6-7-6.5-9.3-9.3-11.2
				C262.3,360,262,359.5,261.8,358.9z"/>
			<path class="st8" d="M263.3,365.1c-0.2,0-0.4-0.1-0.5-0.2c-0.9-1,0-5.2,0.1-5.7c0-0.1,0.1-0.1,0.1-0.1c0.1,0,0.1,0,0.2,0.1
				c0.7,1.4,1.8,4,1.2,5.3c-0.2,0.4-0.5,0.6-0.9,0.7C263.4,365.1,263.4,365.1,263.3,365.1z M263.1,359.8c-0.3,1.5-0.7,4.3-0.1,4.9
				c0.1,0.1,0.2,0.1,0.3,0.1c0.3-0.1,0.6-0.2,0.7-0.5C264.6,363.3,263.7,360.9,263.1,359.8z"/>
			<path class="st8" d="M260.5,363.4c-0.2,0-0.5-0.1-0.7-0.6c-0.2-0.4-0.1-0.9,0.1-1.3c0.7-1.4,3.1-2.3,3.2-2.3c0.1,0,0.1,0,0.2,0
				c0,0,0.1,0.1,0.1,0.2C263,360.5,261.6,363.3,260.5,363.4C260.5,363.4,260.5,363.4,260.5,363.4z M262.9,359.5
				c-0.7,0.3-2.3,1-2.8,2.1c-0.2,0.3-0.2,0.7,0,1c0.2,0.4,0.4,0.4,0.4,0.4C261.2,363,262.5,360.9,262.9,359.5z"/>
			<g>
				<polygon class="st8" points="262.3,358.8 260,345.9 254.4,345.7 254.8,362.1 				"/>
				<polygon class="st22" points="262.3,358.8 260,345.9 254.4,345.7 254.8,362.1 				"/>
			</g>
			
				<ellipse transform="matrix(0.2936 -0.9559 0.9559 0.2936 -43.9565 408.5681)" class="st20" cx="254.5" cy="234" rx="1.4" ry="0.9"/>
			
				<ellipse transform="matrix(0.2936 -0.9559 0.9559 0.2936 -40.4435 418.5493)" class="st20" cx="263" cy="236.6" rx="1.4" ry="0.9"/>
			<path class="st20" d="M263.2,235.3l2,0C265.1,235.3,263.8,236.4,263.2,235.3z"/>
			<path class="st23" d="M259.4,237c0,0,0.3,3.6,1.2,5.6c-1.3,0.6-2.8-0.3-2.8-0.3L259.4,237z"/>
			<path class="st20" d="M253.6,243.9C253.6,243.9,253.6,243.9,253.6,243.9c-2.5-1.2-3.2-3.7-3.3-3.8c0-0.1,0-0.2,0.1-0.2
				c0.1,0,0.2,0,0.2,0.1c0,0,0.8,2.5,3,3.7c0.1,0,0.1,0.1,0.1,0.2C253.7,243.9,253.7,243.9,253.6,243.9z"/>
			<path class="st20" d="M253.1,228.7c-0.1,0-0.2,0-0.2-0.1c-0.1-0.1-0.1-0.3,0.1-0.4c2.1-1.4,3.9-0.6,4-0.5
				c0.1,0.1,0.2,0.2,0.2,0.4c-0.1,0.1-0.2,0.2-0.4,0.2c-0.1,0-1.7-0.7-3.5,0.5C253.3,228.7,253.2,228.7,253.1,228.7z"/>
			<path class="st20" d="M267.5,233.8c-0.1,0-0.2-0.1-0.3-0.2c-1-1.9-2.8-2.1-2.8-2.1c-0.2,0-0.3-0.2-0.3-0.3c0-0.2,0.2-0.3,0.3-0.3
				c0.1,0,2.1,0.2,3.3,2.4c0.1,0.1,0,0.3-0.1,0.4C267.6,233.8,267.5,233.8,267.5,233.8z"/>
			<path class="st20" d="M254.7,232.6l2,0C256.6,232.7,255.3,233.8,254.7,232.6z"/>
			<g>
				<path class="st8" d="M227.6,322.5l-0.3,3.5c-0.1,0.3,0.2,0.6,0.6,0.6h40.1c0.4,0,0.7-0.2,0.7-0.4l0.4-3.5c0-0.2-0.3-0.5-0.7-0.5
					h-40.2C228,322.2,227.7,322.3,227.6,322.5z"/>
				<path class="st13" d="M227.6,322.5l-0.3,3.5c-0.1,0.3,0.2,0.6,0.6,0.6h40.1c0.4,0,0.7-0.2,0.7-0.4l0.4-3.5
					c0-0.2-0.3-0.5-0.7-0.5h-40.2C228,322.2,227.7,322.3,227.6,322.5z"/>
			</g>
			<path class="st20" d="M233,327h-1.1c-0.2,0-0.4-0.1-0.4-0.2l0.5-4.6c0-0.1,0.2-0.2,0.4-0.2h1.1c0.2,0,0.4,0.1,0.4,0.2l-0.5,4.6
				C233.4,326.8,233.2,327,233,327z"/>
			<path class="st20" d="M265,327H264c-0.2,0-0.4-0.1-0.4-0.2l0.5-4.6c0-0.1,0.2-0.2,0.4-0.2h1.1c0.2,0,0.4,0.1,0.4,0.2l-0.5,4.6
				C265.4,326.8,265.2,327,265,327z"/>
			<path class="st20" d="M249,327h-1.1c-0.2,0-0.4-0.1-0.4-0.2l0.5-4.6c0-0.1,0.2-0.2,0.4-0.2h1.1c0.2,0,0.4,0.1,0.4,0.2l-0.5,4.6
				C249.4,326.8,249.2,327,249,327z"/>
		</g>
		<g>
			<polygon class="st11" points="338.9,297.4 269.3,297.4 259.2,338.5 328.8,338.5 			"/>
			<polygon class="st11" points="303.7,330.8 261.1,340.8 233.8,333.1 234.1,330.8 			"/>
			<path class="st17" d="M227.1,279.7c-0.8,2.7-1.7,5.6-2.5,8.3c-0.8,2.8-1.7,5.6-2.4,8.4c-0.7,2.8-1.4,5.6-2,8.3
				c-0.3,1.4-0.5,2.7-0.7,4c-0.2,1.2-0.2,2.8-0.2,2.7c0.1,0.4,0.5,1.2,1.2,1.9c0.7,0.8,1.7,1.6,2.7,2.4c2.1,1.5,4.5,2.9,7.1,4.2
				c5.1,2.5,10.5,4.8,16,6.8l-1.2,4.9c-6.1-1-12-2.5-17.8-4.7c-2.9-1.1-5.8-2.4-8.7-4.1c-1.4-0.9-2.9-1.9-4.3-3.2
				c-1.4-1.3-2.8-3-3.6-5.5c-0.2-0.6-0.4-1.3-0.4-2l0-0.5l0-0.4l0-0.7c0-0.9,0-1.8,0-2.6c0.1-1.7,0.3-3.3,0.5-4.8
				c0.4-3.1,1-6.2,1.7-9.1c0.7-3,1.4-5.9,2.3-8.8c0.9-2.9,1.7-5.8,2.7-8.7L227.1,279.7z"/>
			<g>
				<path class="st8" d="M221.2,265.6c-4,1.2-10.1,16.8-10.1,16.8l15.4,11c0,0,6.9-13.3,5.3-18.5
					C230.1,269.6,225.7,264.2,221.2,265.6z"/>
				<path class="st18" d="M221.2,265.6c-4,1.2-10.1,16.8-10.1,16.8l15.4,11c0,0,6.9-13.3,5.3-18.5
					C230.1,269.6,225.7,264.2,221.2,265.6z"/>
			</g>
			<path class="st17" d="M244.3,327.1l9.3-2.3l-4.4,8.9c0,0-6.3,0.3-8.3-3.2L244.3,327.1z"/>
			<polygon class="st17" points="261,328.2 256.9,335.4 249.1,333.7 253.5,324.8 			"/>
			<polygon class="st8" points="341.1,297.4 271.5,297.4 261.4,338.5 331,338.5 			"/>
			<polygon class="st8" points="331,338.5 330.7,340.8 261.1,340.8 261.4,338.5 			"/>
		</g>
	</g>
	<g>
		<g>
			<path class="st8" d="M147,320.1L147,320.1c-0.6,0-1.1,0-1.7,0.1c-11.9,0.8-21.5,10.9-22.2,23.3c-0.2,2.8,0.1,5.6,0.8,8.1
				c2.7,10.6,3.8,21.6,3.8,32.5v32c0,2.3,1.8,4.2,4,4.2H147h15.4H229V320.1H147z"/>
			<path class="st9" d="M147,320.1L147,320.1c-0.6,0-1.1,0-1.7,0.1c-11.9,0.8-21.5,10.9-22.2,23.3c-0.2,2.8,0.1,5.6,0.8,8.1
				c2.7,10.6,3.8,21.6,3.8,32.5v32c0,2.3,1.8,4.2,4,4.2H147h15.4H229V320.1H147z"/>
		</g>
		<path class="st8" d="M252.9,345c0-14.4-11.7-25.9-25.7-24.9c-11.9,0.8-21.5,10.9-22.2,23.3c-0.2,2.8,0.1,5.6,0.8,8.1
			c2.7,10.6,3.8,21.6,3.8,32.5v32c0,2.3,1.8,4.2,4,4.2h30.7c2.2,0,4-1.9,4-4.2v-33.8c0-10.3,1.1-20.6,3.7-30.5
			C252.6,349.6,252.9,347.3,252.9,345z"/>
	</g>
</g>
</svg>
