<?xml version="1.0" encoding="UTF-8"?>
<svg width="122px" height="199px" viewBox="0 0 122 199" version="1.1" xmlns="http://www.w3.org/2000/svg" xmlns:xlink="http://www.w3.org/1999/xlink">
    <!-- Generator: Sketch 57.1 (83088) - https://sketch.com -->
    <title>Group 17</title>
    <desc>Created with Sketch.</desc>
    <defs>
        <polygon id="path-1" points="0.762664592 0.320789189 21.8645405 0.320789189 21.8645405 20.4512328 0.762664592 20.4512328"></polygon>
        <polygon id="path-3" points="0.937156131 0.676108108 38.9524439 0.676108108 38.9524439 36.9429951 0.937156131 36.9429951"></polygon>
    </defs>
    <g id="Page-1" stroke="none" stroke-width="1" fill="none" fill-rule="evenodd">
        <g id="Bitmap" transform="translate(-344.000000, -1278.000000)">
            <g id="Group-9" transform="translate(216.000000, 1270.000000)">
                <g id="Group-17" transform="translate(100.000000, 7.000000)">
                    <rect id="Rectangle" stroke="#979797" stroke-width="1.08108108" fill="#D8D8D8" opacity="0" x="0" y="78.9189189" width="196.756757" height="73.5135135"></rect>
                    <g id="Group-16" transform="translate(28.108108, 0.000000)">
                        <g id="Oval-2" transform="translate(19.459459, 188.108108)" fill="#D8D9DA">
                            <ellipse id="Oval" cx="50.8108108" cy="5.94594595" rx="50.8108108" ry="5.94594595"></ellipse>
                        </g>
                        <g id="Group-38">
                            <path d="M109.211351,110.163524 C108.800432,105.995308 105.045405,102.587632 100.856757,102.589902 L93.9347027,102.589902 C89.7528649,102.592173 82.8943784,102.592173 78.708,102.592173 L70.2444324,102.592173 L61.7831351,102.592173 C57.5967568,102.592173 50.7405405,102.592173 46.5541622,102.589902 L39.6343784,102.589902 C35.448,102.587632 31.6884324,105.995308 31.2797838,110.163524 L28.4396757,139.311524 C28.0287568,143.479741 31.1254054,146.889686 35.3140541,146.889686 L45.3463784,146.889686 L45.3463784,155.255632 L45.3463784,170.484605 L45.3463784,182.342227 L64.3825946,182.342227 L64.3825946,163.508065 C64.3825946,159.319416 67.0229189,157.716605 70.2444324,157.716605 C73.4682162,157.716605 76.1108108,159.319416 76.1108108,163.508065 L76.1108108,182.342227 L95.147027,182.342227 L95.147027,170.484605 L95.147027,155.255632 L95.147027,146.889686 L105.179351,146.889686 C109.363459,146.889686 112.462378,143.479741 112.05373,139.311524 L109.211351,110.163524 Z" id="Fill-1" fill="#E2E6E3"></path>
                            <path d="M12.087373,67.9394486 C11.2428324,67.4990162 9.86023784,67.4990162 9.0156973,67.9394486 L5.04272432,70.025827 C4.20499459,70.4685297 3.6396973,70.0621514 3.80315676,69.1222595 L4.56142703,64.7065838 C4.72488649,63.7621514 4.29353514,62.4499351 3.61018378,61.7802054 L0.402291892,58.6495027 C-0.28332973,57.9865838 -0.0699243243,57.3259351 0.874508108,57.1874486 L5.31288649,56.5449622 C6.25731892,56.4064757 7.37656216,55.5914486 7.79883243,54.7355568 L9.78304865,50.7194486 C10.2053189,49.8590162 10.8977514,49.8590162 11.3200216,50.7194486 L13.3065081,54.737827 C13.7242378,55.5914486 14.8457514,56.4064757 15.7901838,56.5449622 L20.2262919,57.1874486 C21.1729946,57.3259351 21.3864,57.9865838 20.7007784,58.6495027 L17.4928865,61.7802054 C16.8095351,62.4499351 16.3804541,63.7621514 16.539373,64.7065838 L17.2999135,69.1222595 C17.463373,70.0621514 16.9026162,70.4685297 16.0580757,70.025827 L12.087373,67.9394486 Z" id="Fill-3" fill="#FBC111"></path>
                            <g id="Group-7" transform="translate(96.432432, 26.675470)">
                                <mask id="mask-2" fill="white">
                                    <use xlink:href="#path-1"></use>
                                </mask>
                                <g id="Clip-6"></g>
                                <path d="M12.8497514,18.1866811 C12.0052108,17.7439784 10.6248865,17.7439784 9.77807568,18.1866811 L5.80737297,20.2730595 C4.96737297,20.7134919 4.39980541,20.3093838 4.56780541,19.3694919 L5.32607568,14.9515459 C5.48726486,14.0093838 5.05591351,12.6948973 4.37483243,12.0251676 L1.16467027,8.89673514 C0.479048649,8.23381622 0.692454054,7.57316757 1.63688649,7.43468108 L6.07753514,6.78992432 C7.02196757,6.65370811 8.13894054,5.83868108 8.56348108,4.98051892 L10.5431568,0.964410811 C10.9676973,0.106248649 11.6624,0.106248649 12.0824,0.964410811 L14.0688865,4.98505946 C14.4843459,5.83868108 15.6081297,6.65370811 16.5525622,6.78992432 L20.9886703,7.43468108 C21.9376432,7.57316757 22.1487784,8.23381622 21.4631568,8.89673514 L18.2552649,12.0251676 C17.5719135,12.6948973 17.1451027,14.0093838 17.3040216,14.9515459 L18.0622919,19.3694919 C18.2257514,20.3093838 17.6649946,20.7134919 16.8204541,20.2730595 L12.8497514,18.1866811 Z" id="Fill-5" fill="#FBC111" mask="url(#mask-2)"></path>
                            </g>
                            <g id="Group-10" transform="translate(19.243243, 0.513308)">
                                <mask id="mask-4" fill="white">
                                    <use xlink:href="#path-3"></use>
                                </mask>
                                <g id="Clip-9"></g>
                                <path d="M22.7179351,32.8644541 C21.1945838,32.0630486 18.701827,32.0630486 17.1784757,32.8644541 L10.0316649,36.6194811 C8.50831351,37.4186162 7.49577297,36.6853189 7.78636757,34.9916973 L9.15307027,27.0344 C9.44593514,25.3362378 8.67177297,22.9660757 7.44128649,21.7651027 L1.65890811,16.1234811 C0.426151351,14.9293189 0.812097297,13.737427 2.5148,13.4922378 L10.5038811,12.3344 C12.2111243,12.0846703 14.2271243,10.6180757 14.9922054,9.07202162 L18.5610703,1.83212973 C19.3193405,0.290616216 20.5702595,0.290616216 21.3285297,1.83212973 L24.9042054,9.07429189 C25.6624757,10.6180757 27.6852865,12.0846703 29.3879892,12.3344 L37.3748,13.4922378 C39.0775027,13.737427 39.4634486,14.9293189 38.2306919,16.1234811 L32.4528541,21.7651027 C31.217827,22.9660757 30.4527459,25.3362378 30.7410703,27.0344 L32.1032324,34.9916973 C32.4006378,36.6853189 31.3903676,37.4186162 29.8647459,36.6194811 L22.7179351,32.8644541 Z" id="Fill-8" fill="#FBC111" mask="url(#mask-4)"></path>
                            </g>
                            <path d="M99.7488649,78.7942919 C99.7488649,95.0857514 86.5381622,108.298724 70.2444324,108.298724 C53.952973,108.298724 40.7422703,95.0857514 40.7422703,78.7942919 C40.7422703,62.5005622 53.952973,49.2898595 70.2444324,49.2898595 C86.5381622,49.2898595 99.7488649,62.5005622 99.7488649,78.7942919" id="Fill-11" fill="#323F46"></path>
                            <path d="M51.013427,69.2864 C50.6819676,69.2864 50.3482378,69.2001297 50.0440216,69.0185081 C49.1404541,68.4827243 48.8430486,67.3112649 49.3788324,66.4076973 C53.7332108,59.0838054 61.7291027,54.5319135 70.2448865,54.5319135 C71.2982919,54.5319135 72.1519135,55.3832649 72.1519135,56.4366703 C72.1519135,57.4878054 71.2982919,58.3391568 70.2448865,58.3391568 C63.0662919,58.3391568 56.3235892,62.1781838 52.6502919,68.3578595 C52.2961297,68.9549405 51.6627243,69.2864 51.013427,69.2864" id="Fill-13" fill="#B9C9D2"></path>
                            <path d="M86.8743892,54.4297514 C90.1163351,59.1655351 92.0165514,64.8888865 92.0165514,71.0594811 C92.0165514,87.3509405 78.8035784,100.563914 62.5121189,100.563914 C56.3392541,100.563914 50.618173,98.661427 45.8846595,95.4240216 C51.1925514,103.192886 60.1260649,108.298724 70.2446595,108.298724 C86.5383892,108.298724 99.7490919,95.0857514 99.7490919,78.7942919 C99.7490919,68.6711568 94.6455243,59.7444541 86.8743892,54.4297514" id="Fill-15" fill="#29343B"></path>
                            <path d="M99.3985622,186.596714 C99.3985622,184.244714 97.4960757,182.342227 95.1463459,182.342227 L76.1101297,182.342227 L76.1101297,192.774119 L99.3985622,192.774119 L99.3985622,186.596714 Z" id="Fill-17" fill="#323F46"></path>
                            <path d="M41.0921189,186.596714 C41.0921189,184.244714 42.9946054,182.342227 45.3466054,182.342227 L64.3828216,182.342227 L64.3828216,192.774119 L41.0921189,192.774119 L41.0921189,186.596714 Z" id="Fill-19" fill="#323F46"></path>
                            <polygon id="Fill-21" fill="#FEFEFE" points="57.9963243 134.647254 82.4925405 134.647254 82.4925405 120.049416 57.9963243 120.049416"></polygon>
                            <path d="M82.2984324,168.742627 L88.9548649,168.742627 C90.0082703,168.742627 90.8596216,167.889005 90.8596216,166.83787 C90.8596216,165.786735 90.0082703,164.933114 88.9548649,164.933114 L82.2984324,164.933114 C81.2472973,164.933114 80.3959459,165.786735 80.3959459,166.83787 C80.3959459,167.889005 81.2472973,168.742627 82.2984324,168.742627" id="Fill-23" fill="#BEC3C2"></path>
                            <path d="M88.9539568,169.85347 L82.2975243,169.85347 C81.2463892,169.85347 80.3950378,170.704822 80.3950378,171.755957 C80.3950378,172.809362 81.2463892,173.660714 82.2975243,173.660714 L88.9539568,173.660714 C90.0073622,173.660714 90.8587135,172.809362 90.8587135,171.755957 C90.8587135,170.704822 90.0073622,169.85347 88.9539568,169.85347" id="Fill-24" fill="#BEC3C2"></path>
                            <path d="M41.3039351,128.457589 L34.649773,128.457589 C33.5963676,128.457589 32.7450162,129.308941 32.7450162,130.360076 C32.7450162,131.413481 33.5963676,132.262562 34.649773,132.262562 L41.3039351,132.262562 C42.3550703,132.262562 43.2064216,131.413481 43.2064216,130.360076 C43.2064216,129.308941 42.3550703,128.457589 41.3039351,128.457589" id="Fill-25" fill="#BEC3C2"></path>
                            <path d="M34.6493189,127.349016 L41.3034811,127.349016 C42.3568865,127.349016 43.2082378,126.497665 43.2082378,125.44653 C43.2082378,124.393124 42.3568865,123.541773 41.3034811,123.541773 L34.6493189,123.541773 C33.5959135,123.541773 32.7445622,124.393124 32.7445622,125.44653 C32.7445622,126.497665 33.5959135,127.349016 34.6493189,127.349016" id="Fill-26" fill="#BEC3C2"></path>
                            <path d="M51.5355892,168.742627 L58.1920216,168.742627 C59.2431568,168.742627 60.0945081,167.889005 60.0945081,166.83787 C60.0945081,165.786735 59.2431568,164.933114 58.1920216,164.933114 L51.5355892,164.933114 C50.4844541,164.933114 49.6331027,165.786735 49.6331027,166.83787 C49.6331027,167.889005 50.4844541,168.742627 51.5355892,168.742627" id="Fill-27" fill="#BEC3C2"></path>
                            <path d="M58.1911135,169.85347 L51.5346811,169.85347 C50.4835459,169.85347 49.6321946,170.704822 49.6321946,171.755957 C49.6321946,172.809362 50.4835459,173.660714 51.5346811,173.660714 L58.1911135,173.660714 C59.2422486,173.660714 60.0936,172.809362 60.0936,171.755957 C60.0936,170.704822 59.2422486,169.85347 58.1911135,169.85347" id="Fill-28" fill="#BEC3C2"></path>
                            <path d="M72.3882486,127.349016 C72.3882486,128.529557 71.4233838,129.489881 70.2451135,129.489881 C69.0691135,129.489881 68.1042486,128.529557 68.1042486,127.349016 C68.1042486,126.168476 69.0691135,125.208151 70.2451135,125.208151 C71.4233838,125.208151 72.3882486,126.168476 72.3882486,127.349016" id="Fill-29" fill="#323F46"></path>
                            <path d="M77.7424541,127.349016 C77.7424541,128.529557 76.7775892,129.489881 75.5993189,129.489881 C74.4210486,129.489881 73.4584541,128.529557 73.4584541,127.349016 C73.4584541,126.168476 74.4210486,125.208151 75.5993189,125.208151 C76.7775892,125.208151 77.7424541,126.168476 77.7424541,127.349016" id="Fill-30" fill="#323F46"></path>
                            <path d="M67.0340432,127.349016 C67.0340432,128.529557 66.0714486,129.489881 64.8909081,129.489881 C63.7149081,129.489881 62.7500432,128.529557 62.7500432,127.349016 C62.7500432,126.168476 63.7149081,125.208151 64.8909081,125.208151 C66.0714486,125.208151 67.0340432,126.168476 67.0340432,127.349016" id="Fill-31" fill="#323F46"></path>
                            <path d="M59.9033514,132.742497 L80.5900541,132.742497 L80.5900541,121.954173 L59.9033514,121.954173 L59.9033514,132.742497 Z M85.428,125.445849 L84.3972973,125.445849 L84.3972973,120.049416 C84.3972973,118.998281 83.5436757,118.14693 82.4925405,118.14693 L57.9985946,118.14693 C56.9451892,118.14693 56.0938378,118.998281 56.0938378,120.049416 L56.0938378,125.445849 L55.0608649,125.445849 C54.0097297,125.445849 53.1561081,126.29493 53.1561081,127.348335 C53.1561081,128.401741 54.0097297,129.250822 55.0608649,129.250822 L56.0938378,129.250822 L56.0938378,134.647254 C56.0938378,135.698389 56.9451892,136.549741 57.9985946,136.549741 L82.4925405,136.549741 C83.5436757,136.549741 84.3972973,135.698389 84.3972973,134.647254 L84.3972973,129.250822 L85.428,129.250822 C86.4814054,129.250822 87.335027,128.401741 87.335027,127.348335 C87.335027,126.29493 86.4814054,125.445849 85.428,125.445849 L85.428,125.445849 Z" id="Fill-32" fill="#29343B"></path>
                            <path d="M99.1858378,128.457589 L105.844541,128.457589 C106.895676,128.457589 107.747027,129.308941 107.747027,130.360076 C107.747027,131.413481 106.895676,132.262562 105.844541,132.262562 L99.1858378,132.262562 C98.1347027,132.262562 97.2833514,131.413481 97.2833514,130.360076 C97.2833514,129.308941 98.1347027,128.457589 99.1858378,128.457589" id="Fill-33" fill="#BEC3C2"></path>
                            <path d="M105.843632,127.349016 L99.1849297,127.349016 C98.1337946,127.349016 97.2824432,126.497665 97.2824432,125.44653 C97.2824432,124.393124 98.1337946,123.541773 99.1849297,123.541773 L105.843632,123.541773 C106.894768,123.541773 107.746119,124.393124 107.746119,125.44653 C107.746119,126.497665 106.894768,127.349016 105.843632,127.349016" id="Fill-34" fill="#BEC3C2"></path>
                            <path d="M41.1021081,157.314768 L45.3452432,157.314768 L45.3452432,146.889686 L33.701027,146.889686 L33.6964865,149.909146 C33.6964865,153.997903 37.0110811,157.314768 41.1021081,157.314768" id="Fill-35" fill="#323F46"></path>
                            <path d="M99.3897081,157.314768 L95.146573,157.314768 L95.146573,146.889686 L106.790789,146.889686 L106.79533,149.909146 C106.79533,153.997903 103.478465,157.314768 99.3897081,157.314768" id="Fill-36" fill="#323F46"></path>
                            <path d="M108.927568,143.383935 C107.992216,144.419178 106.661838,144.989016 105.179351,144.989016 L97.0495135,144.989016 L97.0495135,135.744476 C97.0495135,134.69107 96.2004324,133.839719 95.147027,133.839719 C94.0936216,133.839719 93.2445405,134.69107 93.2445405,135.744476 L93.2445405,180.439286 L78.0132973,180.439286 L78.0132973,163.507611 C78.0132973,161.546097 77.5251892,159.927395 76.692,158.658314 C78.8464865,158.279178 80.916973,157.716151 82.8512432,156.971503 C83.832,156.592368 84.3155676,155.486746 83.9364324,154.503719 C83.5572973,153.522962 82.4562162,153.043935 81.4731892,153.416259 C74.7236757,156.0248 65.772,156.0248 59.0156757,153.416259 C58.0394595,153.043935 56.9338378,153.522962 56.5547027,154.503719 C56.1732973,155.486746 56.6614054,156.592368 57.6421622,156.971503 C59.5741622,157.716151 61.6446486,158.279178 63.7991351,158.658314 C62.9659459,159.927395 62.4801081,161.546097 62.4801081,163.507611 L62.4801081,180.439286 L47.2488649,180.439286 L47.2488649,135.744476 C47.2488649,134.69107 46.3975135,133.839719 45.3463784,133.839719 C44.292973,133.839719 43.4416216,134.69107 43.4416216,135.744476 L43.4416216,144.989016 L35.3140541,144.989016 C33.8315676,144.989016 32.4989189,144.419178 31.5612973,143.383935 C30.6259459,142.350962 30.1877838,140.972908 30.3330811,139.499503 L33.1731892,110.351503 C33.4864865,107.175395 36.4446486,104.491935 39.6343784,104.491935 L52.248,104.491935 C57.3515676,108.078962 63.5516757,110.201665 70.2444324,110.201665 C76.9371892,110.201665 83.1395676,108.078962 88.2408649,104.491935 L100.856757,104.491935 C104.048757,104.491935 107.002378,107.175395 107.313405,110.351503 L110.155784,139.499503 C110.303351,140.972908 109.867459,142.350962 108.927568,143.383935 L108.927568,143.383935 Z M99.3901622,155.411827 L97.0495135,155.411827 L97.0495135,153.068908 L97.0495135,148.793989 L104.891027,148.793989 L104.891027,149.913232 C104.891027,152.941773 102.423243,155.411827 99.3901622,155.411827 L99.3901622,155.411827 Z M97.4967568,186.596259 L97.4967568,190.866638 L78.0132973,190.866638 L78.0132973,184.244259 L95.147027,184.244259 C96.4433514,184.244259 97.4967568,185.302205 97.4967568,186.596259 L97.4967568,186.596259 Z M62.4801081,190.866638 L42.9943784,190.866638 L42.9943784,186.596259 C42.9943784,185.302205 44.0477838,184.244259 45.3463784,184.244259 L62.4801081,184.244259 L62.4801081,190.866638 Z M41.1032432,155.411827 C38.0678919,155.411827 35.6001081,152.941773 35.6001081,149.913232 L35.6023784,148.793989 L43.4416216,148.793989 L43.4416216,153.068908 L43.4416216,155.411827 L41.1032432,155.411827 Z M40.6491892,89.2039351 C42.1816216,93.5424216 44.6198919,97.4540973 47.771027,100.684692 L39.6275676,100.684692 C35.6886486,100.684692 32.0902703,103.136584 30.3852973,106.580584 C30.1128649,105.495395 29.9494054,104.3648 29.9494054,103.1888 C29.9494054,96.4960432 34.499027,90.9293405 40.6491892,89.2039351 L40.6491892,89.2039351 Z M70.2444324,51.1950703 C85.4643243,51.1950703 97.8463784,63.5748541 97.8463784,78.7947459 C97.8463784,94.0123676 85.4643243,106.394422 70.2444324,106.394422 C55.0268108,106.394422 42.647027,94.0123676 42.647027,78.7947459 C42.647027,63.5748541 55.0268108,51.1950703 70.2444324,51.1950703 L70.2444324,51.1950703 Z M113.949405,139.127178 L111.107027,109.979178 C110.600757,104.855178 106.00573,100.684692 100.863568,100.684692 L92.7201081,100.684692 C98.2345946,95.0226378 101.653622,87.3037189 101.653622,78.7947459 C101.653622,62.1173405 88.5791351,48.4775568 72.1514595,47.4831784 L72.1514595,43.9143135 C73.2207568,43.2582054 73.9722162,42.1321514 73.9722162,40.7881514 C73.9722162,38.7312865 72.3012973,37.0603676 70.2444324,37.0603676 C68.1898378,37.0603676 66.5211892,38.7312865 66.5211892,40.7881514 C66.5211892,42.1321514 67.2726486,43.2582054 68.3419459,43.9143135 L68.3419459,47.4831784 C51.912,48.4775568 38.8397838,62.1173405 38.8397838,78.7947459 C38.8397838,80.4633946 39.0077838,82.0866378 39.2597838,83.6871784 C30.635027,86.0414486 24.2374054,93.8307459 24.2374054,103.1888 C24.2374054,108.029016 25.9673514,112.446962 28.8051892,115.934097 L26.544,139.127178 C26.2942703,141.681232 27.0752432,144.101341 28.7416216,145.940259 C29.6020541,146.884692 30.6418378,147.608908 31.7951351,148.092476 L31.7928649,149.908692 C31.7928649,155.044043 35.9701622,159.221341 41.1032432,159.221341 L43.4416216,159.221341 L43.4416216,180.768476 C40.9829189,181.574422 39.1871351,183.871935 39.1871351,186.596259 L39.1871351,192.773665 C39.1871351,193.82253 40.0407568,194.676151 41.0918919,194.676151 L64.3825946,194.676151 C65.436,194.676151 66.2850811,193.82253 66.2850811,192.773665 L66.2850811,182.341773 L66.2850811,163.507611 C66.2850811,160.410962 68.0967568,159.221341 70.2444324,159.221341 C72.3966486,159.221341 74.2060541,160.410962 74.2060541,163.507611 L74.2060541,182.341773 L74.2060541,192.773665 C74.2060541,193.82253 75.0574054,194.676151 76.1108108,194.676151 L99.3992432,194.676151 C100.452649,194.676151 101.304,193.82253 101.304,192.773665 L101.304,186.596259 C101.304,183.871935 99.5082162,181.574422 97.0495135,180.768476 L97.0495135,159.221341 L99.3901622,159.221341 C104.518703,159.221341 108.69827,155.044043 108.69827,149.908692 L108.69827,148.092476 C109.851568,147.608908 110.891351,146.884692 111.749514,145.940259 C113.418162,144.101341 114.196865,141.681232 113.949405,139.127178 L113.949405,139.127178 Z" id="Fill-37" fill="#29343B"></path>
                        </g>
                    </g>
                </g>
            </g>
        </g>
    </g>
</svg>